solid
facet normal 1 0 0
outer loop
vertex 0.3499999940395355 0.02500000037252903 0.02500000037252903
vertex 0.3499999940395355 -0.02500000037252903 0.02500000037252903
vertex 0.3499999940395355 0.02500000037252903 -0.02500000037252903
endloop
endfacet
facet normal 1 0 0
outer loop
vertex 0.3499999940395355 -0.02500000037252903 0.02500000037252903
vertex 0.3499999940395355 -0.02500000037252903 -0.02500000037252903
vertex 0.3499999940395355 0.02500000037252903 -0.02500000037252903
endloop
endfacet
facet normal -1 0 0
outer loop
vertex -0.3499999940395355 0.02500000037252903 -0.02500000037252903
vertex -0.3499999940395355 -0.02500000037252903 -0.02500000037252903
vertex -0.3499999940395355 0.02500000037252903 0.02500000037252903
endloop
endfacet
facet normal -1 0 0
outer loop
vertex -0.3499999940395355 -0.02500000037252903 -0.02500000037252903
vertex -0.3499999940395355 -0.02500000037252903 0.02500000037252903
vertex -0.3499999940395355 0.02500000037252903 0.02500000037252903
endloop
endfacet
facet normal 0 1 0
outer loop
vertex -0.3499999940395355 0.02500000037252903 -0.02500000037252903
vertex -0.3499999940395355 0.02500000037252903 0.02500000037252903
vertex 0.3499999940395355 0.02500000037252903 -0.02500000037252903
endloop
endfacet
facet normal 0 1 0
outer loop
vertex -0.3499999940395355 0.02500000037252903 0.02500000037252903
vertex 0.3499999940395355 0.02500000037252903 0.02500000037252903
vertex 0.3499999940395355 0.02500000037252903 -0.02500000037252903
endloop
endfacet
facet normal 0 -1 0
outer loop
vertex -0.3499999940395355 -0.02500000037252903 0.02500000037252903
vertex -0.3499999940395355 -0.02500000037252903 -0.02500000037252903
vertex 0.3499999940395355 -0.02500000037252903 0.02500000037252903
endloop
endfacet
facet normal 0 -1 0
outer loop
vertex -0.3499999940395355 -0.02500000037252903 -0.02500000037252903
vertex 0.3499999940395355 -0.02500000037252903 -0.02500000037252903
vertex 0.3499999940395355 -0.02500000037252903 0.02500000037252903
endloop
endfacet
facet normal 0 0 1
outer loop
vertex -0.3499999940395355 0.02500000037252903 0.02500000037252903
vertex -0.3499999940395355 -0.02500000037252903 0.02500000037252903
vertex 0.3499999940395355 0.02500000037252903 0.02500000037252903
endloop
endfacet
facet normal 0 0 1
outer loop
vertex -0.3499999940395355 -0.02500000037252903 0.02500000037252903
vertex 0.3499999940395355 -0.02500000037252903 0.02500000037252903
vertex 0.3499999940395355 0.02500000037252903 0.02500000037252903
endloop
endfacet
facet normal 0 0 -1
outer loop
vertex 0.3499999940395355 0.02500000037252903 -0.02500000037252903
vertex 0.3499999940395355 -0.02500000037252903 -0.02500000037252903
vertex -0.3499999940395355 0.02500000037252903 -0.02500000037252903
endloop
endfacet
facet normal 0 0 -1
outer loop
vertex 0.3499999940395355 -0.02500000037252903 -0.02500000037252903
vertex -0.3499999940395355 -0.02500000037252903 -0.02500000037252903
vertex -0.3499999940395355 0.02500000037252903 -0.02500000037252903
endloop
endfacet
facet normal 1 0 0
outer loop
vertex 0.3499999940395355 -0.47499999962747097 0.02500000037252903
vertex 0.3499999940395355 -0.525000000372529 0.02500000037252903
vertex 0.3499999940395355 -0.47499999962747097 -0.02500000037252903
endloop
endfacet
facet normal 1 0 0
outer loop
vertex 0.3499999940395355 -0.525000000372529 0.02500000037252903
vertex 0.3499999940395355 -0.525000000372529 -0.02500000037252903
vertex 0.3499999940395355 -0.47499999962747097 -0.02500000037252903
endloop
endfacet
facet normal -1 0 0
outer loop
vertex -0.3499999940395355 -0.47499999962747097 -0.02500000037252903
vertex -0.3499999940395355 -0.525000000372529 -0.02500000037252903
vertex -0.3499999940395355 -0.47499999962747097 0.02500000037252903
endloop
endfacet
facet normal -1 0 0
outer loop
vertex -0.3499999940395355 -0.525000000372529 -0.02500000037252903
vertex -0.3499999940395355 -0.525000000372529 0.02500000037252903
vertex -0.3499999940395355 -0.47499999962747097 0.02500000037252903
endloop
endfacet
facet normal 0 1 0
outer loop
vertex -0.3499999940395355 -0.47499999962747097 -0.02500000037252903
vertex -0.3499999940395355 -0.47499999962747097 0.02500000037252903
vertex 0.3499999940395355 -0.47499999962747097 -0.02500000037252903
endloop
endfacet
facet normal 0 1 0
outer loop
vertex -0.3499999940395355 -0.47499999962747097 0.02500000037252903
vertex 0.3499999940395355 -0.47499999962747097 0.02500000037252903
vertex 0.3499999940395355 -0.47499999962747097 -0.02500000037252903
endloop
endfacet
facet normal 0 -1 0
outer loop
vertex -0.3499999940395355 -0.525000000372529 0.02500000037252903
vertex -0.3499999940395355 -0.525000000372529 -0.02500000037252903
vertex 0.3499999940395355 -0.525000000372529 0.02500000037252903
endloop
endfacet
facet normal 0 -1 0
outer loop
vertex -0.3499999940395355 -0.525000000372529 -0.02500000037252903
vertex 0.3499999940395355 -0.525000000372529 -0.02500000037252903
vertex 0.3499999940395355 -0.525000000372529 0.02500000037252903
endloop
endfacet
facet normal 0 0 1
outer loop
vertex -0.3499999940395355 -0.47499999962747097 0.02500000037252903
vertex -0.3499999940395355 -0.525000000372529 0.02500000037252903
vertex 0.3499999940395355 -0.47499999962747097 0.02500000037252903
endloop
endfacet
facet normal 0 0 1
outer loop
vertex -0.3499999940395355 -0.525000000372529 0.02500000037252903
vertex 0.3499999940395355 -0.525000000372529 0.02500000037252903
vertex 0.3499999940395355 -0.47499999962747097 0.02500000037252903
endloop
endfacet
facet normal 0 0 -1
outer loop
vertex 0.3499999940395355 -0.47499999962747097 -0.02500000037252903
vertex 0.3499999940395355 -0.525000000372529 -0.02500000037252903
vertex -0.3499999940395355 -0.47499999962747097 -0.02500000037252903
endloop
endfacet
facet normal 0 0 -1
outer loop
vertex 0.3499999940395355 -0.525000000372529 -0.02500000037252903
vertex -0.3499999940395355 -0.525000000372529 -0.02500000037252903
vertex -0.3499999940395355 -0.47499999962747097 -0.02500000037252903
endloop
endfacet
facet normal 1 0 0
outer loop
vertex -0.299999987706542 0 0.02500000037252903
vertex -0.299999987706542 -0.5 0.02500000037252903
vertex -0.299999987706542 0 -0.02500000037252903
endloop
endfacet
facet normal 1 0 0
outer loop
vertex -0.299999987706542 -0.5 0.02500000037252903
vertex -0.299999987706542 -0.5 -0.02500000037252903
vertex -0.299999987706542 0 -0.02500000037252903
endloop
endfacet
facet normal -1 0 0
outer loop
vertex -0.3499999884516001 0 -0.02500000037252903
vertex -0.3499999884516001 -0.5 -0.02500000037252903
vertex -0.3499999884516001 0 0.02500000037252903
endloop
endfacet
facet normal -1 0 0
outer loop
vertex -0.3499999884516001 -0.5 -0.02500000037252903
vertex -0.3499999884516001 -0.5 0.02500000037252903
vertex -0.3499999884516001 0 0.02500000037252903
endloop
endfacet
facet normal 0 1 0
outer loop
vertex -0.3499999884516001 0 -0.02500000037252903
vertex -0.3499999884516001 0 0.02500000037252903
vertex -0.299999987706542 0 -0.02500000037252903
endloop
endfacet
facet normal 0 1 0
outer loop
vertex -0.3499999884516001 0 0.02500000037252903
vertex -0.299999987706542 0 0.02500000037252903
vertex -0.299999987706542 0 -0.02500000037252903
endloop
endfacet
facet normal 0 -1 0
outer loop
vertex -0.3499999884516001 -0.5 0.02500000037252903
vertex -0.3499999884516001 -0.5 -0.02500000037252903
vertex -0.299999987706542 -0.5 0.02500000037252903
endloop
endfacet
facet normal 0 -1 0
outer loop
vertex -0.3499999884516001 -0.5 -0.02500000037252903
vertex -0.299999987706542 -0.5 -0.02500000037252903
vertex -0.299999987706542 -0.5 0.02500000037252903
endloop
endfacet
facet normal 0 0 1
outer loop
vertex -0.3499999884516001 0 0.02500000037252903
vertex -0.3499999884516001 -0.5 0.02500000037252903
vertex -0.299999987706542 0 0.02500000037252903
endloop
endfacet
facet normal 0 0 1
outer loop
vertex -0.3499999884516001 -0.5 0.02500000037252903
vertex -0.299999987706542 -0.5 0.02500000037252903
vertex -0.299999987706542 0 0.02500000037252903
endloop
endfacet
facet normal 0 0 -1
outer loop
vertex -0.299999987706542 0 -0.02500000037252903
vertex -0.299999987706542 -0.5 -0.02500000037252903
vertex -0.3499999884516001 0 -0.02500000037252903
endloop
endfacet
facet normal 0 0 -1
outer loop
vertex -0.299999987706542 -0.5 -0.02500000037252903
vertex -0.3499999884516001 -0.5 -0.02500000037252903
vertex -0.3499999884516001 0 -0.02500000037252903
endloop
endfacet
facet normal 1 0 0
outer loop
vertex 0.3499999884516001 0 0.02500000037252903
vertex 0.3499999884516001 -0.5 0.02500000037252903
vertex 0.3499999884516001 0 -0.02500000037252903
endloop
endfacet
facet normal 1 0 0
outer loop
vertex 0.3499999884516001 -0.5 0.02500000037252903
vertex 0.3499999884516001 -0.5 -0.02500000037252903
vertex 0.3499999884516001 0 -0.02500000037252903
endloop
endfacet
facet normal -1 0 0
outer loop
vertex 0.299999987706542 0 -0.02500000037252903
vertex 0.299999987706542 -0.5 -0.02500000037252903
vertex 0.299999987706542 0 0.02500000037252903
endloop
endfacet
facet normal -1 0 0
outer loop
vertex 0.299999987706542 -0.5 -0.02500000037252903
vertex 0.299999987706542 -0.5 0.02500000037252903
vertex 0.299999987706542 0 0.02500000037252903
endloop
endfacet
facet normal 0 1 0
outer loop
vertex 0.299999987706542 0 -0.02500000037252903
vertex 0.299999987706542 0 0.02500000037252903
vertex 0.3499999884516001 0 -0.02500000037252903
endloop
endfacet
facet normal 0 1 0
outer loop
vertex 0.299999987706542 0 0.02500000037252903
vertex 0.3499999884516001 0 0.02500000037252903
vertex 0.3499999884516001 0 -0.02500000037252903
endloop
endfacet
facet normal 0 -1 0
outer loop
vertex 0.299999987706542 -0.5 0.02500000037252903
vertex 0.299999987706542 -0.5 -0.02500000037252903
vertex 0.3499999884516001 -0.5 0.02500000037252903
endloop
endfacet
facet normal 0 -1 0
outer loop
vertex 0.299999987706542 -0.5 -0.02500000037252903
vertex 0.3499999884516001 -0.5 -0.02500000037252903
vertex 0.3499999884516001 -0.5 0.02500000037252903
endloop
endfacet
facet normal 0 0 1
outer loop
vertex 0.299999987706542 0 0.02500000037252903
vertex 0.299999987706542 -0.5 0.02500000037252903
vertex 0.3499999884516001 0 0.02500000037252903
endloop
endfacet
facet normal 0 0 1
outer loop
vertex 0.299999987706542 -0.5 0.02500000037252903
vertex 0.3499999884516001 -0.5 0.02500000037252903
vertex 0.3499999884516001 0 0.02500000037252903
endloop
endfacet
facet normal 0 0 -1
outer loop
vertex 0.3499999884516001 0 -0.02500000037252903
vertex 0.3499999884516001 -0.5 -0.02500000037252903
vertex 0.299999987706542 0 -0.02500000037252903
endloop
endfacet
facet normal 0 0 -1
outer loop
vertex 0.3499999884516001 -0.5 -0.02500000037252903
vertex 0.299999987706542 -0.5 -0.02500000037252903
vertex 0.299999987706542 0 -0.02500000037252903
endloop
endfacet
facet normal 1 0 0
outer loop
vertex 0.3499999940395355 0.02500000037252903 0.02500000037252903
vertex 0.3499999940395355 -0.02500000037252903 0.02500000037252903
vertex 0.3499999940395355 0.02500000037252903 -0.02500000037252903
endloop
endfacet
facet normal 1 0 0
outer loop
vertex 0.3499999940395355 -0.02500000037252903 0.02500000037252903
vertex 0.3499999940395355 -0.02500000037252903 -0.02500000037252903
vertex 0.3499999940395355 0.02500000037252903 -0.02500000037252903
endloop
endfacet
facet normal -1 0 0
outer loop
vertex -0.3499999940395355 0.02500000037252903 -0.02500000037252903
vertex -0.3499999940395355 -0.02500000037252903 -0.02500000037252903
vertex -0.3499999940395355 0.02500000037252903 0.02500000037252903
endloop
endfacet
facet normal -1 0 0
outer loop
vertex -0.3499999940395355 -0.02500000037252903 -0.02500000037252903
vertex -0.3499999940395355 -0.02500000037252903 0.02500000037252903
vertex -0.3499999940395355 0.02500000037252903 0.02500000037252903
endloop
endfacet
facet normal 0 1 0
outer loop
vertex -0.3499999940395355 0.02500000037252903 -0.02500000037252903
vertex -0.3499999940395355 0.02500000037252903 0.02500000037252903
vertex 0.3499999940395355 0.02500000037252903 -0.02500000037252903
endloop
endfacet
facet normal 0 1 0
outer loop
vertex -0.3499999940395355 0.02500000037252903 0.02500000037252903
vertex 0.3499999940395355 0.02500000037252903 0.02500000037252903
vertex 0.3499999940395355 0.02500000037252903 -0.02500000037252903
endloop
endfacet
facet normal 0 -1 0
outer loop
vertex -0.3499999940395355 -0.02500000037252903 0.02500000037252903
vertex -0.3499999940395355 -0.02500000037252903 -0.02500000037252903
vertex 0.3499999940395355 -0.02500000037252903 0.02500000037252903
endloop
endfacet
facet normal 0 -1 0
outer loop
vertex -0.3499999940395355 -0.02500000037252903 -0.02500000037252903
vertex 0.3499999940395355 -0.02500000037252903 -0.02500000037252903
vertex 0.3499999940395355 -0.02500000037252903 0.02500000037252903
endloop
endfacet
facet normal 0 0 1
outer loop
vertex -0.3499999940395355 0.02500000037252903 0.02500000037252903
vertex -0.3499999940395355 -0.02500000037252903 0.02500000037252903
vertex 0.3499999940395355 0.02500000037252903 0.02500000037252903
endloop
endfacet
facet normal 0 0 1
outer loop
vertex -0.3499999940395355 -0.02500000037252903 0.02500000037252903
vertex 0.3499999940395355 -0.02500000037252903 0.02500000037252903
vertex 0.3499999940395355 0.02500000037252903 0.02500000037252903
endloop
endfacet
facet normal 0 0 -1
outer loop
vertex 0.3499999940395355 0.02500000037252903 -0.02500000037252903
vertex 0.3499999940395355 -0.02500000037252903 -0.02500000037252903
vertex -0.3499999940395355 0.02500000037252903 -0.02500000037252903
endloop
endfacet
facet normal 0 0 -1
outer loop
vertex 0.3499999940395355 -0.02500000037252903 -0.02500000037252903
vertex -0.3499999940395355 -0.02500000037252903 -0.02500000037252903
vertex -0.3499999940395355 0.02500000037252903 -0.02500000037252903
endloop
endfacet
facet normal 1 0 0
outer loop
vertex 0.3499999940395355 -0.47499999962747097 0.02500000037252903
vertex 0.3499999940395355 -0.525000000372529 0.02500000037252903
vertex 0.3499999940395355 -0.47499999962747097 -0.02500000037252903
endloop
endfacet
facet normal 1 0 0
outer loop
vertex 0.3499999940395355 -0.525000000372529 0.02500000037252903
vertex 0.3499999940395355 -0.525000000372529 -0.02500000037252903
vertex 0.3499999940395355 -0.47499999962747097 -0.02500000037252903
endloop
endfacet
facet normal -1 0 0
outer loop
vertex -0.3499999940395355 -0.47499999962747097 -0.02500000037252903
vertex -0.3499999940395355 -0.525000000372529 -0.02500000037252903
vertex -0.3499999940395355 -0.47499999962747097 0.02500000037252903
endloop
endfacet
facet normal -1 0 0
outer loop
vertex -0.3499999940395355 -0.525000000372529 -0.02500000037252903
vertex -0.3499999940395355 -0.525000000372529 0.02500000037252903
vertex -0.3499999940395355 -0.47499999962747097 0.02500000037252903
endloop
endfacet
facet normal 0 1 0
outer loop
vertex -0.3499999940395355 -0.47499999962747097 -0.02500000037252903
vertex -0.3499999940395355 -0.47499999962747097 0.02500000037252903
vertex 0.3499999940395355 -0.47499999962747097 -0.02500000037252903
endloop
endfacet
facet normal 0 1 0
outer loop
vertex -0.3499999940395355 -0.47499999962747097 0.02500000037252903
vertex 0.3499999940395355 -0.47499999962747097 0.02500000037252903
vertex 0.3499999940395355 -0.47499999962747097 -0.02500000037252903
endloop
endfacet
facet normal 0 -1 0
outer loop
vertex -0.3499999940395355 -0.525000000372529 0.02500000037252903
vertex -0.3499999940395355 -0.525000000372529 -0.02500000037252903
vertex 0.3499999940395355 -0.525000000372529 0.02500000037252903
endloop
endfacet
facet normal 0 -1 0
outer loop
vertex -0.3499999940395355 -0.525000000372529 -0.02500000037252903
vertex 0.3499999940395355 -0.525000000372529 -0.02500000037252903
vertex 0.3499999940395355 -0.525000000372529 0.02500000037252903
endloop
endfacet
facet normal 0 0 1
outer loop
vertex -0.3499999940395355 -0.47499999962747097 0.02500000037252903
vertex -0.3499999940395355 -0.525000000372529 0.02500000037252903
vertex 0.3499999940395355 -0.47499999962747097 0.02500000037252903
endloop
endfacet
facet normal 0 0 1
outer loop
vertex -0.3499999940395355 -0.525000000372529 0.02500000037252903
vertex 0.3499999940395355 -0.525000000372529 0.02500000037252903
vertex 0.3499999940395355 -0.47499999962747097 0.02500000037252903
endloop
endfacet
facet normal 0 0 -1
outer loop
vertex 0.3499999940395355 -0.47499999962747097 -0.02500000037252903
vertex 0.3499999940395355 -0.525000000372529 -0.02500000037252903
vertex -0.3499999940395355 -0.47499999962747097 -0.02500000037252903
endloop
endfacet
facet normal 0 0 -1
outer loop
vertex 0.3499999940395355 -0.525000000372529 -0.02500000037252903
vertex -0.3499999940395355 -0.525000000372529 -0.02500000037252903
vertex -0.3499999940395355 -0.47499999962747097 -0.02500000037252903
endloop
endfacet
facet normal 1 0 0
outer loop
vertex -0.299999987706542 0 0.02500000037252903
vertex -0.299999987706542 -0.5 0.02500000037252903
vertex -0.299999987706542 0 -0.02500000037252903
endloop
endfacet
facet normal 1 0 0
outer loop
vertex -0.299999987706542 -0.5 0.02500000037252903
vertex -0.299999987706542 -0.5 -0.02500000037252903
vertex -0.299999987706542 0 -0.02500000037252903
endloop
endfacet
facet normal -1 0 0
outer loop
vertex -0.3499999884516001 0 -0.02500000037252903
vertex -0.3499999884516001 -0.5 -0.02500000037252903
vertex -0.3499999884516001 0 0.02500000037252903
endloop
endfacet
facet normal -1 0 0
outer loop
vertex -0.3499999884516001 -0.5 -0.02500000037252903
vertex -0.3499999884516001 -0.5 0.02500000037252903
vertex -0.3499999884516001 0 0.02500000037252903
endloop
endfacet
facet normal 0 1 0
outer loop
vertex -0.3499999884516001 0 -0.02500000037252903
vertex -0.3499999884516001 0 0.02500000037252903
vertex -0.299999987706542 0 -0.02500000037252903
endloop
endfacet
facet normal 0 1 0
outer loop
vertex -0.3499999884516001 0 0.02500000037252903
vertex -0.299999987706542 0 0.02500000037252903
vertex -0.299999987706542 0 -0.02500000037252903
endloop
endfacet
facet normal 0 -1 0
outer loop
vertex -0.3499999884516001 -0.5 0.02500000037252903
vertex -0.3499999884516001 -0.5 -0.02500000037252903
vertex -0.299999987706542 -0.5 0.02500000037252903
endloop
endfacet
facet normal 0 -1 0
outer loop
vertex -0.3499999884516001 -0.5 -0.02500000037252903
vertex -0.299999987706542 -0.5 -0.02500000037252903
vertex -0.299999987706542 -0.5 0.02500000037252903
endloop
endfacet
facet normal 0 0 1
outer loop
vertex -0.3499999884516001 0 0.02500000037252903
vertex -0.3499999884516001 -0.5 0.02500000037252903
vertex -0.299999987706542 0 0.02500000037252903
endloop
endfacet
facet normal 0 0 1
outer loop
vertex -0.3499999884516001 -0.5 0.02500000037252903
vertex -0.299999987706542 -0.5 0.02500000037252903
vertex -0.299999987706542 0 0.02500000037252903
endloop
endfacet
facet normal 0 0 -1
outer loop
vertex -0.299999987706542 0 -0.02500000037252903
vertex -0.299999987706542 -0.5 -0.02500000037252903
vertex -0.3499999884516001 0 -0.02500000037252903
endloop
endfacet
facet normal 0 0 -1
outer loop
vertex -0.299999987706542 -0.5 -0.02500000037252903
vertex -0.3499999884516001 -0.5 -0.02500000037252903
vertex -0.3499999884516001 0 -0.02500000037252903
endloop
endfacet
facet normal 1 0 0
outer loop
vertex 0.3499999884516001 0 0.02500000037252903
vertex 0.3499999884516001 -0.5 0.02500000037252903
vertex 0.3499999884516001 0 -0.02500000037252903
endloop
endfacet
facet normal 1 0 0
outer loop
vertex 0.3499999884516001 -0.5 0.02500000037252903
vertex 0.3499999884516001 -0.5 -0.02500000037252903
vertex 0.3499999884516001 0 -0.02500000037252903
endloop
endfacet
facet normal -1 0 0
outer loop
vertex 0.299999987706542 0 -0.02500000037252903
vertex 0.299999987706542 -0.5 -0.02500000037252903
vertex 0.299999987706542 0 0.02500000037252903
endloop
endfacet
facet normal -1 0 0
outer loop
vertex 0.299999987706542 -0.5 -0.02500000037252903
vertex 0.299999987706542 -0.5 0.02500000037252903
vertex 0.299999987706542 0 0.02500000037252903
endloop
endfacet
facet normal 0 1 0
outer loop
vertex 0.299999987706542 0 -0.02500000037252903
vertex 0.299999987706542 0 0.02500000037252903
vertex 0.3499999884516001 0 -0.02500000037252903
endloop
endfacet
facet normal 0 1 0
outer loop
vertex 0.299999987706542 0 0.02500000037252903
vertex 0.3499999884516001 0 0.02500000037252903
vertex 0.3499999884516001 0 -0.02500000037252903
endloop
endfacet
facet normal 0 -1 0
outer loop
vertex 0.299999987706542 -0.5 0.02500000037252903
vertex 0.299999987706542 -0.5 -0.02500000037252903
vertex 0.3499999884516001 -0.5 0.02500000037252903
endloop
endfacet
facet normal 0 -1 0
outer loop
vertex 0.299999987706542 -0.5 -0.02500000037252903
vertex 0.3499999884516001 -0.5 -0.02500000037252903
vertex 0.3499999884516001 -0.5 0.02500000037252903
endloop
endfacet
facet normal 0 0 1
outer loop
vertex 0.299999987706542 0 0.02500000037252903
vertex 0.299999987706542 -0.5 0.02500000037252903
vertex 0.3499999884516001 0 0.02500000037252903
endloop
endfacet
facet normal 0 0 1
outer loop
vertex 0.299999987706542 -0.5 0.02500000037252903
vertex 0.3499999884516001 -0.5 0.02500000037252903
vertex 0.3499999884516001 0 0.02500000037252903
endloop
endfacet
facet normal 0 0 -1
outer loop
vertex 0.3499999884516001 0 -0.02500000037252903
vertex 0.3499999884516001 -0.5 -0.02500000037252903
vertex 0.299999987706542 0 -0.02500000037252903
endloop
endfacet
facet normal 0 0 -1
outer loop
vertex 0.3499999884516001 -0.5 -0.02500000037252903
vertex 0.299999987706542 -0.5 -0.02500000037252903
vertex 0.299999987706542 0 -0.02500000037252903
endloop
endfacet
facet normal 1 0 0
outer loop
vertex 0.45000000670552254 0.02500000037252903 0.02500000037252903
vertex 0.45000000670552254 -0.02500000037252903 0.02500000037252903
vertex 0.45000000670552254 0.02500000037252903 -0.02500000037252903
endloop
endfacet
facet normal 1 0 0
outer loop
vertex 0.45000000670552254 -0.02500000037252903 0.02500000037252903
vertex 0.45000000670552254 -0.02500000037252903 -0.02500000037252903
vertex 0.45000000670552254 0.02500000037252903 -0.02500000037252903
endloop
endfacet
facet normal -1 0 0
outer loop
vertex 0.3500000052154064 0.02500000037252903 -0.02500000037252903
vertex 0.3500000052154064 -0.02500000037252903 -0.02500000037252903
vertex 0.3500000052154064 0.02500000037252903 0.02500000037252903
endloop
endfacet
facet normal -1 0 0
outer loop
vertex 0.3500000052154064 -0.02500000037252903 -0.02500000037252903
vertex 0.3500000052154064 -0.02500000037252903 0.02500000037252903
vertex 0.3500000052154064 0.02500000037252903 0.02500000037252903
endloop
endfacet
facet normal 0 1 0
outer loop
vertex 0.3500000052154064 0.02500000037252903 -0.02500000037252903
vertex 0.3500000052154064 0.02500000037252903 0.02500000037252903
vertex 0.45000000670552254 0.02500000037252903 -0.02500000037252903
endloop
endfacet
facet normal 0 1 0
outer loop
vertex 0.3500000052154064 0.02500000037252903 0.02500000037252903
vertex 0.45000000670552254 0.02500000037252903 0.02500000037252903
vertex 0.45000000670552254 0.02500000037252903 -0.02500000037252903
endloop
endfacet
facet normal 0 -1 0
outer loop
vertex 0.3500000052154064 -0.02500000037252903 0.02500000037252903
vertex 0.3500000052154064 -0.02500000037252903 -0.02500000037252903
vertex 0.45000000670552254 -0.02500000037252903 0.02500000037252903
endloop
endfacet
facet normal 0 -1 0
outer loop
vertex 0.3500000052154064 -0.02500000037252903 -0.02500000037252903
vertex 0.45000000670552254 -0.02500000037252903 -0.02500000037252903
vertex 0.45000000670552254 -0.02500000037252903 0.02500000037252903
endloop
endfacet
facet normal 0 0 1
outer loop
vertex 0.3500000052154064 0.02500000037252903 0.02500000037252903
vertex 0.3500000052154064 -0.02500000037252903 0.02500000037252903
vertex 0.45000000670552254 0.02500000037252903 0.02500000037252903
endloop
endfacet
facet normal 0 0 1
outer loop
vertex 0.3500000052154064 -0.02500000037252903 0.02500000037252903
vertex 0.45000000670552254 -0.02500000037252903 0.02500000037252903
vertex 0.45000000670552254 0.02500000037252903 0.02500000037252903
endloop
endfacet
facet normal 0 0 -1
outer loop
vertex 0.45000000670552254 0.02500000037252903 -0.02500000037252903
vertex 0.45000000670552254 -0.02500000037252903 -0.02500000037252903
vertex 0.3500000052154064 0.02500000037252903 -0.02500000037252903
endloop
endfacet
facet normal 0 0 -1
outer loop
vertex 0.45000000670552254 -0.02500000037252903 -0.02500000037252903
vertex 0.3500000052154064 -0.02500000037252903 -0.02500000037252903
vertex 0.3500000052154064 0.02500000037252903 -0.02500000037252903
endloop
endfacet
endsolid