0
SECTION
2
HEADER
9
$INSUNITS
70
4
9
$ACADVER
1
AC1014
9
$HANDSEED
5
FFFF
0
ENDSEC
0
SECTION
2
TABLES
0
TABLE
2
VPORT
5
8
100
AcDbSymbolTable
0
ENDTAB
0
TABLE
2
LTYPE
5
5
100
AcDbSymbolTable
0
LTYPE
5
14
100
AcDbSymbolTableRecord
100
AcDbLinetypeTableRecord
2
BYBLOCK
70
0
0
LTYPE
5
15
100
AcDbSymbolTableRecord
100
AcDbLinetypeTableRecord
2
BYLAYER
70
0
0
ENDTAB
0
TABLE
2
LAYER
5
2
100
AcDbSymbolTable
70
2
0
LAYER
5
50
100
AcDbSymbolTableRecord
100
AcDbLayerTableRecord
2
0
70
0
6
CONTINUOUS
0
ENDTAB
0
TABLE
2
STYLE
5
3
100
AcDbSymbolTable
70
1
0
STYLE
5
11
100
AcDbSymbolTableRecord
100
AcDbTextStyleTableRecord
2
STANDARD
70
0
0
ENDTAB
0
TABLE
2
VIEW
5
6
100
AcDbSymbolTable
70
0
0
ENDTAB
0
TABLE
2
UCS
5
7
100
AcDbSymbolTable
70
0
0
ENDTAB
0
TABLE
2
APPID
5
9
100
AcDbSymbolTable
70
2
0
APPID
5
12
100
AcDbSymbolTableRecord
100
AcDbRegAppTableRecord
2
ACAD
70
0
0
ENDTAB
0
TABLE
2
DIMSTYLE
5
A
100
AcDbSymbolTable
70
1
0
ENDTAB
0
TABLE
2
BLOCK_RECORD
5
1
100
AcDbSymbolTable
70
1
0
BLOCK_RECORD
5
1F
100
AcDbSymbolTableRecord
100
AcDbBlockTableRecord
2
*MODEL_SPACE
0
BLOCK_RECORD
5
1B
100
AcDbSymbolTableRecord
100
AcDbBlockTableRecord
2
*PAPER_SPACE
0
ENDTAB
0
ENDSEC
0
SECTION
2
BLOCKS
0
BLOCK
5
20
100
AcDbEntity
100
AcDbBlockBegin
2
*MODEL_SPACE
0
ENDBLK
5
21
100
AcDbEntity
100
AcDbBlockEnd
0
BLOCK
5
1C
100
AcDbEntity
100
AcDbBlockBegin
2
*PAPER_SPACE
0
ENDBLK
5
1D
100
AcDbEntity
100
AcDbBlockEnd
0
ENDSEC
0
SECTION
2
ENTITIES
0
SPLINE
5
100
100
AcDbEntity
8
0
100
AcDbSpline
70
1064
71
5
72
61
73
55
74
0
42
0.000000001
43
0.0000000001
44
0.0000000001
40
0
40
0
40
0
40
0
40
0
40
0
40
0.02
40
0.040000000000000001
40
0.059999999999999998
40
0.080000000000000002
40
0.10000000000000001
40
0.12000000000000001
40
0.14000000000000001
40
0.16
40
0.17999999999999999
40
0.19999999999999998
40
0.21999999999999997
40
0.23999999999999996
40
0.25999999999999995
40
0.27999999999999997
40
0.29999999999999999
40
0.32000000000000001
40
0.34000000000000002
40
0.36000000000000004
40
0.38000000000000006
40
0.40000000000000008
40
0.4200000000000001
40
0.44000000000000011
40
0.46000000000000013
40
0.48000000000000015
40
0.50000000000000011
40
0.52000000000000013
40
0.54000000000000015
40
0.56000000000000016
40
0.58000000000000018
40
0.6000000000000002
40
0.62000000000000022
40
0.64000000000000024
40
0.66000000000000025
40
0.68000000000000027
40
0.70000000000000029
40
0.72000000000000031
40
0.74000000000000032
40
0.76000000000000034
40
0.78000000000000036
40
0.80000000000000038
40
0.8200000000000004
40
0.84000000000000041
40
0.86000000000000043
40
0.88000000000000045
40
0.90000000000000047
40
0.92000000000000048
40
0.9400000000000005
40
0.96000000000000052
40
0.98000000000000054
40
1
40
1
40
1
40
1
40
1
40
1
10
0.0026602912395667921
20
2.9066935021843756
30
0
10
0.0026602912395667297
20
2.939613559255108
30
0
10
0.0084094374547430441
20
2.9830106414474988
30
0
10
0.052526683429307996
20
2.9933677246377925
30
0
10
0.26974352602503149
20
2.9905715038756209
30
0
10
0.82629597672041344
20
3.0101161019051337
30
0
10
1.6321122743123782
20
3.0876793477616733
30
0
10
2.5826133506595745
20
3.199827748505756
30
0
10
3.5571979931238844
20
3.3103799559948155
30
0
10
4.4433997343623872
20
3.3776739779603266
30
0
10
5.1750109992225246
20
3.3791707732020075
30
0
10
5.759332410107417
20
3.3260754695403598
30
0
10
6.2432654639338727
20
3.2458117238954092
30
0
10
6.6892091168633341
20
3.170156614744633
30
0
10
7.1367766890745603
20
3.1134171203587839
30
0
10
7.5945320793309881
20
3.0727632246346919
30
0
10
7.9612052470039334
20
2.9759815523678035
30
0
10
8.1545512576550738
20
2.7844136739366769
30
0
10
8.1769455065197523
20
2.5295656192358882
30
0
10
8.0685748034431288
20
2.268421030337632
30
0
10
7.9067392099453997
20
2.0684644581319418
30
0
10
7.7700207241546915
20
1.9652408326158892
30
0
10
7.6967681375244181
20
1.8706742062069872
30
0
10
7.6615202350714142
20
1.5908497781209121
30
0
10
7.6424996613644423
20
1.1025486179094828
30
0
10
7.6088252637056879
20
0.43837482549159307
30
0
10
7.531459158281498
20
-0.31066363171533262
30
0
10
7.3843873480515612
20
-1.0409070240690395
30
0
10
7.1499741702580044
20
-1.6608580080752511
30
0
10
6.8225979404066317
20
-2.1254067008124964
30
0
10
6.4067913181592084
20
-2.4247984724138725
30
0
10
5.9150055265556247
20
-2.5749862903474674
30
0
10
5.3655489485643724
20
-2.6072378577296176
30
0
10
4.7804943239304336
20
-2.5586007963271387
30
0
10
4.1835574903348736
20
-2.4608615229056561
30
0
10
3.5981810240754668
20
-2.3340559619132191
30
0
10
3.0460137457735965
20
-2.1888799908010501
30
0
10
2.5453433804689012
20
-2.0272649948568091
30
0
10
2.1094491249660066
20
-1.8434929781185279
30
0
10
1.7451819518320908
20
-1.6254514518137184
30
0
10
1.4509266423735043
20
-1.35485517166319
30
0
10
1.2164825487157009
20
-1.0112290201802354
30
0
10
1.0260339278580861
20
-0.58362675886933935
30
0
10
0.86090858978017992
20
-0.079760930337248764
30
0
10
0.70137094893992757
20
0.46190292710482705
30
0
10
0.53118675133027682
20
0.96539594766419878
30
0
10
0.33589744501198421
20
1.301948239765363
30
0
10
0.13064722243306151
20
1.4302186330773301
30
0
10
-0.058369077466431538
20
1.3807573587355075
30
0
10
-0.10292415518738324
20
1.5930768887800084
30
0
10
-0.034357940746150714
20
2.1223277666454918
30
0
10
0.016034507416765202
20
2.5731459282907192
30
0
10
0.0084094374547430788
20
2.7854902990230661
30
0
10
0.0026602912395668546
20
2.8737734451136436
30
0
10
0.0026602912395667921
20
2.9066935021843756
30
0
0
SPLINE
5
101
100
AcDbEntity
8
0
100
AcDbSpline
70
1064
71
5
72
46
73
40
74
0
42
0.000000001
43
0.0000000001
44
0.0000000001
40
0
40
0
40
0
40
0
40
0
40
0
40
0.028571428571428571
40
0.057142857142857141
40
0.085714285714285715
40
0.11428571428571428
40
0.14285714285714285
40
0.17142857142857143
40
0.20000000000000001
40
0.22857142857142859
40
0.25714285714285717
40
0.28571428571428575
40
0.31428571428571433
40
0.34285714285714292
40
0.3714285714285715
40
0.40000000000000008
40
0.42857142857142866
40
0.45714285714285724
40
0.48571428571428582
40
0.51428571428571435
40
0.54285714285714293
40
0.57142857142857151
40
0.60000000000000009
40
0.62857142857142867
40
0.65714285714285725
40
0.68571428571428583
40
0.71428571428571441
40
0.74285714285714299
40
0.77142857142857157
40
0.80000000000000016
40
0.82857142857142874
40
0.85714285714285732
40
0.8857142857142859
40
0.91428571428571448
40
0.94285714285714306
40
0.97142857142857164
40
1
40
1
40
1
40
1
40
1
40
1
10
1.0330598715830996
20
2.117793822939408
30
0
10
1.0709359073302396
20
2.1589892020407904
30
0
10
1.1623369024180692
20
2.2355292436120271
30
0
10
1.3479389283039054
20
2.3348360720453196
30
0
10
1.6944973484075616
20
2.4439007907505146
30
0
10
2.2799226422929171
20
2.5558744318383555
30
0
10
2.9890043736300544
20
2.6514576682913393
30
0
10
3.7797240026873009
20
2.7298575943780317
30
0
10
4.5992619455200083
20
2.7798183589957204
30
0
10
5.3853899631251494
20
2.7766319792702925
30
0
10
6.0710866099177494
20
2.6826054252460869
30
0
10
6.5983145974212718
20
2.4608379087795447
30
0
10
6.9353239340991273
20
2.0898239233958211
30
0
10
7.0830803505858579
20
1.572504857969673
30
0
10
7.1085499479273633
20
0.95994702211566674
30
0
10
7.1139686568817293
20
0.34003225341513699
30
0
10
7.1006925784630583
20
-0.24594925289664474
30
0
10
7.0390635138320938
20
-0.77081550491153483
30
0
10
6.8761119667749346
20
-1.2241221443888559
30
0
10
6.5667053599751437
20
-1.6009825562801034
30
0
10
6.0997947562609447
20
-1.8953916870566392
30
0
10
5.5078901681528656
20
-2.0971195267790343
30
0
10
4.8467291972896653
20
-2.1980593134548791
30
0
10
4.1832108639518806
20
-2.1955903576357665
30
0
10
3.5795437685839184
20
-2.0980808756590017
30
0
10
3.0801834178058836
20
-1.927503560913896
30
0
10
2.6944470810638239
20
-1.7285083818045408
30
0
10
2.4044475026805054
20
-1.5428349790717411
30
0
10
2.1788401797505399
20
-1.3860197967962389
30
0
10
1.9844247786267724
20
-1.2043465589589089
30
0
10
1.7989395014407878
20
-0.88057270704516977
30
0
10
1.6086131840047391
20
-0.42199078199973122
30
0
10
1.4100982991937712
20
0.12432181806843229
30
0
10
1.2114475840341923
20
0.68075513605435967
30
0
10
1.0334386275619487
20
1.1786453611648349
30
0
10
0.91108059223954951
20
1.5858446092034639
30
0
10
0.89031897439120167
20
1.8363936908864109
30
0
10
0.9350806879352308
20
1.9883569690037368
30
0
10
0.99518383583595993
20
2.0765984438380261
30
0
10
1.0330598715830996
20
2.117793822939408
30
0
0
ENDSEC
0
SECTION
2
OBJECTS
0
DICTIONARY
5
C
100
AcDbDictionary
3
ACAD_GROUP
350
D
3
ACAD_MLINESTYLE
350
17
0
DICTIONARY
5
D
100
AcDbDictionary
0
DICTIONARY
5
1A
330
C
100
AcDbDictionary
0
DICTIONARY
5
17
100
AcDbDictionary
0
ENDSEC
0
EOF
