0
SECTION
2
HEADER
9
$INSUNITS
70
4
9
$ACADVER
1
AC1014
9
$HANDSEED
5
FFFF
0
ENDSEC
0
SECTION
2
TABLES
0
TABLE
2
VPORT
5
8
100
AcDbSymbolTable
0
ENDTAB
0
TABLE
2
LTYPE
5
5
100
AcDbSymbolTable
0
LTYPE
5
14
100
AcDbSymbolTableRecord
100
AcDbLinetypeTableRecord
2
BYBLOCK
70
0
0
LTYPE
5
15
100
AcDbSymbolTableRecord
100
AcDbLinetypeTableRecord
2
BYLAYER
70
0
0
ENDTAB
0
TABLE
2
LAYER
5
2
100
AcDbSymbolTable
70
2
0
LAYER
5
50
100
AcDbSymbolTableRecord
100
AcDbLayerTableRecord
2
0
70
0
6
CONTINUOUS
0
ENDTAB
0
TABLE
2
STYLE
5
3
100
AcDbSymbolTable
70
1
0
STYLE
5
11
100
AcDbSymbolTableRecord
100
AcDbTextStyleTableRecord
2
STANDARD
70
0
0
ENDTAB
0
TABLE
2
VIEW
5
6
100
AcDbSymbolTable
70
0
0
ENDTAB
0
TABLE
2
UCS
5
7
100
AcDbSymbolTable
70
0
0
ENDTAB
0
TABLE
2
APPID
5
9
100
AcDbSymbolTable
70
2
0
APPID
5
12
100
AcDbSymbolTableRecord
100
AcDbRegAppTableRecord
2
ACAD
70
0
0
ENDTAB
0
TABLE
2
DIMSTYLE
5
A
100
AcDbSymbolTable
70
1
0
ENDTAB
0
TABLE
2
BLOCK_RECORD
5
1
100
AcDbSymbolTable
70
1
0
BLOCK_RECORD
5
1F
100
AcDbSymbolTableRecord
100
AcDbBlockTableRecord
2
*MODEL_SPACE
0
BLOCK_RECORD
5
1B
100
AcDbSymbolTableRecord
100
AcDbBlockTableRecord
2
*PAPER_SPACE
0
ENDTAB
0
ENDSEC
0
SECTION
2
BLOCKS
0
BLOCK
5
20
100
AcDbEntity
100
AcDbBlockBegin
2
*MODEL_SPACE
0
ENDBLK
5
21
100
AcDbEntity
100
AcDbBlockEnd
0
BLOCK
5
1C
100
AcDbEntity
100
AcDbBlockBegin
2
*PAPER_SPACE
0
ENDBLK
5
1D
100
AcDbEntity
100
AcDbBlockEnd
0
ENDSEC
0
SECTION
2
ENTITIES
0
SPLINE
5
100
100
AcDbEntity
8
0
100
AcDbSpline
70
1064
71
5
72
111
73
105
74
0
42
0.000000001
43
0.0000000001
44
0.0000000001
40
0
40
0
40
0
40
0
40
0
40
0
40
0.01
40
0.02
40
0.029999999999999999
40
0.040000000000000001
40
0.050000000000000003
40
0.060000000000000005
40
0.070000000000000007
40
0.080000000000000002
40
0.089999999999999997
40
0.099999999999999992
40
0.10999999999999999
40
0.11999999999999998
40
0.12999999999999998
40
0.13999999999999999
40
0.14999999999999999
40
0.16
40
0.17000000000000001
40
0.18000000000000002
40
0.19000000000000003
40
0.20000000000000004
40
0.21000000000000005
40
0.22000000000000006
40
0.23000000000000007
40
0.24000000000000007
40
0.25000000000000006
40
0.26000000000000006
40
0.27000000000000007
40
0.28000000000000008
40
0.29000000000000009
40
0.3000000000000001
40
0.31000000000000011
40
0.32000000000000012
40
0.33000000000000013
40
0.34000000000000014
40
0.35000000000000014
40
0.36000000000000015
40
0.37000000000000016
40
0.38000000000000017
40
0.39000000000000018
40
0.40000000000000019
40
0.4100000000000002
40
0.42000000000000021
40
0.43000000000000022
40
0.44000000000000022
40
0.45000000000000023
40
0.46000000000000024
40
0.47000000000000025
40
0.48000000000000026
40
0.49000000000000027
40
0.50000000000000022
40
0.51000000000000023
40
0.52000000000000024
40
0.53000000000000025
40
0.54000000000000026
40
0.55000000000000027
40
0.56000000000000028
40
0.57000000000000028
40
0.58000000000000029
40
0.5900000000000003
40
0.60000000000000031
40
0.61000000000000032
40
0.62000000000000033
40
0.63000000000000034
40
0.64000000000000035
40
0.65000000000000036
40
0.66000000000000036
40
0.67000000000000037
40
0.68000000000000038
40
0.69000000000000039
40
0.7000000000000004
40
0.71000000000000041
40
0.72000000000000042
40
0.73000000000000043
40
0.74000000000000044
40
0.75000000000000044
40
0.76000000000000045
40
0.77000000000000046
40
0.78000000000000047
40
0.79000000000000048
40
0.80000000000000049
40
0.8100000000000005
40
0.82000000000000051
40
0.83000000000000052
40
0.84000000000000052
40
0.85000000000000053
40
0.86000000000000054
40
0.87000000000000055
40
0.88000000000000056
40
0.89000000000000057
40
0.90000000000000058
40
0.91000000000000059
40
0.9200000000000006
40
0.9300000000000006
40
0.94000000000000061
40
0.95000000000000062
40
0.96000000000000063
40
0.97000000000000064
40
0.98000000000000065
40
0.99000000000000066
40
1
40
1
40
1
40
1
40
1
40
1
10
0.094231895775649915
20
26.900353901024697
30
0
10
1.5955680437764959
20
26.941917429399844
30
0
10
4.6272189783393962
20
27.064301680621092
30
0
10
9.2180808977408013
20
27.363879267017968
30
0
10
15.227506211314015
20
27.966446316488142
30
0
10
22.041411115740708
20
28.913234658286147
30
0
10
27.738699022077313
20
29.871857563372654
30
0
10
32.09191367355664
20
30.659598449225861
30
0
10
35.188674415884066
20
31.12922024525777
30
0
10
37.495968768283817
20
31.203848897340571
30
0
10
40.062130685624851
20
30.915462621751686
30
0
10
44.432438843286953
20
30.438524985905605
30
0
10
50.55003707158118
20
29.912104541241156
30
0
10
57.689540343088588
20
29.428934062404579
30
0
10
64.645219084084829
20
28.997123864177937
30
0
10
70.220303169093469
20
28.488858424477943
30
0
10
73.583149309831398
20
27.649033891547322
30
0
10
74.689005823174796
20
25.953689293969976
30
0
10
74.69841611137339
20
22.776290143062372
30
0
10
74.090407041005179
20
19.646742919794395
30
0
10
73.17027360616153
20
18.078222617006897
30
0
10
72.097084312900535
20
18.187437680121249
30
0
10
71.071362873497876
20
17.630115447520961
30
0
10
70.471901324153066
20
15.531131034503394
30
0
10
70.257402153160626
20
11.711871036551109
30
0
10
70.169293275792995
20
6.4627629994222069
30
0
10
69.815832198119892
20
0.39412777419956224
30
0
10
68.804065941292436
20
-5.758753772420512
30
0
10
66.842396704762947
20
-11.299333858419347
30
0
10
63.877913158693573
20
-15.77379619141367
30
0
10
60.142959657133602
20
-19.067989335759318
30
0
10
55.985880252685888
20
-21.278683388497079
30
0
10
51.781918786408696
20
-22.639510068830372
30
0
10
47.737022601432884
20
-23.408332220041778
30
0
10
43.91012546359633
20
-23.809917328142149
30
0
10
39.722010967118521
20
-23.860796320029589
30
0
10
35.100423434043236
20
-23.559702474079479
30
0
10
30.552668347069293
20
-22.95280848872839
30
0
10
26.644697763704176
20
-22.064505992110981
30
0
10
23.771605393243998
20
-20.886913836110001
30
0
10
21.699992720729909
20
-19.336630634055034
30
0
10
19.425371015206863
20
-17.240688465360353
30
0
10
16.787481968986686
20
-14.507056672168968
30
0
10
13.889104871396473
20
-11.107920264267328
30
0
10
11.081136735521417
20
-7.1114665297155799
30
0
10
8.7226713610984667
20
-2.6920275194731036
30
0
10
7.0282566044081998
20
1.8454339345576056
30
0
10
5.9037817148171605
20
6.0609730219528801
30
0
10
5.0849888260473435
20
9.5066819656732093
30
0
10
4.2493808792415706
20
11.854822189158231
30
0
10
3.1292995355254294
20
13.002641998916413
30
0
10
1.6464246731746115
20
13.241452205731774
30
0
10
-0.032534234558592591
20
13.22123918217037
30
0
10
-1.685016128399518
20
13.213993598199604
30
0
10
-3.169861853858793
20
12.612183341892285
30
0
10
-4.4267834373290107
20
10.678587255231125
30
0
10
-5.484170110670151
20
7.417638106316204
30
0
10
-6.4286712524621645
20
3.4736568525440026
30
0
10
-7.3657948228610781
20
-0.32011637676966903
30
0
10
-8.3762866271598604
20
-3.2776834071868994
30
0
10
-9.4901606987077862
20
-5.2418133479137534
30
0
10
-10.618529122010019
20
-6.9434745791716015
30
0
10
-11.846534684661021
20
-9.2470933931259953
30
0
10
-13.407826338704949
20
-12.753758332774527
30
0
10
-16.411823392403022
20
-16.629587596781914
30
0
10
-20.961910122418843
20
-20.049217619034533
30
0
10
-26.272548024718333
20
-22.62571570730595
30
0
10
-31.269916417573835
20
-24.172555403935903
30
0
10
-35.132746624856722
20
-24.792860928280934
30
0
10
-37.507268542247886
20
-24.729730983574392
30
0
10
-39.703113476002422
20
-24.554419009916053
30
0
10
-42.974406093981443
20
-24.511816723847065
30
0
10
-47.366970278183643
20
-24.322271568339872
30
0
10
-52.51577538331393
20
-23.517720324135603
30
0
10
-57.68821343775187
20
-21.575300498801759
30
0
10
-62.13743929556
20
-18.124711312849421
30
0
10
-65.348513912839863
20
-13.153742952548047
30
0
10
-67.247691287702892
20
-7.1227238565482853
30
0
10
-68.049133992296163
20
-0.74353066399149614
30
0
10
-68.187625613335442
20
5.2041476758867677
30
0
10
-68.179191087831285
20
10.027612961336487
30
0
10
-68.599428710088077
20
13.387978472510905
30
0
10
-69.80788016943518
20
15.285915437413502
30
0
10
-72.301201423231475
20
16.758262937933164
30
0
10
-74.380367245833838
20
17.669217790714647
30
0
10
-74.210500580395347
20
17.999544019938249
30
0
10
-73.482856860439711
20
20.747530710852914
30
0
10
-73.096465806309425
20
24.161363165994075
30
0
10
-73.109465006009984
20
25.504020022856309
30
0
10
-71.440838543039547
20
25.736109198844513
30
0
10
-67.26193651274582
20
25.939849145010832
30
0
10
-60.952374888363551
20
26.406286533761595
30
0
10
-53.489888081973206
20
27.221536344611543
30
0
10
-46.146884460073949
20
28.187428335074888
30
0
10
-39.957299311389328
20
29.038860645837921
30
0
10
-35.508508989996905
20
29.510853161664233
30
0
10
-32.048267226326416
20
29.52426227936845
30
0
10
-28.606564563555736
20
29.15110897646241
30
0
10
-24.664239763248538
20
28.516163609810739
30
0
10
-19.858148215470017
20
27.793395237840453
30
0
10
-14.073376779941842
20
27.16468197952047
30
0
10
-8.7108520820177802
20
26.868657674180469
30
0
10
-4.380797909665481
20
26.814920510370257
30
0
10
-1.4071042522250965
20
26.858790372649569
30
0
10
0.094231895775649915
20
26.900353901024697
30
0
0
SPLINE
5
101
100
AcDbEntity
8
0
100
AcDbSpline
70
1064
71
5
72
31
73
25
74
0
42
0.000000001
43
0.0000000001
44
0.0000000001
40
0
40
0
40
0
40
0
40
0
40
0
40
0.050000000000000003
40
0.10000000000000001
40
0.15000000000000002
40
0.20000000000000001
40
0.25
40
0.29999999999999999
40
0.34999999999999998
40
0.39999999999999997
40
0.44999999999999996
40
0.49999999999999994
40
0.54999999999999993
40
0.59999999999999998
40
0.65000000000000002
40
0.70000000000000007
40
0.75000000000000011
40
0.80000000000000016
40
0.8500000000000002
40
0.90000000000000024
40
0.95000000000000029
40
1
40
1
40
1
40
1
40
1
40
1
10
-61.362306175299409
20
19.777540165853299
30
0
10
-60.675685291664756
20
20.562249747150048
30
0
10
-58.893445613803408
20
21.893131981923034
30
0
10
-54.799944438702639
20
23.267491996440523
30
0
10
-46.107831163666724
20
24.443211468563923
30
0
10
-32.442391949697225
20
24.974555553340004
30
0
10
-19.559827976841508
20
24.533163989789507
30
0
10
-10.741916152408663
20
22.689221137576556
30
0
10
-7.8742405393192207
20
19.023546475801218
30
0
10
-8.4082667442486461
20
13.136367084017447
30
0
10
-10.229380100935039
20
5.3883791444486162
30
0
10
-12.676386152507483
20
-3.2750125251605793
30
0
10
-15.911837698418715
20
-11.57595065584696
30
0
10
-21.247323380810272
20
-18.031477009970832
30
0
10
-30.655830755245223
20
-21.293641849635499
30
0
10
-42.145276250308761
20
-21.48228631481787
30
0
10
-52.659675261116341
20
-19.246052732495404
30
0
10
-59.413751763983747
20
-15.286491576019337
30
0
10
-61.464168165905846
20
-9.8809323918271872
30
0
10
-62.273782442889171
20
-1.8933665005071947
30
0
10
-63.059380945237336
20
7.1882290789695702
30
0
10
-63.425690895382125
20
13.663682129239765
30
0
10
-63.013170915611198
20
17.184874494142473
30
0
10
-62.048927058934069
20
18.99283058455655
30
0
10
-61.362306175299409
20
19.777540165853299
30
0
0
SPLINE
5
102
100
AcDbEntity
8
0
100
AcDbSpline
70
1064
71
5
72
31
73
25
74
0
42
0.000000001
43
0.0000000001
44
0.0000000001
40
0
40
0
40
0
40
0
40
0
40
0
40
0.050000000000000003
40
0.10000000000000001
40
0.15000000000000002
40
0.20000000000000001
40
0.25
40
0.29999999999999999
40
0.34999999999999998
40
0.39999999999999997
40
0.44999999999999996
40
0.49999999999999994
40
0.54999999999999993
40
0.59999999999999998
40
0.65000000000000002
40
0.70000000000000007
40
0.75000000000000011
40
0.80000000000000016
40
0.8500000000000002
40
0.90000000000000024
40
0.95000000000000029
40
1
40
1
40
1
40
1
40
1
40
1
10
9.9262683385893968
20
20.03536502847134
30
0
10
10.362035837200247
20
20.689016276387623
30
0
10
11.637985718312072
20
21.789052202635347
30
0
10
15.035785777079786
20
22.923805983303662
30
0
10
23.371891223054945
20
23.963644866089425
30
0
10
37.400801357424626
20
24.640270366400884
30
0
10
51.133164511672959
20
24.572772056495374
30
0
10
60.87741835027721
20
23.118329797767828
30
0
10
64.452523266626457
20
19.643590508488007
30
0
10
65.103425597338628
20
13.051115438918117
30
0
10
65.145453087439648
20
4.2136542006222903
30
0
10
64.636293959508151
20
-4.7996107511091886
30
0
10
62.909918351043032
20
-11.934401722799743
30
0
10
58.696068964418458
20
-16.399106813175067
30
0
10
51.248593107645675
20
-19.415223111414868
30
0
10
41.581768483171828
20
-20.631840225254614
30
0
10
31.360942639984483
20
-19.527799284114138
30
0
10
22.411509919542468
20
-15.530727260633856
30
0
10
16.042578846927775
20
-8.5987896399689419
30
0
10
12.287104696956273
20
0.23844398424821195
30
0
10
10.14603149367815
20
9.11562657357684
30
0
10
9.2653146228900738
20
14.866991808205253
30
0
10
9.0233807266469448
20
17.867144715137616
30
0
10
9.490500839978548
20
19.381713780555067
30
0
10
9.9262683385893968
20
20.03536502847134
30
0
0
SPLINE
5
103
100
AcDbEntity
8
0
100
AcDbSpline
70
1064
71
3
72
56
73
52
74
0
42
0.000000001
43
0.0000000001
44
0.0000000001
40
0
40
0
40
0
40
0
40
0.023580427951916484
40
0.023580427951916484
40
0.023580427951916484
40
0.041184812056465334
40
0.041184812056465334
40
0.041184812056465334
40
0.057775865688289185
40
0.057775865688289185
40
0.057775865688289185
40
0.070825578230252859
40
0.070825578230252859
40
0.070825578230252859
40
0.085552808903387734
40
0.085552808903387734
40
0.085552808903387734
40
0.099723964443672042
40
0.099723964443672042
40
0.099723964443672042
40
0.11833177486715749
40
0.11833177486715749
40
0.11833177486715749
40
0.12801236967427918
40
0.12801236967427918
40
0.12801236967427918
40
0.13559125141691075
40
0.13559125141691075
40
0.13559125141691075
40
0.14116897668202655
40
0.14116897668202655
40
0.14116897668202655
40
0.14617653300471523
40
0.14617653300471523
40
0.14617653300471523
40
0.15102193179774859
40
0.15102193179774859
40
0.15102193179774859
40
0.15895602857132415
40
0.15895602857132415
40
0.15895602857132415
40
0.16828724552475438
40
0.16828724552475438
40
0.16828724552475438
40
0.17523689088041064
40
0.17523689088041064
40
0.17523689088041064
40
0.17991964138737476
40
0.17991964138737476
40
0.17991964138737476
40
0.181145662244664
40
0.181145662244664
40
0.181145662244664
40
0.181145662244664
10
-0.071810638842160379
20
32.898055950701533
30
0
10
5.5872311407844508
20
33.054722892942799
30
0
10
11.556035114605269
20
33.593397160981098
30
0
10
16.781952356140824
20
34.274429816950359
30
0
10
20.683452982260675
20
34.782866749811433
30
0
10
24.143617053634848
20
35.355383013000775
30
0
10
26.971755220859137
20
35.842862522471883
30
0
10
29.637102201018578
20
36.302282098755747
30
0
10
31.726219454384491
20
36.688088342959155
30
0
10
33.646025207256038
20
36.919048507878159
30
0
10
35.156050656352711
20
37.100710494375285
30
0
10
36.63676260706923
20
37.167846094780749
30
0
10
38.068985843901196
20
37.097875199634984
30
0
10
39.685318917631434
20
37.018909666110488
30
0
10
41.174504692565783
20
36.82509246119853
30
0
10
43.321075752293126
20
36.60619302276433
30
0
10
45.386595946877947
20
36.395558854088563
30
0
10
48.044364541297774
20
36.15184224498627
30
0
10
51.081034591979147
20
35.918388347385346
30
0
10
55.068414482145926
20
35.611845535344862
30
0
10
59.647538794202788
20
35.339904932748937
30
0
10
63.696903980918414
20
35.040471899830564
30
0
10
65.803560417464155
20
34.884693772389433
30
0
10
67.757018316702272
20
34.720874089608415
30
0
10
69.538272424899844
20
34.485512657034562
30
0
10
70.932805974602246
20
34.301249551327324
30
0
10
72.220605257889147
20
34.08797664010109
30
0
10
73.570042672221931
20
33.675827555383975
30
0
10
74.563169549671144
20
33.372503867155693
30
0
10
75.626255845594386
20
32.951939590695851
30
0
10
76.706660592611527
20
32.200811429818344
30
0
10
77.676623680579496
20
31.526465456796743
30
0
10
78.615922637738223
20
30.542030271574312
30
0
10
79.240932840800241
20
29.482695817230507
30
0
10
79.845703608895008
20
28.457665332153475
30
0
10
80.168129661696412
20
27.431028100736047
30
0
10
80.348542150604317
20
26.536639403760304
30
0
10
80.643958525457691
20
25.072122905097601
30
0
10
80.629388322955649
20
23.868642559583783
30
0
10
80.554155428452816
20
22.713950183210496
30
0
10
80.465674725396795
20
21.35592728710769
30
0
10
80.261438616180101
20
20.094747264817457
30
0
10
79.920414483287786
20
18.849732005875353
30
0
10
79.666428664165807
20
17.922477334248899
30
0
10
79.348273180045467
20
16.995645148778436
30
0
10
78.746585465186044
20
15.97675424908148
30
0
10
78.341161402863378
20
15.290213910269255
30
0
10
77.77012532634474
20
14.544001493309281
30
0
10
77.024142009827628
20
13.91047399691265
30
0
10
76.828831347028142
20
13.744606111554807
30
0
10
76.622957849833796
20
13.587406643071894
30
0
10
76.416627907468808
20
13.445648142526023
30
0
0
SPLINE
5
104
100
AcDbEntity
8
0
100
AcDbSpline
70
1064
71
3
72
53
73
49
74
0
42
0.000000001
43
0.0000000001
44
0.0000000001
40
0.21350916113283572
40
0.21350916113283572
40
0.21350916113283572
40
0.21350916113283572
40
0.21488063627989201
40
0.21488063627989201
40
0.21488063627989201
40
0.23355701255904923
40
0.23355701255904923
40
0.23355701255904923
40
0.25302001591476242
40
0.25302001591476242
40
0.25302001591476242
40
0.26849704830998494
40
0.26849704830998494
40
0.26849704830998494
40
0.28470343440462093
40
0.28470343440462093
40
0.28470343440462093
40
0.30192296870888363
40
0.30192296870888363
40
0.30192296870888363
40
0.32119579089546801
40
0.32119579089546801
40
0.32119579089546801
40
0.33930852021733948
40
0.33930852021733948
40
0.33930852021733948
40
0.35761058640985133
40
0.35761058640985133
40
0.35761058640985133
40
0.37041919089905878
40
0.37041919089905878
40
0.37041919089905878
40
0.38070736829315044
40
0.38070736829315044
40
0.38070736829315044
40
0.39397625732295433
40
0.39397625732295433
40
0.39397625732295433
40
0.4112812561403531
40
0.4112812561403531
40
0.4112812561403531
40
0.42893553273929158
40
0.42893553273929158
40
0.42893553273929158
40
0.44899191592919979
40
0.44899191592919979
40
0.44899191592919979
40
0.45099760664133604
40
0.45099760664133604
40
0.45099760664133604
40
0.45099760664133604
10
76.416627907469149
20
13.445648142525751
30
0
10
76.405361619212243
20
13.3166765250323
30
0
10
76.394510658644379
20
13.180289727697636
30
0
10
76.384038113599473
20
13.035811008372075
30
0
10
76.241425837847402
20
11.068339025925608
30
0
10
76.227858991083806
20
7.7110892321742153
30
0
10
75.980876936123224
20
3.8386882394883388
30
0
10
75.723492286518393
20
-0.19681374380717709
30
0
10
75.173713952941057
20
-4.8038945613365751
30
0
10
73.790440019553927
20
-9.1500304765622751
30
0
10
72.690456882973152
20
-12.606089396381712
30
0
10
71.032246261098763
20
-15.890622990056166
30
0
10
68.882364934244464
20
-18.607256109153656
30
0
10
66.63117065158572
20
-21.451910309086678
30
0
10
63.879560733975055
20
-23.651643883859748
30
0
10
61.094698938698727
20
-25.216156964709732
30
0
10
58.135740480201726
20
-26.878476158381211
30
0
10
55.168308907651891
20
-27.870827492692392
30
0
10
52.424208174065406
20
-28.525368328400845
30
0
10
49.352895990704212
20
-29.257957776963607
30
0
10
46.57258384207605
20
-29.606201632995614
30
0
10
43.611420769036435
20
-29.740530542285999
30
0
10
40.828499580814082
20
-29.866773764504515
30
0
10
37.861391006631059
20
-29.769768048721524
30
0
10
34.868826623735856
20
-29.486891140341697
30
0
10
31.844980220037577
20
-29.20105724918708
30
0
10
28.864754882088715
20
-28.746041862268584
30
0
10
26.17932013202822
20
-28.026104540650515
30
0
10
24.299932786725552
20
-27.522260203479551
30
0
10
22.52083871472081
20
-26.85725125407831
30
0
10
20.939797649925801
20
-25.976258373033577
30
0
10
19.669867662185105
20
-25.268623825432602
30
0
10
18.591404864948089
20
-24.463853174643333
30
0
10
17.638505150949516
20
-23.662965738768523
30
0
10
16.409529397786464
20
-22.630043569474488
30
0
10
15.27624919599668
20
-21.538707897289374
30
0
10
14.020865039347685
20
-20.240627664624967
30
0
10
12.383620105171527
20
-18.54769942920975
30
0
10
10.561158797326513
20
-16.506119481845282
30
0
10
8.7436638344006603
20
-14.07263357029689
30
0
10
6.8894852163466691
20
-11.59003106708834
30
0
10
5.0883651241795551
20
-8.6941648534139979
30
0
10
3.6754035865747881
20
-5.6903190603718379
30
0
10
2.0701892425043509
20
-2.2777588271040656
30
0
10
1.0031970663350629
20
1.2275156537801717
30
0
10
0.28237412074342494
20
3.9440405386388249
30
0
10
0.21028994318366953
20
4.2157001234830913
30
0
10
0.14137985579303891
20
4.4790110326029122
30
0
10
0.074991746839234708
20
4.7342418697845945
30
0
0
SPLINE
5
105
100
AcDbEntity
8
0
100
AcDbSpline
70
1064
71
3
72
59
73
55
74
0
42
0.000000001
43
0.0000000001
44
0.0000000001
40
0.54267729994337488
40
0.54267729994337488
40
0.54267729994337488
40
0.54267729994337488
40
0.55209911274427415
40
0.55209911274427415
40
0.55209911274427415
40
0.56835642659246333
40
0.56835642659246333
40
0.56835642659246333
40
0.58075793820529165
40
0.58075793820529165
40
0.58075793820529165
40
0.59285232483426342
40
0.59285232483426342
40
0.59285232483426342
40
0.60280864471965745
40
0.60280864471965745
40
0.60280864471965745
40
0.61480807808859328
40
0.61480807808859328
40
0.61480807808859328
40
0.62744575449502982
40
0.62744575449502982
40
0.62744575449502982
40
0.64622307346221386
40
0.64622307346221386
40
0.64622307346221386
40
0.66431955806211918
40
0.66431955806211918
40
0.66431955806211918
40
0.67397982467457196
40
0.67397982467457196
40
0.67397982467457196
40
0.68475514295635243
40
0.68475514295635243
40
0.68475514295635243
40
0.70012609631158973
40
0.70012609631158973
40
0.70012609631158973
40
0.71620952627847922
40
0.71620952627847922
40
0.71620952627847922
40
0.72889146436331542
40
0.72889146436331542
40
0.72889146436331542
40
0.74238378960049933
40
0.74238378960049933
40
0.74238378960049933
40
0.76668936993097769
40
0.76668936993097769
40
0.76668936993097769
40
0.77884216009621687
40
0.77884216009621687
40
0.77884216009621687
40
0.78706348925098168
40
0.78706348925098168
40
0.78706348925098168
40
0.78706348925098168
10
0.074991746839222495
20
4.7342418697846052
30
0
10
-0.20840650481381967
20
3.6709679107332374
30
0
10
-0.50070813935761749
20
2.4664570804207582
30
0
10
-0.80750480081371645
20
1.2489641010285533
30
0
10
-1.336881654108063
20
-0.85181691555636985
30
0
10
-1.9140038060771527
20
-2.9779334305761394
30
0
10
-2.6535378130842933
20
-4.8357656629453549
30
0
10
-3.2176740327342612
20
-6.2529695269760586
30
0
10
-3.8884939116712811
20
-7.4914820545642051
30
0
10
-4.4283679929990383
20
-8.3959209097010739
30
0
10
-4.9548720252804488
20
-9.2779612236394797
30
0
10
-5.3241256300119115
20
-9.8516178387056605
30
0
10
-5.7289804060919618
20
-10.590122811040377
30
0
10
-6.0622642493690337
20
-11.19807358746959
30
0
10
-6.432596296541405
20
-11.961558934487835
30
0
10
-7.0242724952497246
20
-13.118434247402977
30
0
10
-7.7373652046152745
20
-14.512709280074114
30
0
10
-8.8131938606411353
20
-16.460180907522894
30
0
10
-10.373773768697292
20
-18.3890879326777
30
0
10
-12.017360034650221
20
-20.420592425641143
30
0
10
-14.175731134928714
20
-22.386129380178197
30
0
10
-16.551184788572378
20
-24.00903162300995
30
0
10
-20.08068257849142
20
-26.420373082163742
30
0
10
-24.052143340405323
20
-28.139771272840036
30
0
10
-27.508551658015506
20
-29.198455230559826
30
0
10
-30.83963635652492
20
-30.218753068101222
30
0
10
-33.681551171853364
20
-30.6379377426248
30
0
10
-35.851514381351173
20
-30.704146485516056
30
0
10
-37.00988428613767
20
-30.739490041048839
30
0
10
-37.925602307755824
20
-30.688278335994305
30
0
10
-38.717067565046634
20
-30.648056531129498
30
0
10
-39.599888961019929
20
-30.603192060336603
30
0
10
-40.419696287018184
20
-30.567104910684236
30
0
10
-41.578822731184879
20
-30.531685694197101
30
0
10
-43.232312497351145
20
-30.481160307357868
30
0
10
-45.524243585749119
20
-30.442030115230384
30
0
10
-48.300413714422739
20
-30.121671283455402
30
0
10
-51.205265274946086
20
-29.78646313363873
30
0
10
-54.641812064946009
20
-29.126857733299907
30
0
10
-58.072583550006073
20
-27.62202570685707
30
0
10
-60.777779621137896
20
-26.435451286679609
30
0
10
-63.459049166613468
20
-24.688464325807033
30
0
10
-65.6972603399837
20
-22.394359843027935
30
0
10
-68.078495203187998
20
-19.953660038102413
30
0
10
-69.913192294668278
20
-16.942499658001335
30
0
10
-71.171521946745628
20
-13.784522112726012
30
0
10
-73.438324140077015
20
-8.0956230119986792
30
0
10
-73.94259200623398
20
-1.9284199556514774
30
0
10
-74.100814941243868
20
2.9059525567041873
30
0
10
-74.179926408748813
20
5.3231388128820196
30
0
10
-74.180821899304874
20
7.4098125116237279
30
0
10
-74.251877593466176
20
8.8967459721267002
30
0
10
-74.299946575327752
20
9.9026523725346127
30
0
10
-74.386884208201323
20
10.63249563121815
30
0
10
-74.458742903862159
20
10.982677213828445
30
0
0
SPLINE
5
106
100
AcDbEntity
8
0
100
AcDbSpline
70
1064
71
3
72
74
73
70
74
0
42
0.000000001
43
0.0000000001
44
0.0000000001
40
0.804933336463032
40
0.804933336463032
40
0.804933336463032
40
0.804933336463032
40
0.81092553594217842
40
0.81092553594217842
40
0.81092553594217842
40
0.81648904920194709
40
0.81648904920194709
40
0.81648904920194709
40
0.82000652599975943
40
0.82000652599975943
40
0.82000652599975943
40
0.82255138676558148
40
0.82255138676558148
40
0.82255138676558148
40
0.82498022239728452
40
0.82498022239728452
40
0.82498022239728452
40
0.82772328018080066
40
0.82772328018080066
40
0.82772328018080066
40
0.83198337052797555
40
0.83198337052797555
40
0.83198337052797555
40
0.83832354674409215
40
0.83832354674409215
40
0.83832354674409215
40
0.84697651596448709
40
0.84697651596448709
40
0.84697651596448709
40
0.85226918484809677
40
0.85226918484809677
40
0.85226918484809677
40
0.85630654845077492
40
0.85630654845077492
40
0.85630654845077492
40
0.85930871770738382
40
0.85930871770738382
40
0.85930871770738382
40
0.8622709592608554
40
0.8622709592608554
40
0.8622709592608554
40
0.86663187644230733
40
0.86663187644230733
40
0.86663187644230733
40
0.87309155748606115
40
0.87309155748606115
40
0.87309155748606115
40
0.88329539207268259
40
0.88329539207268259
40
0.88329539207268259
40
0.90109453913917015
40
0.90109453913917015
40
0.90109453913917015
40
0.91498000562062243
40
0.91498000562062243
40
0.91498000562062243
40
0.92994754923531808
40
0.92994754923531808
40
0.92994754923531808
40
0.94935812490522409
40
0.94935812490522409
40
0.94935812490522409
40
0.96880519555351952
40
0.96880519555351952
40
0.96880519555351952
40
0.9889365255888436
40
0.9889365255888436
40
0.9889365255888436
40
1
40
1
40
1
40
1
10
-74.458742903862245
20
10.982677213828518
30
0
10
-74.635970366652316
20
11.102713166312515
30
0
10
-74.9230891763237
20
11.273037500037532
30
0
10
-75.254190716092751
20
11.452716696365648
30
0
10
-75.561605015841209
20
11.619541514991088
30
0
10
-75.887046128597333
20
11.781342546112983
30
0
10
-76.350087827322938
20
12.04109387154026
30
0
10
-76.642841408673206
20
12.205319104361838
30
0
10
-77.001059117580027
20
12.396399956322144
30
0
10
-77.555624353338729
20
12.832240584666419
30
0
10
-77.956846988680326
20
13.147567103924317
30
0
10
-78.48982057473026
20
13.622065067182545
30
0
10
-78.995103520060198
20
14.36403953943698
30
0
10
-79.477349636700993
20
15.072185957594165
30
0
10
-79.865279139402119
20
16.023846345044777
30
0
10
-80.018799452117776
20
16.847517436314096
30
0
10
-80.192180920680656
20
17.777748106711215
30
0
10
-80.13559105347916
20
18.483285324711677
30
0
10
-80.079006311818418
20
18.955867271341706
30
0
10
-79.991127699419195
20
19.689807985673678
30
0
10
-79.89424447770395
20
19.995139555568858
30
0
10
-79.824433334470399
20
20.290881960003475
30
0
10
-79.720535314973532
20
20.731027310427073
30
0
10
-79.630199730306529
20
21.113252831739469
30
0
10
-79.538747442448027
20
21.580914846725431
30
0
10
-79.413934849706067
20
22.219172346719652
30
0
10
-79.306576387009841
20
22.935843678083401
30
0
10
-79.224051618961767
20
23.627415748831851
30
0
10
-79.173574579132989
20
24.050422220529065
30
0
10
-79.138460953496903
20
24.450326715556528
30
0
10
-79.050686855526777
20
25.040745662631299
30
0
10
-78.983730853518054
20
25.491130151000331
30
0
10
-78.903672779434629
20
26.083405474569187
30
0
10
-78.567697964114473
20
26.963136514022704
30
0
10
-78.317868282963175
20
27.617301395030694
30
0
10
-77.880481832782777
20
28.442089208110808
30
0
10
-77.231914483647458
20
29.166522575078126
30
0
10
-76.591972832255152
20
29.881321255275076
30
0
10
-75.791612444843807
20
30.437544817149952
30
0
10
-75.10061122323269
20
30.778882488498802
30
0
10
-74.083341346575722
20
31.281388880631976
30
0
10
-73.317334298440386
20
31.424268985779555
30
0
10
-72.693971960603449
20
31.530553255083341
30
0
10
-71.770606138789191
20
31.687988595197346
30
0
10
-71.058104200001154
20
31.730080499366853
30
0
10
-70.219114899926453
20
31.788455301929851
30
0
10
-68.893831502817321
20
31.880665246251393
30
0
10
-67.293880342857122
20
31.971951159419003
30
0
10
-65.366324512630911
20
32.116134677408546
30
0
10
-62.003975837746964
20
32.367642443383524
30
0
10
-57.701485008191767
20
32.793937587418782
30
0
10
-53.441848196074375
20
33.311056421284917
30
0
10
-50.118821314118939
20
33.714471046028109
30
0
10
-46.861919854333429
20
34.157330047145791
30
0
10
-44.025649790280632
20
34.529683997653379
30
0
10
-40.968352727666861
20
34.931055028419316
30
0
10
-38.426893573644954
20
35.246273071812375
30
0
10
-36.13846140659075
20
35.385168562494343
30
0
10
-33.170720881656543
20
35.565294406887666
30
0
10
-30.561128712116215
20
35.402641686644913
30
0
10
-27.956904846903509
20
35.068232568733862
30
0
10
-25.347784625431288
20
34.73319470834042
30
0
10
-22.690882288097015
20
34.263450347804572
30
0
10
-19.471071518756627
20
33.846756794166346
30
0
10
-16.137969355394887
20
33.415401573444797
30
0
10
-12.203986459904272
20
33.042801819078036
30
0
10
-7.7577106854713431
20
32.905444211654469
30
0
10
-5.31419313501301
20
32.829957277992264
30
0
10
-2.7269220748275673
20
32.824550893452582
30
0
10
-0.071810638842118191
20
32.898055950701533
30
0
0
SPLINE
5
107
100
AcDbEntity
8
0
100
AcDbSpline
70
1064
71
3
72
71
73
67
74
0
42
0.000000001
43
0.0000000001
44
0.0000000001
40
0
40
0
40
0
40
0
40
0.026257688063958975
40
0.026257688063958975
40
0.026257688063958975
40
0.06515074160573045
40
0.06515074160573045
40
0.06515074160573045
40
0.18200689890501415
40
0.18200689890501415
40
0.18200689890501415
40
0.23313146772345078
40
0.23313146772345078
40
0.23313146772345078
40
0.26094505391861106
40
0.26094505391861106
40
0.26094505391861106
40
0.28620474764944553
40
0.28620474764944553
40
0.28620474764944553
40
0.31190973126569316
40
0.31190973126569316
40
0.31190973126569316
40
0.35234221801716487
40
0.35234221801716487
40
0.35234221801716487
40
0.41481005497327161
40
0.41481005497327161
40
0.41481005497327161
40
0.48795879810161269
40
0.48795879810161269
40
0.48795879810161269
40
0.53156951496840021
40
0.53156951496840021
40
0.53156951496840021
40
0.57332605122839353
40
0.57332605122839353
40
0.57332605122839353
40
0.62531151370467408
40
0.62531151370467408
40
0.62531151370467408
40
0.6849950143549125
40
0.6849950143549125
40
0.6849950143549125
40
0.72437063756054842
40
0.72437063756054842
40
0.72437063756054842
40
0.75703116421460925
40
0.75703116421460925
40
0.75703116421460925
40
0.78945538455785602
40
0.78945538455785602
40
0.78945538455785602
40
0.83886165143933311
40
0.83886165143933311
40
0.83886165143933311
40
0.90539070123207732
40
0.90539070123207732
40
0.90539070123207732
40
0.95269535061603872
40
0.95269535061603872
40
0.95269535061603872
40
0.98053255114513371
40
0.98053255114513371
40
0.98053255114513371
40
1
40
1
40
1
40
1
10
-57.599422701765022
20
16.485017126510712
30
0
10
-57.512386676881839
20
16.58448686923435
30
0
10
-57.329067994432862
20
16.765311338523318
30
0
10
-56.769081851066396
20
17.037574696619611
30
0
10
-55.93962683569903
20
17.440852903676848
30
0
10
-54.309886224047276
20
17.943009477714945
30
0
10
-52.095033007861446
20
18.343473443426845
30
0
10
-45.440393881944971
20
19.546687794279105
30
0
10
-33.671388175778183
20
20.046684866939479
30
0
10
-24.91429617424048
20
19.527882120758878
30
0
10
-21.083068423567735
20
19.300905919304864
30
0
10
-17.82853946632634
20
18.839248212819612
30
0
10
-15.855578130812056
20
18.26997428922985
30
0
10
-14.782216898956426
20
17.96026900059158
30
0
10
-14.113866459911485
20
17.627031670710139
30
0
10
-13.825055151279795
20
17.432455409474201
30
0
10
-13.562763005605053
20
17.255745483194865
30
0
10
-13.590763736759225
20
17.241849197117233
30
0
10
-13.582436923405378
20
17.22731846573118
30
0
10
-13.573963321028526
20
17.212531579706717
30
0
10
-13.510853068436363
20
17.112512301892675
30
0
10
-13.465553747918545
20
16.713296410814145
30
0
10
-13.394300476411702
20
16.08535237210225
30
0
10
-13.458279372463604
20
14.795200198855159
30
0
10
-13.726542021747374
20
13.173131191256894
30
0
10
-14.141005459029321
20
10.667048819399962
30
0
10
-14.930962572841358
20
7.4100558670727761
30
0
10
-15.865692028412512
20
4.076231012144425
30
0
10
-16.960243851747006
20
0.17238048952451179
30
0
10
-18.264060610705219
20
-3.8789258249510583
30
0
10
-19.884710561011076
20
-7.0320525692273428
30
0
10
-20.850929570392502
20
-8.9119224317684402
30
0
10
-21.914400775829385
20
-10.442534094373062
30
0
10
-23.190289782145747
20
-11.655967967760327
30
0
10
-24.41193229076843
20
-12.817810725080081
30
0
10
-25.877931507887265
20
-13.749804094930806
30
0
10
-27.814037881519358
20
-14.486818717052842
30
0
10
-30.224424236600498
20
-15.40437676698869
30
0
10
-33.352100852666787
20
-15.954844107300092
30
0
10
-36.677715911198689
20
-16.048399386946532
30
0
10
-40.495790023723785
20
-16.155808387994838
30
0
10
-44.530394809162686
20
-15.668712687131411
30
0
10
-47.764229333301401
20
-14.812534475126578
30
0
10
-49.897720974116453
20
-14.247679024198153
30
0
10
-51.67089804063437
20
-13.523505955109645
30
0
10
-52.895035373298882
20
-12.804855731743292
30
0
10
-53.91040901635013
20
-12.208763711748443
30
0
10
-54.531781762675124
20
-11.652037947852104
30
0
10
-54.963798507375998
20
-11.111435234075202
30
0
10
-55.392689513039301
20
-10.574743903426373
30
0
10
-55.697482579763303
20
-9.9986373648016169
30
0
10
-55.996755929915658
20
-9.0759936481506376
30
0
10
-56.452772415481519
20
-7.6701192364049007
30
0
10
-56.804788911282586
20
-5.4681983662532847
30
0
10
-57.092277156391788
20
-2.9072066580522415
30
0
10
-57.479400510997422
20
0.54135069363849264
30
0
10
-57.821252159657902
20
4.5945223529027022
30
0
10
-58.036488975723941
20
8.1462890751194568
30
0
10
-58.189530423786749
20
10.671728413446058
30
0
10
-58.247802773557822
20
12.965613037640566
30
0
10
-58.113249911141679
20
14.461732707233224
30
0
10
-58.03407006176915
20
15.342148983441684
30
0
10
-57.887336741406365
20
15.908932371069742
30
0
10
-57.779484109623532
20
16.173492093573543
30
0
10
-57.704059298464792
20
16.35850720892314
30
0
10
-57.663951207047511
20
16.411270263330721
30
0
10
-57.599422701765029
20
16.485017126510702
30
0
0
SPLINE
5
108
100
AcDbEntity
8
0
100
AcDbSpline
70
1064
71
3
72
62
73
58
74
0
42
0.000000001
43
0.0000000001
44
0.0000000001
40
0.043176835897093715
40
0.043176835897093715
40
0.043176835897093715
40
0.043176835897093715
40
0.050379082979940849
40
0.050379082979940849
40
0.050379082979940849
40
0.10249487494345359
40
0.10249487494345359
40
0.10249487494345359
40
0.2119043069659387
40
0.2119043069659387
40
0.2119043069659387
40
0.24639809737349616
40
0.24639809737349616
40
0.24639809737349616
40
0.27143823820227747
40
0.27143823820227747
40
0.27143823820227747
40
0.2964491237079141
40
0.2964491237079141
40
0.2964491237079141
40
0.32473555355742589
40
0.32473555355742589
40
0.32473555355742589
40
0.37885929665844176
40
0.37885929665844176
40
0.37885929665844176
40
0.45372317596655332
40
0.45372317596655332
40
0.45372317596655332
40
0.49438916309691355
40
0.49438916309691355
40
0.49438916309691355
40
0.53445290276580548
40
0.53445290276580548
40
0.53445290276580548
40
0.57405350773889319
40
0.57405350773889319
40
0.57405350773889319
40
0.64255973526590338
40
0.64255973526590338
40
0.64255973526590338
40
0.70490562918670274
40
0.70490562918670274
40
0.70490562918670274
40
0.7618132264420886
40
0.7618132264420886
40
0.7618132264420886
40
0.8213258731737394
40
0.8213258731737394
40
0.8213258731737394
40
0.89954810214853687
40
0.89954810214853687
40
0.89954810214853687
40
0.94025939961532767
40
0.94025939961532767
40
0.94025939961532767
40
0.95401334851065578
40
0.95401334851065578
40
0.95401334851065578
40
0.95401334851065578
10
15.256955002673426
20
16.450812374231763
30
0
10
15.458458376039218
20
16.51010259553545
30
0
10
15.694418970176047
20
16.57323855364557
30
0
10
15.958591440863586
20
16.636937464452721
30
0
10
17.870155618886262
20
17.097865720001472
30
0
10
21.286077202961344
20
17.552762397040119
30
0
10
25.33700695065906
20
17.872652359421451
30
0
10
33.841337522261917
20
18.544214236833561
30
0
10
45.263407448905355
20
18.784287962670749
30
0
10
52.114422104359271
20
18.027821251079935
30
0
10
54.274358951081645
20
17.789328063449226
30
0
10
55.971182165089139
20
17.436771187224259
30
0
10
56.967310211305659
20
17.101020181848618
30
0
10
57.690431279360141
20
16.857287835861818
30
0
10
58.01668148289118
20
16.646170495170587
30
0
10
58.118423315123607
20
16.567633765675897
30
0
10
58.220046278608478
20
16.489188793548536
30
0
10
58.169143824982541
20
16.551425439376654
30
0
10
58.238938677417586
20
16.41986098156011
30
0
10
58.31787419518708
20
16.27106621754114
30
0
10
58.497811729842972
20
15.811689344900259
30
0
10
58.643262897746204
20
14.994933489369489
30
0
10
58.921571672915761
20
13.432138738098999
30
0
10
59.050632147098163
20
10.727674748412802
30
0
10
59.053746571941289
20
7.8224787271088561
30
0
10
59.058054439657212
20
3.8040159999582936
30
0
10
58.860699000323564
20
-0.65813318631288698
30
0
10
58.314986008855442
20
-3.945658517910795
30
0
10
58.018555237527394
20
-5.7314391114500927
30
0
10
57.614273439082559
20
-7.1393669682036176
30
0
10
57.16736162880909
20
-8.1129263604844741
30
0
10
56.727068408719461
20
-9.0720677166136383
30
0
10
56.293192050460242
20
-9.6525363171218643
30
0
10
55.596717414392458
20
-10.267969994391425
30
0
10
54.908293988006456
20
-10.876289291144703
30
0
10
53.888149813217765
20
-11.517894825490993
30
0
10
52.472209993638444
20
-12.104513387477351
30
0
10
50.022734903281226
20
-13.119321739680958
30
0
10
46.467186937922193
20
-13.890900544196196
30
0
10
42.678719253627975
20
-14.028094992158326
30
0
10
39.230924609348982
20
-14.152952407431956
30
0
10
35.627803361115575
20
-13.758945428279301
30
0
10
32.507064052601471
20
-12.804837650045107
30
0
10
29.658540043408866
20
-11.933954617219287
30
0
10
27.231296688087333
20
-10.625654400521237
30
0
10
25.234632722828483
20
-8.904409162996469
30
0
10
23.146567808173856
20
-7.104370772697834
30
0
10
21.471699750817649
20
-4.8005083713113548
30
0
10
20.11048465956554
20
-2.0307073154645678
30
0
10
18.321330851098736
20
1.6098636270785778
30
0
10
17.101899843225098
20
6.0151928149766132
30
0
10
16.297490966327963
20
9.8561231857678475
30
0
10
15.87883082966991
20
11.855161834038711
30
0
10
15.564023753508296
20
13.724047805448443
30
0
10
15.385355118439897
20
15.167590740243796
30
0
10
15.324993512968261
20
15.655278851132007
30
0
10
15.281494885107483
20
16.09194452066906
30
0
10
15.256955002673445
20
16.450812374231784
30
0
0
ENDSEC
0
SECTION
2
OBJECTS
0
DICTIONARY
5
C
100
AcDbDictionary
3
ACAD_GROUP
350
D
3
ACAD_MLINESTYLE
350
17
0
DICTIONARY
5
D
100
AcDbDictionary
0
DICTIONARY
5
1A
330
C
100
AcDbDictionary
0
DICTIONARY
5
17
100
AcDbDictionary
0
ENDSEC
0
EOF
