solid
facet normal 1 0 0
outer loop
vertex 45 2.5 2.5
vertex 45 -2.5 2.5
vertex 45 2.5 -2.5
endloop
endfacet
facet normal 1 0 0
outer loop
vertex 45 -2.5 2.5
vertex 45 -2.5 -2.5
vertex 45 2.5 -2.5
endloop
endfacet
facet normal -1 0 0
outer loop
vertex 35 2.5 -2.5
vertex 35 -2.5 -2.5
vertex 35 2.5 2.5
endloop
endfacet
facet normal -1 0 0
outer loop
vertex 35 -2.5 -2.5
vertex 35 -2.5 2.5
vertex 35 2.5 2.5
endloop
endfacet
facet normal 0 1 0
outer loop
vertex 35 2.5 -2.5
vertex 35 2.5 2.5
vertex 45 2.5 -2.5
endloop
endfacet
facet normal 0 1 0
outer loop
vertex 35 2.5 2.5
vertex 45 2.5 2.5
vertex 45 2.5 -2.5
endloop
endfacet
facet normal 0 -1 0
outer loop
vertex 35 -2.5 2.5
vertex 35 -2.5 -2.5
vertex 45 -2.5 2.5
endloop
endfacet
facet normal 0 -1 0
outer loop
vertex 35 -2.5 -2.5
vertex 45 -2.5 -2.5
vertex 45 -2.5 2.5
endloop
endfacet
facet normal 0 0 1
outer loop
vertex 35 2.5 2.5
vertex 35 -2.5 2.5
vertex 45 2.5 2.5
endloop
endfacet
facet normal 0 0 1
outer loop
vertex 35 -2.5 2.5
vertex 45 -2.5 2.5
vertex 45 2.5 2.5
endloop
endfacet
facet normal 0 0 -1
outer loop
vertex 45 2.5 -2.5
vertex 45 -2.5 -2.5
vertex 35 2.5 -2.5
endloop
endfacet
facet normal 0 0 -1
outer loop
vertex 45 -2.5 -2.5
vertex 35 -2.5 -2.5
vertex 35 2.5 -2.5
endloop
endfacet
endsolid