0
SECTION
2
HEADER
9
$INSUNITS
70
4
9
$ACADVER
1
AC1014
9
$HANDSEED
5
FFFF
0
ENDSEC
0
SECTION
2
TABLES
0
TABLE
2
VPORT
5
8
100
AcDbSymbolTable
0
ENDTAB
0
TABLE
2
LTYPE
5
5
100
AcDbSymbolTable
0
LTYPE
5
14
100
AcDbSymbolTableRecord
100
AcDbLinetypeTableRecord
2
BYBLOCK
70
0
0
LTYPE
5
15
100
AcDbSymbolTableRecord
100
AcDbLinetypeTableRecord
2
BYLAYER
70
0
0
ENDTAB
0
TABLE
2
LAYER
5
2
100
AcDbSymbolTable
70
2
0
LAYER
5
50
100
AcDbSymbolTableRecord
100
AcDbLayerTableRecord
2
0
70
0
6
CONTINUOUS
0
ENDTAB
0
TABLE
2
STYLE
5
3
100
AcDbSymbolTable
70
1
0
STYLE
5
11
100
AcDbSymbolTableRecord
100
AcDbTextStyleTableRecord
2
STANDARD
70
0
0
ENDTAB
0
TABLE
2
VIEW
5
6
100
AcDbSymbolTable
70
0
0
ENDTAB
0
TABLE
2
UCS
5
7
100
AcDbSymbolTable
70
0
0
ENDTAB
0
TABLE
2
APPID
5
9
100
AcDbSymbolTable
70
2
0
APPID
5
12
100
AcDbSymbolTableRecord
100
AcDbRegAppTableRecord
2
ACAD
70
0
0
ENDTAB
0
TABLE
2
DIMSTYLE
5
A
100
AcDbSymbolTable
70
1
0
ENDTAB
0
TABLE
2
BLOCK_RECORD
5
1
100
AcDbSymbolTable
70
1
0
BLOCK_RECORD
5
1F
100
AcDbSymbolTableRecord
100
AcDbBlockTableRecord
2
*MODEL_SPACE
0
BLOCK_RECORD
5
1B
100
AcDbSymbolTableRecord
100
AcDbBlockTableRecord
2
*PAPER_SPACE
0
ENDTAB
0
ENDSEC
0
SECTION
2
BLOCKS
0
BLOCK
5
20
100
AcDbEntity
100
AcDbBlockBegin
2
*MODEL_SPACE
0
ENDBLK
5
21
100
AcDbEntity
100
AcDbBlockEnd
0
BLOCK
5
1C
100
AcDbEntity
100
AcDbBlockBegin
2
*PAPER_SPACE
0
ENDBLK
5
1D
100
AcDbEntity
100
AcDbBlockEnd
0
ENDSEC
0
SECTION
2
ENTITIES
0
SPLINE
5
100
100
AcDbEntity
8
0
100
AcDbSpline
70
1064
71
5
72
111
73
105
74
0
42
0.000000001
43
0.0000000001
44
0.0000000001
40
0
40
0
40
0
40
0
40
0
40
0
40
0.01
40
0.02
40
0.029999999999999999
40
0.040000000000000001
40
0.050000000000000003
40
0.060000000000000005
40
0.070000000000000007
40
0.080000000000000002
40
0.089999999999999997
40
0.099999999999999992
40
0.10999999999999999
40
0.11999999999999998
40
0.12999999999999998
40
0.13999999999999999
40
0.14999999999999999
40
0.16
40
0.17000000000000001
40
0.18000000000000002
40
0.19000000000000003
40
0.20000000000000004
40
0.21000000000000005
40
0.22000000000000006
40
0.23000000000000007
40
0.24000000000000007
40
0.25000000000000006
40
0.26000000000000006
40
0.27000000000000007
40
0.28000000000000008
40
0.29000000000000009
40
0.3000000000000001
40
0.31000000000000011
40
0.32000000000000012
40
0.33000000000000013
40
0.34000000000000014
40
0.35000000000000014
40
0.36000000000000015
40
0.37000000000000016
40
0.38000000000000017
40
0.39000000000000018
40
0.40000000000000019
40
0.4100000000000002
40
0.42000000000000021
40
0.43000000000000022
40
0.44000000000000022
40
0.45000000000000023
40
0.46000000000000024
40
0.47000000000000025
40
0.48000000000000026
40
0.49000000000000027
40
0.50000000000000022
40
0.51000000000000023
40
0.52000000000000024
40
0.53000000000000025
40
0.54000000000000026
40
0.55000000000000027
40
0.56000000000000028
40
0.57000000000000028
40
0.58000000000000029
40
0.5900000000000003
40
0.60000000000000031
40
0.61000000000000032
40
0.62000000000000033
40
0.63000000000000034
40
0.64000000000000035
40
0.65000000000000036
40
0.66000000000000036
40
0.67000000000000037
40
0.68000000000000038
40
0.69000000000000039
40
0.7000000000000004
40
0.71000000000000041
40
0.72000000000000042
40
0.73000000000000043
40
0.74000000000000044
40
0.75000000000000044
40
0.76000000000000045
40
0.77000000000000046
40
0.78000000000000047
40
0.79000000000000048
40
0.80000000000000049
40
0.8100000000000005
40
0.82000000000000051
40
0.83000000000000052
40
0.84000000000000052
40
0.85000000000000053
40
0.86000000000000054
40
0.87000000000000055
40
0.88000000000000056
40
0.89000000000000057
40
0.90000000000000058
40
0.91000000000000059
40
0.9200000000000006
40
0.9300000000000006
40
0.94000000000000061
40
0.95000000000000062
40
0.96000000000000063
40
0.97000000000000064
40
0.98000000000000065
40
0.99000000000000066
40
1
40
1
40
1
40
1
40
1
40
1
10
0.094231895775649915
20
26.900353901024697
30
0
10
1.6131241551801998
20
26.934574501949854
30
0
10
4.6848822669914991
20
27.040786875471596
30
0
10
9.3512861032816499
20
27.312187048824953
30
0
10
15.492159821606604
20
27.872857208190073
30
0
10
22.514234595951535
20
28.772409249791448
30
0
10
28.442327791220926
20
29.701128057496437
30
0
10
33.024647500184891
20
30.485746902687119
30
0
10
36.291727979066458
20
30.980548129886184
30
0
10
38.684941945433366
20
31.10305510563547
30
0
10
41.103756601672252
20
30.85938888591248
30
0
10
45.196807601235918
20
30.397494635596001
30
0
10
51.063675563396991
20
29.864336697102431
30
0
10
58.006848044697044
20
29.364640152887684
30
0
10
64.831643780094169
20
28.925281055810398
30
0
10
70.318565881546164
20
28.428974715873498
30
0
10
73.612726697821628
20
27.624124559474236
30
0
10
74.669721475339486
20
25.957434857858559
30
0
10
74.673490698744814
20
22.773198596794945
30
0
10
74.077798620630944
20
19.630811724852943
30
0
10
73.165525985795028
20
18.06837141162659
30
0
10
72.08617061255967
20
18.189804646320635
30
0
10
71.064101352745027
20
17.618257343414086
30
0
10
70.47104963921366
20
15.502442844113606
30
0
10
70.260528154761531
20
11.667089374171526
30
0
10
70.172004200147768
20
6.4088539461994785
30
0
10
69.813382726844281
20
0.33868397535840372
30
0
10
68.793066112457979
20
-5.8086531986737713
30
0
10
66.821667652203757
20
-11.339140919123153
30
0
10
63.849398981455167
20
-15.802622680117143
30
0
10
60.110117867022737
20
-19.087235894480092
30
0
10
55.952309135360856
20
-21.290728747758827
30
0
10
51.750129593613671
20
-22.646757022794624
30
0
10
47.707788275986175
20
-23.412547961883021
30
0
10
43.881290408286979
20
-23.811701862640277
30
0
10
39.68889722305795
20
-23.859595076598204
30
0
10
35.06630556881661
20
-23.55612601546941
30
0
10
30.521738810789579
20
-22.947277997162054
30
0
10
26.620493669977449
20
-22.057242218526447
30
0
10
23.755856726554534
20
-20.87772592875276
30
0
10
21.686079713524723
20
-19.324432511226327
30
0
10
19.409229138099857
20
-17.224632527164832
30
0
10
16.76930589916951
20
-14.486902254419732
30
0
10
13.87050426829652
20
-11.083934185599713
30
0
10
11.064545126397418
20
-7.0845803343192335
30
0
10
8.7100585495064848
20
-2.6637978115547005
30
0
10
7.0198551116938388
20
1.8725822057816455
30
0
10
5.898244418251652
20
6.0842783978716595
30
0
10
5.0803999772326689
20
9.5238626690780741
30
0
10
4.2439155079607005
20
11.864802706340727
30
0
10
3.1218357806416352
20
13.005978386912949
30
0
10
1.6374059117162678
20
13.241441909626792
30
0
10
-0.041787265139482027
20
13.221363689861519
30
0
10
-1.6934585454332036
20
13.213080052656533
30
0
10
-3.177020596035681
20
12.605867104240058
30
0
10
-4.4326538749908533
20
10.664798494159676
30
0
10
-5.4891588204381971
20
7.3989216948761074
30
0
10
-6.4333060736939371
20
3.454100169525633
30
0
10
-7.3704975363997178
20
-0.3366046567538713
30
0
10
-8.3813138894602464
20
-3.2888870859211843
30
0
10
-9.4952183074637073
20
-5.2495415538042192
30
0
10
-10.623503747088471
20
-6.9520259806218787
30
0
10
-11.852069660221382
20
-9.2598746172783706
30
0
10
-13.416834313150156
20
-12.770443769480126
30
0
10
-16.428267062655507
20
-16.644707339344503
30
0
10
-20.98262639776366
20
-20.061269138949086
30
0
10
-26.29362277959352
20
-22.63352807423523
30
0
10
-31.287081632511725
20
-24.176390828750947
30
0
10
-35.144163065333565
20
-24.79361939355816
30
0
10
-37.514133939527795
20
-24.728908481820927
30
0
10
-39.712808053893887
20
-24.554190549487338
30
0
10
-42.987702348009648
20
-24.511618290797408
30
0
10
-47.383274787279134
20
-24.320882392031606
30
0
10
-52.532704272069537
20
-23.513499165900647
30
0
10
-57.703326805702027
20
-21.567069176759112
30
0
10
-62.148733170250793
20
-18.112110534637583
30
0
10
-65.355468379826206
20
-13.1378930796254
30
0
10
-67.250884300429945
20
-7.1056273465984567
30
0
10
-68.04981014747014
20
-0.72734355609575618
30
0
10
-68.18725592756671
20
5.2175608389084704
30
0
10
-68.179345244896666
20
10.037239351632124
30
0
10
-68.601038168553359
20
13.393651281874048
30
0
10
-69.812098725376472
20
15.289210133875862
30
0
10
-72.306904274729945
20
16.761156281699662
30
0
10
-74.382028506167842
20
17.669467278940196
30
0
10
-74.208870624602966
20
18.002046719397015
30
0
10
-73.482163659699793
20
20.753982230960982
30
0
10
-73.096771206316603
20
24.165529711595021
30
0
10
-73.108324329237362
20
25.504346782836244
30
0
10
-71.437167513461091
20
25.737073500117059
30
0
10
-67.258727653197454
20
25.942658009353721
30
0
10
-60.951111446512002
20
26.411389399037301
30
0
10
-53.490468594939344
20
27.227523486048888
30
0
10
-46.147004099643581
20
28.192105175035277
30
0
10
-39.954851479461226
20
29.040576441514482
30
0
10
-35.503214457899674
20
29.509641187500954
30
0
10
-32.049548852695793
20
29.526049242386058
30
0
10
-28.62905369855531
20
29.163734477126255
30
0
10
-24.716795449853816
20
28.543707517355195
30
0
10
-19.938990304056929
20
27.833860168593997
30
0
10
-14.166450192609814
20
27.208976888484145
30
0
10
-8.789112788707758
20
26.904003641578804
30
0
10
-4.4284712894356018
20
26.835463269920723
30
0
10
-1.4246603636287993
20
26.866133300099555
30
0
10
0.094231895775649915
20
26.900353901024697
30
0
0
SPLINE
5
101
100
AcDbEntity
8
0
100
AcDbSpline
70
1064
71
5
72
31
73
25
74
0
42
0.000000001
43
0.0000000001
44
0.0000000001
40
0
40
0
40
0
40
0
40
0
40
0
40
0.050000000000000003
40
0.10000000000000001
40
0.15000000000000002
40
0.20000000000000001
40
0.25
40
0.29999999999999999
40
0.34999999999999998
40
0.39999999999999997
40
0.44999999999999996
40
0.49999999999999994
40
0.54999999999999993
40
0.59999999999999998
40
0.65000000000000002
40
0.70000000000000007
40
0.75000000000000011
40
0.80000000000000016
40
0.8500000000000002
40
0.90000000000000024
40
0.95000000000000029
40
1
40
1
40
1
40
1
40
1
40
1
10
-61.362306175299409
20
19.777540165853299
30
0
10
-60.675685291664756
20
20.562249747150048
30
0
10
-58.902613709183072
20
21.874778785654883
30
0
10
-54.825641505326772
20
23.177068017397183
30
0
10
-46.031752210044068
20
24.254225652684593
30
0
10
-32.158197387878147
20
24.716713998453873
30
0
10
-19.162549657775514
20
24.307987433028167
30
0
10
-10.474961893367427
20
22.581032284786225
30
0
10
-8.0074841501185166
20
19.074265548045442
30
0
10
-8.7311753068929896
20
13.297959360655994
30
0
10
-10.444732617297852
20
5.5631742547818286
30
0
10
-12.700258655852082
20
-3.1774277208418655
30
0
10
-15.88105481713453
20
-11.590094373414285
30
0
10
-21.29819663778062
20
-18.060722271321843
30
0
10
-30.484290638678541
20
-21.067362681351884
30
0
10
-41.639396265332266
20
-20.943185463716084
30
0
10
-52.020202704975517
20
-18.619493414130432
30
0
10
-59.08135722804542
20
-14.976897044336239
30
0
10
-61.807022815251784
20
-10.200502543098953
30
0
10
-62.824297282386837
20
-2.4351165405386892
30
0
10
-63.395426291014715
20
6.8239332558985879
30
0
10
-63.500842877934261
20
13.552220949333426
30
0
10
-63.022339010990862
20
17.166521297874318
30
0
10
-62.048927058934069
20
18.99283058455655
30
0
10
-61.362306175299409
20
19.777540165853299
30
0
0
SPLINE
5
102
100
AcDbEntity
8
0
100
AcDbSpline
70
1064
71
5
72
31
73
25
74
0
42
0.000000001
43
0.0000000001
44
0.0000000001
40
0
40
0
40
0
40
0
40
0
40
0
40
0.050000000000000003
40
0.10000000000000001
40
0.15000000000000002
40
0.20000000000000001
40
0.25
40
0.29999999999999999
40
0.34999999999999998
40
0.39999999999999997
40
0.44999999999999996
40
0.49999999999999994
40
0.54999999999999993
40
0.59999999999999998
40
0.65000000000000002
40
0.70000000000000007
40
0.75000000000000011
40
0.80000000000000016
40
0.8500000000000002
40
0.90000000000000024
40
0.95000000000000029
40
1
40
1
40
1
40
1
40
1
40
1
10
9.9262683385893968
20
20.03536502847134
30
0
10
10.362035837200247
20
20.689016276387623
30
0
10
11.637985718312072
20
21.789052202635347
30
0
10
15.035785777079786
20
22.923805983303662
30
0
10
23.371891223054945
20
23.963644866089425
30
0
10
37.400801357424626
20
24.640270366400884
30
0
10
51.133164511672959
20
24.572772056495374
30
0
10
60.87741835027721
20
23.118329797767828
30
0
10
64.452523266626457
20
19.643590508488007
30
0
10
65.103425597338628
20
13.051115438918117
30
0
10
65.145453087439648
20
4.2136542006222903
30
0
10
64.636293959508151
20
-4.7996107511091886
30
0
10
62.909918351043032
20
-11.934401722799743
30
0
10
58.696068964418458
20
-16.399106813175067
30
0
10
51.248593107645675
20
-19.415223111414868
30
0
10
41.581768483171828
20
-20.631840225254614
30
0
10
31.360942639984483
20
-19.527799284114138
30
0
10
22.411509919542468
20
-15.530727260633856
30
0
10
16.042578846927775
20
-8.5987896399689419
30
0
10
12.287104696956273
20
0.23844398424821195
30
0
10
10.14603149367815
20
9.11562657357684
30
0
10
9.2653146228900738
20
14.866991808205253
30
0
10
9.0233807266469448
20
17.867144715137616
30
0
10
9.490500839978548
20
19.381713780555067
30
0
10
9.9262683385893968
20
20.03536502847134
30
0
0
SPLINE
5
103
100
AcDbEntity
8
0
100
AcDbSpline
70
1064
71
3
72
23
73
19
74
0
42
0.000000001
43
0.0000000001
44
0.0000000001
40
0
40
0
40
0
40
0
40
0.026022839023127142
40
0.026022839023127142
40
0.026022839023127142
40
0.063544707016494908
40
0.063544707016494908
40
0.063544707016494908
40
0.16719372184380765
40
0.16719372184380765
40
0.16719372184380765
40
0.219018229257464
40
0.219018229257464
40
0.219018229257464
40
0.24842792270467276
40
0.24842792270467276
40
0.24842792270467276
40
0.26275680506186971
40
0.26275680506186971
40
0.26275680506186971
40
0.26275680506186971
10
-57.599422701765022
20
16.485017126510712
30
0
10
-57.518847033346219
20
16.577103604703623
30
0
10
-57.366884192416514
20
16.733047973378302
30
0
10
-56.835386279304878
20
16.986692385269642
30
0
10
-56.069028906967382
20
17.352417744127841
30
0
10
-54.533613205431706
20
17.815593800078766
30
0
10
-52.419920574527396
20
18.183408321863361
30
0
10
-46.581134539682125
20
19.199445498607627
30
0
10
-36.497977636979925
20
19.664157184876501
30
0
10
-28.062505402038354
20
19.44206980824395
30
0
10
-23.844769284567569
20
19.331026119927671
30
0
10
-20.042041297298866
20
19.026071643538938
30
0
10
-17.410713283452715
20
18.540907803979739
30
0
10
-15.917470913996528
20
18.265584014035777
30
0
10
-14.812341856095445
20
17.924689586919211
30
0
10
-14.215767709656106
20
17.656918287801389
30
0
10
-13.925107054623478
20
17.526455743178801
30
0
10
-13.757336439372603
20
17.420251570349691
30
0
10
-13.67785542351287
20
17.362151686486271
30
0
0
SPLINE
5
104
100
AcDbEntity
8
0
100
AcDbSpline
70
1064
71
3
72
50
73
46
74
0
42
0.000000001
43
0.0000000001
44
0.0000000001
40
0.30057928641189879
40
0.30057928641189879
40
0.30057928641189879
40
0.30057928641189879
40
0.31884537254434381
40
0.31884537254434381
40
0.31884537254434381
40
0.36635328143182599
40
0.36635328143182599
40
0.36635328143182599
40
0.43596934059931969
40
0.43596934059931969
40
0.43596934059931969
40
0.50193220832232055
40
0.50193220832232055
40
0.50193220832232055
40
0.54785863273106128
40
0.54785863273106128
40
0.54785863273106128
40
0.5905708855273325
40
0.5905708855273325
40
0.5905708855273325
40
0.65181621264988698
40
0.65181621264988698
40
0.65181621264988698
40
0.70633094224627746
40
0.70633094224627746
40
0.70633094224627746
40
0.74303957446549274
40
0.74303957446549274
40
0.74303957446549274
40
0.77686486239015862
40
0.77686486239015862
40
0.77686486239015862
40
0.80962758822767911
40
0.80962758822767911
40
0.80962758822767911
40
0.89938618850538776
40
0.89938618850538776
40
0.89938618850538776
40
0.94969309425269388
40
0.94969309425269388
40
0.94969309425269388
40
0.97772177641450841
40
0.97772177641450841
40
0.97772177641450841
40
1
40
1
40
1
40
1
10
-13.677855423512851
20
17.362151686486268
30
0
10
-13.651678030323303
20
17.245789454757638
30
0
10
-13.616195778820382
20
16.992278415776862
30
0
10
-13.615281526880025
20
16.597869744085095
30
0
10
-13.612903666753468
20
15.572059885131079
30
0
10
-13.879537706921376
20
13.692207674813531
30
0
10
-14.318681431072919
20
11.514902249417631
30
0
10
-14.962183875181179
20
8.3243719383686354
30
0
10
-15.885310530541602
20
4.4436204357331279
30
0
10
-16.990895086686422
20
0.70721162622805789
30
0
10
-18.038462683957512
20
-2.8331243681932028
30
0
10
-19.289640675928023
20
-6.2240680249257396
30
0
10
-20.85854016330201
20
-8.7430685636691017
30
0
10
-21.950881145418965
20
-10.496914201702728
30
0
10
-23.155007745485729
20
-11.819829220716926
30
0
10
-24.698961374099291
20
-12.861031487524281
30
0
10
-26.13486104493262
20
-13.82936496883624
30
0
10
-27.945258560327048
20
-14.583508703440852
30
0
10
-30.177886108763069
20
-15.066303456919009
30
0
10
-33.37926265986664
20
-15.758585429280906
30
0
10
-37.387646251343057
20
-15.834398506109828
30
0
10
-41.250301687337853
20
-15.383448477044499
30
0
10
-44.688467936265241
20
-14.98205591289363
30
0
10
-47.98786716776128
20
-14.179897650285023
30
0
10
-50.481509783248704
20
-13.228808428202978
30
0
10
-52.160656141229552
20
-12.588372628198918
30
0
10
-53.458740424249164
20
-11.884636950474885
30
0
10
-54.316429647129141
20
-11.246563473312484
30
0
10
-55.106750156500013
20
-10.658608603372844
30
0
10
-55.533368912698116
20
-10.172056668690532
30
0
10
-55.904571201562817
20
-9.5563468077804696
30
0
10
-56.264112821649547
20
-8.9599783921329461
30
0
10
-56.58777468126398
20
-8.1602716569107692
30
0
10
-56.876907296529708
20
-7.0084195236935978
30
0
10
-57.669031217157958
20
-3.8527408503988521
30
0
10
-58.090704563913924
20
1.7032875621946719
30
0
10
-58.278448779732308
20
6.6936801552950866
30
0
10
-58.383673577585157
20
9.4906401017115538
30
0
10
-58.395836493498365
20
12.139605585261716
30
0
10
-58.224805436433684
20
13.949829747414295
30
0
10
-58.129514838312929
20
14.958402962739282
30
0
10
-57.968835488347139
20
15.675043786860277
30
0
10
-57.834685809590063
20
16.041182037383997
30
0
10
-57.7280587295148
20
16.332202134628563
30
0
10
-57.668403751641463
20
16.406181640937643
30
0
10
-57.599422701765029
20
16.485017126510702
30
0
0
SPLINE
5
105
100
AcDbEntity
8
0
100
AcDbSpline
70
1064
71
3
72
68
73
64
74
0
42
0.000000001
43
0.0000000001
44
0.0000000001
40
0
40
0
40
0
40
0
40
0.029409136320446928
40
0.029409136320446928
40
0.029409136320446928
40
0.074649119965903871
40
0.074649119965903871
40
0.074649119965903871
40
0.16307615339032855
40
0.16307615339032855
40
0.16307615339032855
40
0.21538389380343301
40
0.21538389380343301
40
0.21538389380343301
40
0.24989587371589725
40
0.24989587371589725
40
0.24989587371589725
40
0.27685976734502099
40
0.27685976734502099
40
0.27685976734502099
40
0.3036705662966418
40
0.3036705662966418
40
0.3036705662966418
40
0.34526638793228126
40
0.34526638793228126
40
0.34526638793228126
40
0.40975555619356113
40
0.40975555619356113
40
0.40975555619356113
40
0.483536111669366
40
0.483536111669366
40
0.483536111669366
40
0.53361400789262547
40
0.53361400789262547
40
0.53361400789262547
40
0.57985866061248326
40
0.57985866061248326
40
0.57985866061248326
40
0.64021057624819788
40
0.64021057624819788
40
0.64021057624819788
40
0.7033994286754055
40
0.7033994286754055
40
0.7033994286754055
40
0.74327748517538961
40
0.74327748517538961
40
0.74327748517538961
40
0.78283395647809395
40
0.78283395647809395
40
0.78283395647809395
40
0.82147238159247904
40
0.82147238159247904
40
0.82147238159247904
40
0.89218853375440899
40
0.89218853375440899
40
0.89218853375440899
40
0.94609426687720455
40
0.94609426687720455
40
0.94609426687720455
40
0.97821549836473831
40
0.97821549836473831
40
0.97821549836473831
40
1
40
1
40
1
40
1
10
-59.104576091178778
20
17.802026342247746
30
0
10
-58.780700575896844
20
18.172169788284247
30
0
10
-58.300810669763699
20
18.538254573317776
30
0
10
-57.401155200980554
20
18.925603123824253
30
0
10
-56.017217969678789
20
19.521460203714799
30
0
10
-53.675868486273728
20
20.06904514591529
30
0
10
-50.67200624651494
20
20.473693501898346
30
0
10
-44.800593277863435
20
21.264627777650354
30
0
10
-36.435907601513549
20
21.608062103797
30
0
10
-29.03667862421063
20
21.464793144869745
30
0
10
-24.659771092503515
20
21.380044451821849
30
0
10
-20.636576168414141
20
21.107994229611691
30
0
10
-17.654436908583271
20
20.613758964542978
30
0
10
-15.686859463665197
20
20.287668840875355
30
0
10
-14.182541721998664
20
19.852757090571295
30
0
10
-13.278273883988049
20
19.427079163041121
30
0
10
-12.571777709088794
20
19.094500899281638
30
0
10
-12.250264417134298
20
18.806212309362966
30
0
10
-12.069398168050329
20
18.577643917864009
30
0
10
-11.889558835199436
20
18.350373284198742
30
0
10
-11.78074631965883
20
18.126792376580553
30
0
10
-11.694864440168908
20
17.642584827339835
30
0
10
-11.561622333231238
20
16.891357275740543
30
0
10
-11.609914167590299
20
15.556019656206901
30
0
10
-11.860951431156018
20
13.885768381930495
30
0
10
-12.250153608041732
20
11.296250703714005
30
0
10
-13.002979430509647
20
7.9484124745684177
30
0
10
-13.893979692095801
20
4.4501800320553917
30
0
10
-14.913352340267853
20
0.44793376728134049
30
0
10
-16.132962167255037
20
-3.7908198692606119
30
0
10
-17.810711512532073
20
-7.3127107925174624
30
0
10
-18.949468967793813
20
-9.7031629519937272
30
0
10
-20.296940764047843
20
-11.727944146097363
30
0
10
-22.013509554374416
20
-13.288745199396041
30
0
10
-23.598682526188046
20
-14.730073771842365
30
0
10
-25.549848731769682
20
-15.823923794173682
30
0
10
-27.990441360717135
20
-16.56532701877574
30
0
10
-31.175554271731261
20
-17.5329006133768
30
0
10
-35.163674087760597
20
-17.844110471758057
30
0
10
-39.174922458007522
20
-17.580727667439948
30
0
10
-43.374725871810263
20
-17.304964139826712
30
0
10
-47.553977128283968
20
-16.42304918396831
30
0
10
-50.754952231985826
20
-15.260963035820659
30
0
10
-52.775065925101458
20
-14.527578343844084
30
0
10
-54.393546708711121
20
-13.686072968535811
30
0
10
-55.530600830525536
20
-12.836002434366909
30
0
10
-56.658485504122694
20
-11.992787051236586
30
0
10
-57.328936763263087
20
-11.188181628982614
30
0
10
-57.874740934464882
20
-10.126898385885386
30
0
10
-58.407877811986566
20
-9.0902459302160015
30
0
10
-58.817549089274294
20
-7.7260770054162968
30
0
10
-59.138015517715218
20
-6.0091952839307758
30
0
10
-59.724534058502805
20
-2.86695362420524
30
0
10
-60.038924830368039
20
1.349972837166344
30
0
10
-60.225543225570412
20
5.3915552898146304
30
0
10
-60.367799288719155
20
8.4723856012172263
30
0
10
-60.423292006941935
20
11.459668318579315
30
0
10
-60.253158471531961
20
13.699722989456776
30
0
10
-60.1517796689796
20
15.034521914537319
30
0
10
-59.956298997852414
20
16.078094782744618
30
0
10
-59.700863089576444
20
16.760953848494051
30
0
10
-59.527627391446316
20
17.224066367708801
30
0
10
-59.344483398057861
20
17.527846562957365
30
0
10
-59.104576091178778
20
17.802026342247739
30
0
0
SPLINE
5
106
100
AcDbEntity
8
0
100
AcDbSpline
70
1064
71
3
72
65
73
61
74
0
42
0.000000001
43
0.0000000001
44
0.0000000001
40
0
40
0
40
0
40
0
40
0.023033071314501132
40
0.023033071314501132
40
0.023033071314501132
40
0.058551125016155683
40
0.058551125016155683
40
0.058551125016155683
40
0.135911458742737
40
0.135911458742737
40
0.135911458742737
40
0.20038341052500935
40
0.20038341052500935
40
0.20038341052500935
40
0.24548584198074477
40
0.24548584198074477
40
0.24548584198074477
40
0.27499397440755152
40
0.27499397440755152
40
0.27499397440755152
40
0.30387020051164387
40
0.30387020051164387
40
0.30387020051164387
40
0.34545627310837956
40
0.34545627310837956
40
0.34545627310837956
40
0.41191648649555274
40
0.41191648649555274
40
0.41191648649555274
40
0.47022324974253804
40
0.47022324974253804
40
0.47022324974253804
40
0.51324829488312185
40
0.51324829488312185
40
0.51324829488312185
40
0.55701610161564274
40
0.55701610161564274
40
0.55701610161564274
40
0.62289663317250987
40
0.62289663317250987
40
0.62289663317250987
40
0.69899241220050001
40
0.69899241220050001
40
0.69899241220050001
40
0.76119783875811242
40
0.76119783875811242
40
0.76119783875811242
40
0.82432562214272931
40
0.82432562214272931
40
0.82432562214272931
40
0.91216281107136465
40
0.91216281107136465
40
0.91216281107136465
40
0.95608140553568233
40
0.95608140553568233
40
0.95608140553568233
40
0.98306227764187371
40
0.98306227764187371
40
0.98306227764187371
40
1
40
1
40
1
40
1
10
12.422419221602933
20
18.371264439795663
30
0
10
12.463292654434682
20
18.432574589043284
30
0
10
12.529395322249099
20
18.531275359339631
30
0
10
12.877300175115121
20
18.728071270006399
30
0
10
13.413785434872116
20
19.031539601601747
30
0
10
14.61713201127874
20
19.451899306381833
30
0
10
16.389982056738237
20
19.799402075098261
30
0
10
20.251349920978576
20
20.556282797916733
30
0
10
26.753152785771924
20
21.091995717130402
30
0
10
33.620054677688927
20
21.343345742728363
30
0
10
39.342917368974696
20
21.552820365577055
30
0
10
45.279064134986804
20
21.568735219409145
30
0
10
50.021485864761594
20
21.227564248200828
30
0
10
53.339126250827455
20
20.988892392948561
30
0
10
56.065791408451524
20
20.553202423286812
30
0
10
57.820212598159571
20
19.97885689658489
30
0
10
58.968037474277594
20
19.60309303389165
30
0
10
59.674179950534239
20
19.193639034535025
30
0
10
60.124505856092362
20
18.800561229929468
30
0
10
60.565188190078814
20
18.415901048860913
30
0
10
60.836397645787571
20
18.02518998192205
30
0
10
61.102779987514467
20
17.362689985961069
30
0
10
61.486410291613424
20
16.408591177202059
30
0
10
61.756192472769854
20
14.873996378579912
30
0
10
61.895656450146639
20
12.962828063441314
30
0
10
62.118538898945424
20
9.9085205486488341
30
0
10
62.10806360379695
20
5.9833307800630049
30
0
10
61.923670283546819
20
2.2301371684475142
30
0
10
61.761898644242621
20
-1.0626083732753115
30
0
10
61.43514779309757
20
-4.2195140956563559
30
0
10
60.814790569828503
20
-6.6718336730241106
30
0
10
60.35702381948812
20
-8.4814206684202293
30
0
10
59.754158548143067
20
-9.8814911314581817
30
0
10
58.954861992924386
20
-11.00031295371879
30
0
10
58.14176680530813
20
-12.138449523356908
30
0
10
57.086391350595079
20
-13.069823075730193
30
0
10
55.574692900157039
20
-13.928858803207945
30
0
10
53.299241948794858
20
-15.221903499243016
30
0
10
50.007775536790135
20
-16.257326954798096
30
0
10
46.249138645221102
20
-16.742170223883015
30
0
10
41.90769822893661
20
-17.302191908523604
30
0
10
36.994263480088009
20
-17.119624264269561
30
0
10
32.63601317565999
20
-15.961009734092402
30
0
10
29.073308086169177
20
-15.013886096143864
30
0
10
25.911131955951106
20
-13.426882340168349
30
0
10
23.351623966512648
20
-11.241676739699674
30
0
10
20.754164631050628
20
-9.0240697971690782
30
0
10
18.738640291708997
20
-6.1570287191631383
30
0
10
17.194825140503877
20
-2.8907129962902096
30
0
10
15.046731609623812
20
1.6541003310295466
30
0
10
13.773758210453497
20
6.8944242272871463
30
0
10
12.990764143112852
20
11.117823070909479
30
0
10
12.599267109442529
20
13.229522492720644
30
0
10
12.327256623562395
20
15.112923999542849
30
0
10
12.251964034650005
20
16.437075777512575
30
0
10
12.205708917955873
20
17.250552852686596
30
0
10
12.25303518051475
20
17.827280211375932
30
0
10
12.318830507901172
20
18.100535865925501
30
0
10
12.360134694932158
20
18.272076963312291
30
0
10
12.392362315701215
20
18.326179080943085
30
0
10
12.422419221602931
20
18.371264439795659
30
0
0
SPLINE
5
107
100
AcDbEntity
8
0
100
AcDbSpline
70
1064
71
3
72
53
73
49
74
0
42
0.000000001
43
0.0000000001
44
0.0000000001
40
0
40
0
40
0
40
0
40
0.02371255028267185
40
0.02371255028267185
40
0.02371255028267185
40
0.042281496380552314
40
0.042281496380552314
40
0.042281496380552314
40
0.05895837165566635
40
0.05895837165566635
40
0.05895837165566635
40
0.074361631756862459
40
0.074361631756862459
40
0.074361631756862459
40
0.086983074495119869
40
0.086983074495119869
40
0.086983074495119869
40
0.10138167295410858
40
0.10138167295410858
40
0.10138167295410858
40
0.12029655133832194
40
0.12029655133832194
40
0.12029655133832194
40
0.13076692952612107
40
0.13076692952612107
40
0.13076692952612107
40
0.1382862107755802
40
0.1382862107755802
40
0.1382862107755802
40
0.14420054028352255
40
0.14420054028352255
40
0.14420054028352255
40
0.14990806134655899
40
0.14990806134655899
40
0.14990806134655899
40
0.15897931188974346
40
0.15897931188974346
40
0.15897931188974346
40
0.16963151960865153
40
0.16963151960865153
40
0.16963151960865153
40
0.17699765093466768
40
0.17699765093466768
40
0.17699765093466768
40
0.18237807804551542
40
0.18237807804551542
40
0.18237807804551542
40
0.1847848464836363
40
0.1847848464836363
40
0.1847848464836363
40
0.1847848464836363
10
0.0266591258791379
20
29.899592791271445
30
0
10
5.9140037402105623
20
30.032234503880346
30
0
10
12.148522601758366
20
30.543667131700914
30
0
10
17.635692026929519
20
31.205028553752562
30
0
10
21.932612943124631
20
31.722930865013822
30
0
10
25.739969196801475
20
32.3171834106424
30
0
10
28.787887005446592
20
32.814630902429172
30
0
10
31.525239188798317
20
33.261391301900268
30
0
10
33.636771938714183
20
33.628297842248614
30
0
10
35.428641669039187
20
33.834746644218782
30
0
10
37.083666070693319
20
34.025428923834568
30
0
10
38.514089643386463
20
34.05978835028138
30
0
10
40.041138978037559
20
33.950030334069922
30
0
10
41.292404334148515
20
33.860094534273216
30
0
10
42.664575775739387
20
33.697257942087624
30
0
10
44.521272484601049
20
33.50638095754438
30
0
10
46.639400413826671
20
33.288627637856919
30
0
10
49.370484990223844
20
33.034361148761263
30
0
10
52.446915399400154
20
32.792448631002934
30
0
10
56.488302289437293
20
32.474657571959888
30
0
10
61.05877764592924
20
32.196829279552155
30
0
10
64.92042448270702
20
31.885881161983889
30
0
10
67.058048737406295
20
31.713755054610061
30
0
10
68.965435195516051
20
31.532466773386993
30
0
10
70.607586450902687
20
31.25335556465004
30
0
10
71.786894105500394
20
31.052912405794974
30
0
10
72.84113469503032
20
30.814180520010193
30
0
10
73.869222853242519
20
30.357969409953036
30
0
10
74.677870904719228
20
29.999134204758885
30
0
10
75.496964571632276
20
29.459195846674071
30
0
10
76.124757500724883
20
28.710991883566223
30
0
10
76.730598173147612
20
27.988950632203636
30
0
10
77.102159542972416
20
27.138227791723697
30
0
10
77.30079506035004
20
26.363434438918176
30
0
10
77.616496487468197
20
25.132016360058962
30
0
10
77.612597742610092
20
24.008432206043722
30
0
10
77.539476583958816
20
22.896291420596295
30
0
10
77.453611711536581
20
21.590324332281618
30
0
10
77.239577315340028
20
20.33836146931035
30
0
10
76.889847273531544
20
19.21044138420498
30
0
10
76.648004691731188
20
18.43047091316453
30
0
10
76.345252455292496
20
17.689083624482798
30
0
10
75.812847180357181
20
16.977598542517935
30
0
10
75.42396356581952
20
16.457910058218562
30
0
10
74.862017474423595
20
15.966917606761069
30
0
10
74.320889795883261
20
15.672554974878532
30
0
10
74.078832986846905
20
15.54088091310215
30
0
10
73.849611407391805
20
15.445729732981642
30
0
10
73.663968237087033
20
15.378409845094716
30
0
0
SPLINE
5
108
100
AcDbEntity
8
0
100
AcDbSpline
70
1064
71
3
72
56
73
52
74
0
42
0.000000001
43
0.0000000001
44
0.0000000001
40
0.20632070542872011
40
0.20632070542872011
40
0.20632070542872011
40
0.20632070542872011
40
0.21093343562959224
40
0.21093343562959224
40
0.21093343562959224
40
0.22966727378958093
40
0.22966727378958093
40
0.22966727378958093
40
0.25038581857811948
40
0.25038581857811948
40
0.25038581857811948
40
0.26683946388643121
40
0.26683946388643121
40
0.26683946388643121
40
0.28461563707916149
40
0.28461563707916149
40
0.28461563707916149
40
0.30287690767497805
40
0.30287690767497805
40
0.30287690767497805
40
0.32434749479736008
40
0.32434749479736008
40
0.32434749479736008
40
0.3431232486332273
40
0.3431232486332273
40
0.3431232486332273
40
0.36090065833918672
40
0.36090065833918672
40
0.36090065833918672
40
0.37599726623397622
40
0.37599726623397622
40
0.37599726623397622
40
0.39021350897216123
40
0.39021350897216123
40
0.39021350897216123
40
0.4082845067928032
40
0.4082845067928032
40
0.4082845067928032
40
0.42689146404814104
40
0.42689146404814104
40
0.42689146404814104
40
0.44456296604391388
40
0.44456296604391388
40
0.44456296604391388
40
0.45960228534897413
40
0.45960228534897413
40
0.45960228534897413
40
0.47036542787922941
40
0.47036542787922941
40
0.47036542787922941
40
0.47119461594679163
40
0.47119461594679163
40
0.47119461594679163
40
0.47119461594679163
10
73.663968237087147
20
15.378409845094659
30
0
10
73.611604497684908
20
15.153346196636688
30
0
10
73.55485574843776
20
14.830466351081284
30
0
10
73.505397513296458
20
14.427029027547354
30
0
10
73.304531099596204
20
12.788535294409733
30
0
10
73.267724501128427
20
9.8194943850004606
30
0
10
73.109918032284867
20
6.2601792040082955
30
0
10
72.935393177061144
20
2.3237818483712784
30
0
10
72.556826476534368
20
-2.322984188928745
30
0
10
71.396184541038068
20
-6.6557357808904349
30
0
10
70.474460021699585
20
-10.096593168837771
30
0
10
69.035814930287103
20
-13.331735536014717
30
0
10
67.098268534031504
20
-15.99382374982353
30
0
10
65.004984057345297
20
-18.869888005267665
30
0
10
62.362115527846775
20
-21.059639028477747
30
0
10
59.629190175200542
20
-22.596227102284452
30
0
10
56.821685497914309
20
-24.174747423045282
30
0
10
53.954333817606141
20
-25.106526095929116
30
0
10
51.273382637203675
20
-25.71238802594965
30
0
10
48.121269229340868
20
-26.424726813351462
30
0
10
45.236084640910931
20
-26.733554648845544
30
0
10
42.060129620895921
20
-26.787429960173039
30
0
10
39.282797575447283
20
-26.834543230879145
30
0
10
36.254157919801983
20
-26.660588286816903
30
0
10
33.311766967514657
20
-26.300984143187289
30
0
10
30.525828787285846
20
-25.960500866236131
30
0
10
27.884347992213293
20
-25.467036830007004
30
0
10
25.649927504954675
20
-24.743591844186202
30
0
10
23.752453658867868
20
-24.129241077396649
30
0
10
22.124052785928168
20
-23.295410044062304
30
0
10
20.767744402727203
20
-22.309008566975219
30
0
10
19.490529723920115
20
-21.380129514587949
30
0
10
18.393839308733412
20
-20.367037060014891
30
0
10
17.159829080581652
20
-19.14816029753521
30
0
10
15.591215168012269
20
-17.598783312065031
30
0
10
13.828329941675468
20
-15.704566628052273
30
0
10
12.024285573097318
20
-13.419014554540091
30
0
10
10.166735880156562
20
-11.06567634052557
30
0
10
8.3173719109088662
20
-8.2912657051344585
30
0
10
6.8473658432607323
20
-5.3553626402079955
30
0
10
5.4512635788354178
20
-2.5670606003158984
30
0
10
4.4189533494446183
20
0.34766521286619001
30
0
10
3.6830047390923721
20
2.897455591571739
30
0
10
3.0566761935137117
20
5.0674528943191905
30
0
10
2.6166972393498167
20
6.9728043856818376
30
0
10
2.230477697035647
20
8.2946118705123091
30
0
10
1.95407316717779
20
9.240585692080268
30
0
10
1.6914010245558877
20
9.8725972648823639
30
0
10
1.5507926204800682
20
10.112001308768102
30
0
10
1.5399602069418381
20
10.130444897706759
30
0
10
1.5299244871152695
20
10.146818184033322
30
0
10
1.5209531276993289
20
10.160947177974593
30
0
0
SPLINE
5
109
100
AcDbEntity
8
0
100
AcDbSpline
70
1064
71
3
72
14
73
10
74
0
42
0.000000001
43
0.0000000001
44
0.0000000001
40
0.48717662016833452
40
0.48717662016833452
40
0.48717662016833452
40
0.48717662016833452
40
0.49348226531664552
40
0.49348226531664552
40
0.49348226531664552
40
0.50458067242613125
40
0.50458067242613125
40
0.50458067242613125
40
0.51265830150491942
40
0.51265830150491942
40
0.51265830150491942
40
0.51265830150491942
10
1.520953127699324
20
10.160947177974592
30
0
10
1.4038063501358853
20
10.180835111171236
30
0
10
1.1898415380643814
20
10.201032331123914
30
0
10
0.92383970619472511
20
10.210819211382926
30
0
10
0.45565658574920115
20
10.228044852676017
30
0
10
-0.1663754669793952
20
10.223459686483626
30
0
10
-0.56505895128277539
20
10.193840197136847
30
0
10
-0.85522827686906655
20
10.172282576652563
30
0
10
-1.0024762364160673
20
10.134287684793822
30
0
10
-1.0328993778854327
20
10.123191538826976
30
0
0
SPLINE
5
110
100
AcDbEntity
8
0
100
AcDbSpline
70
1064
71
3
72
125
73
121
74
0
42
0.000000001
43
0.0000000001
44
0.0000000001
40
0.51867723414663303
40
0.51867723414663303
40
0.51867723414663303
40
0.51867723414663303
40
0.52623106644893081
40
0.52623106644893081
40
0.52623106644893081
40
0.53980874218668584
40
0.53980874218668584
40
0.53980874218668584
40
0.55768783138124023
40
0.55768783138124023
40
0.55768783138124023
40
0.57298392294068623
40
0.57298392294068623
40
0.57298392294068623
40
0.58537384576237417
40
0.58537384576237417
40
0.58537384576237417
40
0.59833091308230002
40
0.59833091308230002
40
0.59833091308230002
40
0.608956425787049
40
0.608956425787049
40
0.608956425787049
40
0.62146435123439603
40
0.62146435123439603
40
0.62146435123439603
40
0.63987370427802825
40
0.63987370427802825
40
0.63987370427802825
40
0.65516731175909293
40
0.65516731175909293
40
0.65516731175909293
40
0.66821623589335255
40
0.66821623589335255
40
0.66821623589335255
40
0.6816277413868348
40
0.6816277413868348
40
0.6816277413868348
40
0.69550399382172967
40
0.69550399382172967
40
0.69550399382172967
40
0.71453499420787159
40
0.71453499420787159
40
0.71453499420787159
40
0.72852638008435044
40
0.72852638008435044
40
0.72852638008435044
40
0.74350617224248094
40
0.74350617224248094
40
0.74350617224248094
40
0.76840447434543813
40
0.76840447434543813
40
0.76840447434543813
40
0.78287919469884826
40
0.78287919469884826
40
0.78287919469884826
40
0.79184095587484582
40
0.79184095587484582
40
0.79184095587484582
40
0.80065246481669017
40
0.80065246481669017
40
0.80065246481669017
40
0.81311168576564707
40
0.81311168576564707
40
0.81311168576564707
40
0.81856200981896066
40
0.81856200981896066
40
0.81856200981896066
40
0.8218660601153418
40
0.8218660601153418
40
0.8218660601153418
40
0.82483619770658045
40
0.82483619770658045
40
0.82483619770658045
40
0.82819079480343449
40
0.82819079480343449
40
0.82819079480343449
40
0.8334310494724374
40
0.8334310494724374
40
0.8334310494724374
40
0.84288082789871488
40
0.84288082789871488
40
0.84288082789871488
40
0.8499856260373162
40
0.8499856260373162
40
0.8499856260373162
40
0.85486460828227961
40
0.85486460828227961
40
0.85486460828227961
40
0.85866349603747583
40
0.85866349603747583
40
0.85866349603747583
40
0.86240894818869751
40
0.86240894818869751
40
0.86240894818869751
40
0.86797901424903412
40
0.86797901424903412
40
0.86797901424903412
40
0.87634488272381483
40
0.87634488272381483
40
0.87634488272381483
40
0.89087190739067801
40
0.89087190739067801
40
0.89087190739067801
40
0.90785892353268582
40
0.90785892353268582
40
0.90785892353268582
40
0.92170734799207732
40
0.92170734799207732
40
0.92170734799207732
40
0.94214096783425294
40
0.94214096783425294
40
0.94214096783425294
40
0.96363355885613056
40
0.96363355885613056
40
0.96363355885613056
40
0.98382480049181564
40
0.98382480049181564
40
0.98382480049181564
40
1
40
1
40
1
40
1
10
-1.0328993778854623
20
10.123191538826966
30
0
10
-1.0591143449234051
20
10.10164252964811
30
0
10
-1.1668661698548513
20
10.004326919349911
30
0
10
-1.3465955729637775
20
9.6990141277146797
30
0
10
-1.669651137119067
20
9.1502280390758077
30
0
10
-2.1297408461992
20
7.9686031094058629
30
0
10
-2.557676827407958
20
6.4730877645933145
30
0
10
-3.1211831097325051
20
4.5037925215660053
30
0
10
-3.6679726753165913
20
2.0499759061867513
30
0
10
-4.271899819444041
20
-0.13877650085598603
30
0
10
-4.7885774192527499
20
-2.0113191597561202
30
0
10
-5.371137681802141
20
-3.7027076870685449
30
0
10
-6.0237988512828284
20
-5.0558655440959672
30
0
10
-6.5524581814883023
20
-6.1519312514025497
30
0
10
-7.0857494957691367
20
-6.9945813831775521
30
0
10
-7.5464073979544031
20
-7.7519247468649608
30
0
10
-8.0281517587523794
20
-8.5439352451402026
30
0
10
-8.4500568714500552
20
-9.2823402811509297
30
0
10
-9.0286462651623172
20
-10.429319751381955
30
0
10
-9.5031216076087013
20
-11.369906431385079
30
0
10
-10.092347982103957
20
-12.622216163233634
30
0
10
-10.979529263582473
20
-14.060517267378172
30
0
10
-12.023883323039335
20
-15.753627377108332
30
0
10
-13.50570922678658
20
-17.625603913627931
30
0
10
-15.372567171185041
20
-19.293246429465086
30
0
10
-18.120236808761135
20
-21.747707799086445
30
0
10
-21.654158864136505
20
-23.760574775217428
30
0
10
-25.021198237667459
20
-25.131175037402919
30
0
10
-27.818373044952942
20
-26.269803992675183
30
0
10
-30.460573663643377
20
-26.978878382894447
30
0
10
-32.601142671996016
20
-27.351322654834295
30
0
10
-34.427534687661655
20
-27.669102292817023
30
0
10
-35.904206671010883
20
-27.734612746189828
30
0
10
-37.100979018324132
20
-27.710321988940812
30
0
10
-38.33100524464718
20
-27.685356281351883
30
0
10
-39.260452774958281
20
-27.60880897530842
30
0
10
-40.543642093838692
20
-27.563641312200389
30
0
10
-41.871297584804907
20
-27.516908460658414
30
0
10
-43.604022498662651
20
-27.496151164370623
30
0
10
-45.732504901045886
20
-27.34592633283869
30
0
10
-48.651675592967543
20
-27.139896005824539
30
0
10
-52.3047783663866
20
-26.67661999407812
30
0
10
-55.930525758563185
20
-25.262551212967374
30
0
10
-58.59613606938634
20
-24.222943122432653
30
0
10
-61.221640676946301
20
-22.636041994915477
30
0
10
-63.394389853797819
20
-20.45705999434459
30
0
10
-65.720630539911738
20
-18.124146173439108
30
0
10
-67.487524524392498
20
-15.146797181254017
30
0
10
-68.665642487787096
20
-11.939325467384707
30
0
10
-70.623822992287501
20
-6.6081033198689685
30
0
10
-71.013363137531272
20
-0.65760005604514504
30
0
10
-71.130773315877661
20
3.9984510768272625
30
0
10
-71.199030158901763
20
6.7052636868125042
30
0
10
-71.20256836042887
20
8.9731389317424775
30
0
10
-71.358031600235662
20
10.480660828934823
30
0
10
-71.454283851939238
20
11.414015731852976
30
0
10
-71.606758949819692
20
12.03131411370272
30
0
10
-71.743303905883963
20
12.361873474143856
30
0
10
-71.877559559175253
20
12.686890700460779
30
0
10
-71.966254804675117
20
12.806215792060517
30
0
10
-72.245551778793939
20
13.058584153480757
30
0
10
-72.640469690571379
20
13.415425779156152
30
0
10
-73.455304757184862
20
13.897048040436047
30
0
10
-74.238327006892305
20
14.311084307559396
30
0
10
-74.580862468727702
20
14.492205730390852
30
0
10
-74.9030294498709
20
14.647927828685489
30
0
10
-75.333060587024576
20
14.927887237025438
30
0
10
-75.593750500554023
20
15.097601910327828
30
0
10
-75.92479179359843
20
15.320710720409664
30
0
10
-76.294388615022186
20
15.760873573935783
30
0
10
-76.62663337961169
20
16.156552852473613
30
0
10
-76.940615991025282
20
16.770499188632769
30
0
10
-77.05585453928424
20
17.327359352476684
30
0
10
-77.186009755182482
20
17.956300413825097
30
0
10
-77.12856182509698
20
18.423936206714302
30
0
10
-77.080322807960869
20
18.747333442949
30
0
10
-77.004968085030725
20
19.252515981475252
30
0
10
-76.919056584981305
20
19.5386309371018
30
0
10
-76.834835154175039
20
19.897263267909334
30
0
10
-76.6829582111381
20
20.543986810312184
30
0
10
-76.514982215598934
20
21.360152166112716
30
0
10
-76.388358403312836
20
22.20224059895353
30
0
10
-76.293156528173483
20
22.835363203558551
30
0
10
-76.226850097743551
20
23.44125561456601
30
0
10
-76.1580117356595
20
24.025755981066574
30
0
10
-76.11073929528493
20
24.427142038023888
30
0
10
-76.073095507975893
20
24.82558523249212
30
0
10
-75.930624184428765
20
25.372565598779438
30
0
10
-75.819692736164427
20
25.798457088334796
30
0
10
-75.622458147368462
20
26.354544629348915
30
0
10
-75.214563519950104
20
26.899633304450532
30
0
10
-74.812406386550691
20
27.437054697850055
30
0
10
-74.2247640935622
20
27.874869285535503
30
0
10
-73.710272275354242
20
28.11925375407078
30
0
10
-72.945143447320405
20
28.482691218735155
30
0
10
-72.348719939598013
20
28.5613783722481
30
0
10
-71.755744426594731
20
28.638564844311631
30
0
10
-70.865134674966185
20
28.754493787760609
30
0
10
-69.908150810821695
20
28.806007258307375
30
0
10
-68.679430908601134
20
28.885158465578627
30
0
10
-66.545803732650143
20
29.022601642447562
30
0
10
-63.648751356439533
20
29.221394966221389
30
0
10
-60.357073789771789
20
29.538764074508926
30
0
10
-56.507986916062777
20
29.90987614247096
30
0
10
-52.177570827686885
20
30.436493995601978
30
0
10
-48.277786512024043
20
30.946179503332431
30
0
10
-45.098542549935637
20
31.361693398936321
30
0
10
-42.229085630523748
20
31.757152718595805
30
0
10
-39.833860792629146
20
32.032552187004278
30
0
10
-36.299659922516192
20
32.438909463147688
30
0
10
-33.686213378791273
20
32.55966029585926
30
0
10
-31.106311649774607
20
32.38096403902847
30
0
10
-28.392706661198762
20
32.193006858907246
30
0
10
-25.740893307864702
20
31.724509667545675
30
0
10
-22.433685747659915
20
31.24999922221923
30
0
10
-19.326725450528382
20
30.804219788251025
30
0
10
-15.624947647395672
20
30.352352731616303
30
0
10
-11.301066460475568
20
30.094580533184221
30
0
10
-7.8372061338025656
20
29.888079278207748
30
0
10
-3.9893143807678166
20
29.809113018367213
30
0
10
0.026659125879159723
20
29.899592791271445
30
0
0
ENDSEC
0
SECTION
2
OBJECTS
0
DICTIONARY
5
C
100
AcDbDictionary
3
ACAD_GROUP
350
D
3
ACAD_MLINESTYLE
350
17
0
DICTIONARY
5
D
100
AcDbDictionary
0
DICTIONARY
5
1A
330
C
100
AcDbDictionary
0
DICTIONARY
5
17
100
AcDbDictionary
0
ENDSEC
0
EOF
