<?xml version="1.0" standalone="no"?>
<!DOCTYPE svg PUBLIC "-//W3C//DTD SVG 1.1//EN"
  "http://www.w3.org/Graphics/SVG/1.1/DTD/svg11.dtd">
<svg width="142.45226287841797mm" height="89mm" viewBox="-71.2300033569336 -44 142.45226287841797 89" xmlns="http://www.w3.org/2000/svg" version="1.1">
	<title>svgOutput</title>
	<desc>made with tinkercad</desc>
<path d="M -57.026268005371094 15.304100036621094 L -56.952857971191406 15.4146089553833 L -56.73967361450195 15.735523223876953 L -56.72893524169922 15.749484062194824 L -56.719356536865234 15.761940002441406 L -56.66670608520508 15.83039379119873 L -56.251338958740234 16.384000778198242 L -56.139461517333984 16.53311538696289 L -56.097354888916016 16.582021713256836 L -56.015403747558594 16.677209854125977 L -55.969810485839844 16.73016929626465 L -55.7771110534668 16.953994750976562 L -55.69535827636719 17.049272537231445 L -55.49025344848633 17.288312911987305 L -55.29600143432617 17.483118057250977 L -55.02870178222656 17.751178741455078 L -54.870323181152344 17.908056259155273 L -54.78532791137695 17.99224853515625 L -54.529319763183594 18.216901779174805 L -54.28123092651367 18.43199920654297 L -54.03559494018555 18.644969940185547 L -53.77493667602539 18.839893341064453 L -53.5123291015625 19.036272048950195 L -53.24800109863281 19.23091697692871 L -53.23691177368164 19.23908042907715 L -52.8881950378418 19.462541580200195 L -52.54145431518555 19.687185287475586 L -52.40103530883789 19.77815818786621 L -51.98297119140625 20.00142478942871 L -51.574859619140625 20.219377517700195 L -51.52021026611328 20.249465942382812 L -51.48638153076172 20.265417098999023 L -51.20000076293945 20.40029525756836 L -51.03076934814453 20.479999542236328 L -50.679935455322266 20.645233154296875 L -50.618553161621094 20.674142837524414 L -50.22047805786133 20.824512481689453 L -49.94454574584961 20.932178497314453 L -49.91539001464844 20.94355583190918 L -49.745548248291016 21.009824752807617 L -49.680450439453125 21.03522491455078 L -49.158714294433594 21.209516525268555 L -49.152000427246094 21.211801528930664 L -48.72849655151367 21.355913162231445 L -48.56108474731445 21.403980255126953 L -48.16330337524414 21.518190383911133 L -47.76274490356445 21.63907241821289 L -47.617767333984375 21.674821853637695 L -47.104000091552734 21.801513671875 L -46.806766510009766 21.87480926513672 L -46.78785705566406 21.879594802856445 L -46.787139892578125 21.879777908325195 L -46.78664016723633 21.87990379333496 L -46.78604507446289 21.880054473876953 L -46.76443862915039 21.88422966003418 L -45.49656677246094 22.13125228881836 L -45.055999755859375 22.21708869934082 L -44.811485290527344 22.264728546142578 L -44.19200897216797 22.35295867919922 L -44.00014114379883 22.385889053344727 L -43.931785583496094 22.396215438842773 L -43.816001892089844 22.413705825805664 L -43.66483688354492 22.435810089111328 L -43.57759094238281 22.435806274414062 L -43.007999420166016 22.499473571777344 L -42.813289642333984 22.521236419677734 L -42.744632720947266 22.527999877929688 L -42.62800979614258 22.539487838745117 L -42.226043701171875 22.564790725708008 L -40.969749450683594 22.633867263793945 L -40.959999084472656 22.634401321411133 L -40.38237380981445 22.66598129272461 L -39.84669494628906 22.679323196411133 L -39.794090270996094 22.680633544921875 L -39.657325744628906 22.679819107055664 L -38.9119987487793 22.681772232055664 L -38.37581253051758 22.683176040649414 L -37.957637786865234 22.66726303100586 L -37.83401107788086 22.662559509277344 L -37.70707702636719 22.656482696533203 L -36.965538024902344 22.624574661254883 L -36.86399841308594 22.6173095703125 L -36.32854461669922 22.578994750976562 L -35.91300582885742 22.54926109313965 L -35.76591873168945 22.540000915527344 L -35.71517562866211 22.535499572753906 L -35.625831604003906 22.527999877929688 L -35.530029296875 22.51995849609375 L -35.144676208496094 22.487613677978516 L -35.04931640625 22.476436614990234 L -34.816001892089844 22.449092864990234 L -33.81156921386719 22.331371307373047 L -33.80280303955078 22.33055877685547 L -33.76424789428711 22.326988220214844 L -33.760780334472656 22.3266658782959 L -33.6984977722168 22.31610679626465 L -32.768001556396484 22.162120819091797 L -31.486915588378906 21.950117111206055 L -31.196605682373047 21.902074813842773 L -31.12710189819336 21.89287567138672 L -31.02028465270996 21.872089385986328 L -30.77849006652832 21.82503890991211 L -30.719999313354492 21.81159019470215 L -30.260366439819336 21.705902099609375 L -29.541763305664062 21.548749923706055 L -29.456789016723633 21.530166625976562 L -28.814029693603516 21.372596740722656 L -28.672000885009766 21.33301544189453 L -28.328079223632812 21.237171173095703 L -27.93164825439453 21.126693725585938 L -27.87162971496582 21.108736038208008 L -27.71338653564453 21.061386108398438 L -26.88231658935547 20.80860710144043 L -26.879552841186523 20.80776596069336 L -26.874753952026367 20.806306838989258 L -26.624000549316406 20.7221622467041 L -26.49341583251953 20.6783447265625 L -26.123828887939453 20.554325103759766 L -25.91889190673828 20.479999542236328 L -25.532926559448242 20.34001922607422 L -25.15360450744629 20.206405639648438 L -25.08883285522461 20.18269920349121 L -24.978654861450195 20.142370223999023 L -24.901283264160156 20.109540939331055 L -24.8071346282959 20.06959342956543 L -24.576000213623047 19.964200973510742 L -24.20313835144043 19.7941837310791 L -23.506181716918945 19.488462448120117 L -23.140113830566406 19.327884674072266 L -22.628223419189453 19.058956146240234 L -22.527999877929688 19.009923934936523 L -22.398387908935547 18.946517944335938 L -22.24989128112793 18.866958618164062 L -22.1046199798584 18.781818389892578 L -21.5213623046875 18.43199920654297 L -21.391647338867188 18.354202270507812 L -20.707792282104492 17.882492065429688 L -20.57158851623535 17.78423309326172 L -20.479999542236328 17.712244033813477 L -20.349769592285156 17.60988426208496 L -19.786588668823242 17.167232513427734 L -19.717681884765625 17.104589462280273 L -19.579341888427734 16.97882652282715 L -19.079368591308594 16.533140182495117 L -19.04268455505371 16.500438690185547 L -18.928070068359375 16.384000778198242 L -18.63345718383789 16.084699630737305 L -18.43199920654297 15.882099151611328 L -18.340087890625 15.789664268493652 L -18.24031639099121 15.676952362060547 L -18.064193725585938 15.477983474731445 L -17.9589786529541 15.359999656677246 L -17.929790496826172 15.327269554138184 L -17.67527198791504 15.041864395141602 L -17.113277435302734 14.336000442504883 L -17.05027198791504 14.256863594055176 L -16.623960494995117 13.665111541748047 L -16.543785095214844 13.553823471069336 L -16.497650146484375 13.486355781555176 L -16.384000778198242 13.320160865783691 L -16.347553253173828 13.266861915588379 L -15.77804946899414 12.415909767150879 L -15.697737693786621 12.288000106811523 L -15.528169631958008 12.017932891845703 L -15.247832298278809 11.543802261352539 L -14.969412803649902 11.072256088256836 L -14.72560977935791 10.65933609008789 L -14.4942045211792 10.239999771118164 L -14.469266891479492 10.194808959960938 L -14.336000442504883 9.945633888244629 L -13.955629348754883 9.234436988830566 L -13.635054588317871 8.59030532836914 L -13.630513191223145 8.581180572509766 L -13.446239471435547 8.192000389099121 L -13.091626167297363 7.44306755065918 L -12.839393615722656 6.910577297210693 L -12.50339412689209 6.144000053405762 L -12.36645793914795 5.8315839767456055 L -12.288000106811523 5.643466472625732 L -12.043126106262207 5.05633544921875 L -11.662267684936523 4.0960001945495605 L -11.608725547790527 3.960993528366089 L -11.38526439666748 3.3717548847198486 L -11.335516929626465 3.2359886169433594 L -11.23579216003418 2.963827610015869 L -11.182661056518555 2.81882905960083 L -10.989983558654785 2.2618160247802734 L -10.916800498962402 2.0480000972747803 L -10.650006294250488 1.268516182899475 L -10.510400772094727 0.8713537454605103 L -10.457798957824707 0.7100167274475098 L -10.404685974121094 0.5312523245811462 L -10.303449630737305 0.16556124389171606 L -10.254533767700195 4.440892164675075e-17 L -10.239999771118164 -0.049191292375326115 L -9.97459602355957 -0.9474831819534302 L -9.922131538391113 -1.1250544786453247 L -9.891963958740234 -1.2271581888198853 L -9.745783805847168 -1.7966903448104858 L -9.67979907989502 -2.0480000972747803 L -9.639254570007324 -2.202416181564331 L -9.603204727172852 -2.3534388542175293 L -9.437485694885254 -3.047666549682617 L -9.39406681060791 -3.236466884613037 L -9.376033782958984 -3.314880847930908 L -9.203968048095703 -4.0960001945495605 L -9.197717666625977 -4.124377250671387 L -9.19595718383789 -4.1323676109313965 L -9.194934844970703 -4.1370110511779785 L -9.191436767578125 -4.15564489364624 L -9.126989364624023 -4.487534046173096 L -8.925204277038574 -5.526666164398193 L -8.830971717834473 -6.144000053405762 L -8.828071594238281 -6.16300106048584 L -8.819404602050781 -6.219783782958984 L -8.81586742401123 -6.242951393127441 L -8.81264591217041 -6.273073673248291 L -8.793960571289062 -6.447748184204102 L -8.777332305908203 -6.6031999588012695 L -8.739715576171875 -6.9295525550842285 L -8.721301078796387 -7.0893073081970215 L -8.700348854064941 -7.271087169647217 L -8.673434257507324 -7.7124223709106445 L -8.67333984375 -7.71396017074585 L -8.67308521270752 -7.718135833740234 L -8.668924331665039 -7.835090637207031 L -8.659025192260742 -8.192000389099121 L -8.641191482543945 -8.834938049316406 L -8.638980865478516 -8.914642333984375 L -8.639416694641113 -8.968244552612305 L -8.644217491149902 -9.558371543884277 L -8.645495414733887 -9.863698959350586 L -8.656278610229492 -10.027856826782227 L -8.669730186462402 -10.239999771118164 L -8.670035362243652 -10.24482250213623 L -8.672014236450195 -10.26738452911377 L -8.684534072875977 -10.410185813903809 L -8.729820251464844 -10.926692962646484 L -8.743532180786133 -11.083090782165527 L -8.74361515045166 -11.084035873413086 L -8.763299942016602 -11.263999938964844 L -8.76443862915039 -11.274410247802734 L -8.767629623413086 -11.32185173034668 L -8.775927543640137 -11.400465965270996 L -8.780296325683594 -11.419380187988281 L -8.802495956420898 -11.515496253967285 L -8.872364044189453 -11.870086669921875 L -8.913507461547852 -12.078892707824707 L -8.918122291564941 -12.102315902709961 L -8.981470108032227 -12.288000106811523 L -9.048371315002441 -12.484100341796875 L -9.139503479003906 -12.757912635803223 L -9.165233612060547 -12.80953598022461 L -9.270584106445312 -13.020906448364258 L -9.413544654846191 -13.312000274658203 L -9.446714401245117 -13.379539489746094 L -9.4525146484375 -13.391349792480469 L -9.706151962280273 -13.753080368041992 L -9.878389358520508 -14.001070976257324 L -9.885919570922852 -14.011913299560547 L -10.123112678527832 -14.27407455444336 L -10.178624153137207 -14.336000442504883 L -10.239999771118164 -14.404468536376953 L -10.319289207458496 -14.492919921875 L -10.45413589477539 -14.643349647521973 L -10.576316833496094 -14.76266098022461 L -11.053324699401855 -15.198281288146973 L -11.130596160888672 -15.268848419189453 L -11.250788688659668 -15.359999656677246 L -11.58316421508789 -15.612068176269531 L -11.902335166931152 -15.861329078674316 L -12.288000106811523 -16.121475219726562 L -12.654924392700195 -16.368980407714844 L -12.677105903625488 -16.384000778198242 L -12.729728698730469 -16.419633865356445 L -12.732017517089844 -16.420982360839844 L -12.807698249816895 -16.46558380126953 L -13.427597999572754 -16.842483520507812 L -13.586311340332031 -16.9378662109375 L -14.336000442504883 -17.315961837768555 L -14.353360176086426 -17.324718475341797 L -14.509151458740234 -17.401588439941406 L -14.716858863830566 -17.48898696899414 L -15.099541664123535 -17.647729873657227 L -15.519000053405762 -17.82832908630371 L -15.653617858886719 -17.877567291259766 L -16.06664276123047 -18.028640747070312 L -16.17217254638672 -18.06723976135254 L -16.384000778198242 -18.14694595336914 L -16.637069702148438 -18.242170333862305 L -16.727764129638672 -18.270458221435547 L -16.998811721801758 -18.354999542236328 L -17.193391799926758 -18.42036247253418 L -17.23239517211914 -18.43199920654297 L -17.56873893737793 -18.532360076904297 L -18.39044952392578 -18.77754783630371 L -18.43199920654297 -18.789945602416992 L -18.773908615112305 -18.891965866088867 L -19.43201446533203 -19.072185516357422 L -19.46932029724121 -19.082401275634766 L -20.216394424438477 -19.268993377685547 L -20.479999542236328 -19.3348331451416 L -20.51295280456543 -19.343063354492188 L -21.499269485473633 -19.561433792114258 L -22.16021156311035 -19.71500015258789 L -22.472951889038086 -19.775312423706055 L -22.527999877929688 -19.786104202270508 L -23.642560958862305 -20.004596710205078 L -23.801342010498047 -20.031496047973633 L -24.576000213623047 -20.162731170654297 L -24.691417694091797 -20.182283401489258 L -25.099815368652344 -20.25614356994629 L -26.24179458618164 -20.425687789916992 L -26.660959243774414 -20.479999542236328 L -27.311229705810547 -20.56425666809082 L -27.59233856201172 -20.607135772705078 L -27.813167572021484 -20.635705947875977 L -28.013158798217773 -20.65789031982422 L -28.341838836669922 -20.685874938964844 L -28.672000885009766 -20.719497680664062 L -29.617300033569336 -20.815763473510742 L -29.7821102142334 -20.831674575805664 L -30.10240364074707 -20.86259651184082 L -30.719999313354492 -20.908411026000977 L -30.849119186401367 -20.91798973083496 L -31.37906837463379 -20.95547103881836 L -31.847286224365234 -20.975797653198242 L -32.768001556396484 -21.015966415405273 L -34.749263763427734 -21.102407455444336 L -34.816001892089844 -21.10470199584961 L -35.173709869384766 -21.117000579833984 L -35.343074798583984 -21.124225616455078 L -36.184120178222656 -21.13188934326172 L -36.86399841308594 -21.138498306274414 L -37.02193069458008 -21.140033721923828 L -37.78187561035156 -21.126657485961914 L -38.3416862487793 -21.115381240844727 L -38.9119987487793 -21.103891372680664 L -39.04191589355469 -21.101274490356445 L -39.80481719970703 -21.087121963500977 L -39.8972053527832 -21.084043502807617 L -40.21928024291992 -21.07331657409668 L -40.458595275878906 -21.0640869140625 L -40.959999084472656 -21.04120635986328 L -41.227474212646484 -21.02899932861328 L -41.9955940246582 -20.983232498168945 L -42.234554290771484 -20.97195816040039 L -42.34678649902344 -20.962308883666992 L -42.47311782836914 -20.951446533203125 L -42.481178283691406 -20.95079231262207 L -43.007999420166016 -20.908113479614258 L -44.00782775878906 -20.827112197875977 L -44.246280670166016 -20.804595947265625 L -44.44761276245117 -20.781673431396484 L -44.97333908081055 -20.721811294555664 L -45.055999755859375 -20.712400436401367 L -45.974979400634766 -20.60776138305664 L -46.06671142578125 -20.597610473632812 L -46.18367385864258 -20.584665298461914 L -46.25199890136719 -20.577104568481445 L -46.458866119384766 -20.547691345214844 L -46.95289611816406 -20.479999542236328 L -47.104000091552734 -20.45929527282715 L -47.458648681640625 -20.410703659057617 L -47.63385009765625 -20.383237838745117 L -48.179229736328125 -20.297739028930664 L -48.24800109863281 -20.28656768798828 L -48.305816650390625 -20.276016235351562 L -48.322872161865234 -20.272903442382812 L -48.52198028564453 -20.236562728881836 L -49.152000427246094 -20.12457275390625 L -50.02901840209961 -19.968679428100586 L -50.23273849487305 -19.930957794189453 L -50.441558837890625 -19.88516616821289 L -51.03562927246094 -19.754892349243164 L -51.20000076293945 -19.714630126953125 L -51.35394287109375 -19.676921844482422 L -51.886390686035156 -19.535808563232422 L -52.3666877746582 -19.41124153137207 L -53.16731262207031 -19.203596115112305 L -53.24800109863281 -19.178529739379883 L -54.08450698852539 -18.918655395507812 L -54.331565856933594 -18.849308013916016 L -54.4825439453125 -18.80232048034668 L -54.64213943481445 -18.751497268676758 L -55.29600143432617 -18.52287483215332 L -55.55590057373047 -18.43199920654297 L -55.71284866333008 -18.37712287902832 L -56.53325271606445 -18.04549789428711 L -56.60609817504883 -18.015052795410156 L -56.66332244873047 -17.99113655090332 L -57.1763916015625 -17.776290893554688 L -57.290924072265625 -17.72395896911621 L -57.34400177001953 -17.695749282836914 L -57.62279510498047 -17.547571182250977 L -58.40739059448242 -17.1376895904541 L -58.61531448364258 -17.02504539489746 L -58.66477584838867 -16.99376678466797 L -59.08567428588867 -16.72760772705078 L -59.313377380371094 -16.564727783203125 L -59.391998291015625 -16.51068687438965 L -59.576316833496094 -16.384000778198242 L -59.63791275024414 -16.341665267944336 L -59.748130798339844 -16.253738403320312 L -59.780338287353516 -16.228044509887695 L -59.86012649536133 -16.16439437866211 L -60.173728942871094 -15.916864395141602 L -60.19523620605469 -15.897058486938477 L -60.2327995300293 -15.862468719482422 L -60.369873046875 -15.736242294311523 L -60.37504196166992 -15.73148250579834 L -60.41600036621094 -15.693760871887207 L -60.69234848022461 -15.439242362976074 L -60.76644515991211 -15.359999656677246 L -61.19635009765625 -14.900242805480957 L -61.2730827331543 -14.792656898498535 L -61.439998626708984 -14.55863094329834 L -61.46524429321289 -14.523235321044922 L -61.60022735595703 -14.336000442504883 L -61.62728500366211 -14.29847240447998 L -61.65874481201172 -14.25483226776123 L -61.66371154785156 -14.244975090026855 L -61.837799072265625 -13.89941120147705 L -61.89229202270508 -13.791238784790039 L -62.058746337890625 -13.460415840148926 L -62.0711555480957 -13.421072959899902 L -62.07426834106445 -13.41120433807373 L -62.10556411743164 -13.312000274658203 L -62.188575744628906 -13.048864364624023 L -62.37297058105469 -12.472000122070312 L -62.3753662109375 -12.456768989562988 L -62.384090423583984 -12.40127944946289 L -62.40190505981445 -12.288000106811523 L -62.50909423828125 -11.606396675109863 L -62.567115783691406 -11.244999885559082 L -62.56833267211914 -11.229684829711914 L -62.574710845947266 -11.149394989013672 L -62.586402893066406 -11.002225875854492 L -62.599220275878906 -10.840895652770996 L -62.64841079711914 -10.239999771118164 L -62.678348541259766 -9.874242782592773 L -62.679893493652344 -9.825439453125 L -62.7063102722168 -8.99131965637207 L -62.7245979309082 -8.453438758850098 L -62.724796295166016 -8.192000389099121 L -62.726036071777344 -6.574418544769287 L -62.73077392578125 -6.325098037719727 L -62.72874450683594 -6.144000053405762 L -62.72651672363281 -5.945151329040527 L -62.72534942626953 -5.840864181518555 L -62.72666549682617 -5.750699520111084 L -62.72816848754883 -5.647891521453857 L -62.72677230834961 -5.611122131347656 L -62.721099853515625 -5.4616007804870605 L -62.707645416259766 -5.106877326965332 L -62.69783401489258 -4.848223686218262 L -62.686370849609375 -4.53474760055542 L -62.68428421020508 -4.475364685058594 L -62.67094802856445 -4.0960001945495605 L -62.65911865234375 -3.7593863010406494 L -62.65715026855469 -3.7355716228485107 L -62.64359664916992 -3.571438789367676 L -62.56835174560547 -2.812535285949707 L -62.492549896240234 -2.0480000972747803 L -62.475982666015625 -1.8808960914611816 L -62.40732955932617 -1.2208322286605835 L -62.36487579345703 -0.9416387677192688 L -62.33636474609375 -0.7541221380233765 L -62.22169876098633 4.440892164675075e-17 L -62.029327392578125 1.2651677131652832 L -61.93819808959961 1.7624419927597046 L -61.88612365722656 2.0480000972747803 L -61.81101608276367 2.4598851203918457 L -61.804439544677734 2.49231219291687 L -61.68558883666992 3.0781052112579346 L -61.58224105834961 3.5697238445281982 L -61.57045364379883 3.617737293243408 L -61.497562408447266 3.914585590362549 L -61.49648666381836 3.918966770172119 L -61.45493698120117 4.0960001945495605 L -61.439998626708984 4.1596479415893555 L -61.268550872802734 4.89018440246582 L -61.188533782958984 5.231119155883789 L -61.08292007446289 5.61897611618042 L -60.94919204711914 6.144000053405762 L -60.897621154785156 6.346482276916504 L -60.869598388671875 6.455082416534424 L -60.83464813232422 6.586337089538574 L -60.74528884887695 6.86981725692749 L -60.54497146606445 7.5513787269592285 L -60.50010299682617 7.714521884918213 L -60.4835319519043 7.760418891906738 L -60.36531448364258 8.0878267288208 L -60.3302116394043 8.192000389099121 L -59.902034759521484 9.46256160736084 L -59.64377975463867 10.140936851501465 L -59.60475158691406 10.239999771118164 L -59.583763122558594 10.293269157409668 L -59.53974533081055 10.404999732971191 L -59.391998291015625 10.762274742126465 L -59.37953567504883 10.7924165725708 L -59.355308532714844 10.851630210876465 L -59.1569709777832 11.336379051208496 L -59.08586120605469 11.507756233215332 L -58.7484016418457 12.25684928894043 L -58.73264694213867 12.288000106811523 L -58.3104248046875 13.122681617736816 L -58.29291915893555 13.156082153320312 L -58.00914764404297 13.686820030212402 L -57.98210906982422 13.737386703491211 L -57.81725311279297 14.040656089782715 L -57.63813400268555 14.336000442504883 L -57.36750030517578 14.782238006591797 L -57.34400177001953 14.821419715881348 L -57.296104431152344 14.901276588439941 L -57.28751754760742 14.914118766784668 L -57.261192321777344 14.953490257263184 L -57.21918487548828 15.01630973815918 L -57.026268005371094 15.304100036621094 M -4.969274520874023 -4.691999912261963 L -5.031000137329102 -4.494566440582275 L -5.152890682220459 -4.0960001945495605 L -5.188034534454346 -3.981083869934082 L -5.198397159576416 -3.9471993446350098 L -5.24641752243042 -3.79017972946167 L -5.4511003494262695 -3.178766965866089 L -5.508505821228027 -3.0157134532928467 L -5.814917087554932 -2.145388603210449 L -6.197490215301514 -1.0574254989624023 L -6.206593990325928 -1.032878041267395 L -6.501460075378418 -0.23779156804084772 L -6.58659029006958 4.440892164675075e-17 L -6.669565677642822 0.23177275061607366 L -7.033866882324219 1.1766515970230103 L -7.064421653747559 1.254636287689209 L -7.12047815322876 1.3959587812423706 L -7.346218109130859 1.9599965810775757 L -7.761027812957764 2.94283390045166 L -7.819296360015869 3.076648712158203 L -8.161484718322754 3.8624868392944336 L -8.184344291687012 3.913942575454712 L -8.192000389099121 3.930490255355835 L -8.21144962310791 3.9725306034088135 L -8.268921852111816 4.0960001945495605 L -9.147428512573242 5.983333110809326 L -9.223676681518555 6.144000053405762 L -9.245355606079102 6.189682960510254 L -9.726076126098633 7.1517510414123535 L -9.91874885559082 7.531431674957275 L -10.268346786499023 8.192000389099121 L -10.409406661987305 8.458535194396973 L -10.536748886108398 8.701289176940918 L -10.567997932434082 8.758194923400879 L -10.598868370056152 8.814414024353027 L -10.999943733215332 9.540273666381836 L -11.325850486755371 10.10575008392334 L -11.414097785949707 10.258867263793945 L -11.568329811096191 10.529080390930176 L -11.60757064819336 10.599513053894043 L -11.649707794189453 10.667671203613281 L -12.288000106811523 11.700108528137207 L -12.577069282531738 12.16767692565918 L -12.651456832885742 12.288000106811523 L -12.721139907836914 12.400711059570312 L -12.761008262634277 12.47028636932373 L -12.8040189743042 12.534769058227539 L -13.303436279296875 13.283500671386719 L -13.33761978149414 13.334024429321289 L -13.392220497131348 13.418999671936035 L -13.452263832092285 13.508448600769043 L -14.029571533203125 14.336000442504883 L -14.042140007019043 14.354015350341797 L -14.067187309265137 14.387805938720703 L -14.183821678161621 14.539551734924316 L -14.336000442504883 14.742457389831543 L -14.727771759033203 15.264819145202637 L -15.294783592224121 15.97020435333252 L -15.44165325164795 16.15123176574707 L -15.528692245483398 16.251985549926758 L -15.643782615661621 16.384000778198242 L -16.189062118530273 17.00946807861328 L -16.384000778198242 17.214365005493164 L -16.880332946777344 17.736051559448242 L -16.97271728515625 17.832225799560547 L -17.012920379638672 17.869977951049805 L -17.60369110107422 18.43199920654297 L -17.691383361816406 18.515426635742188 L -17.795000076293945 18.61400032043457 L -18.615137100219727 19.312353134155273 L -18.65671730041504 19.348224639892578 L -18.700902938842773 19.3809757232666 L -18.972347259521484 19.58757972717285 L -19.559246063232422 20.02840232849121 L -19.682857513427734 20.108808517456055 L -20.174062728881836 20.428325653076172 L -20.254596710205078 20.479999542236328 L -20.46200942993164 20.61308479309082 L -20.479999542236328 20.624786376953125 L -20.507999420166016 20.64299964904785 L -20.57845687866211 20.68366241455078 L -21.491640090942383 21.20243263244629 L -21.820545196533203 21.36623764038086 L -22.434520721435547 21.672016143798828 L -22.507999420166016 21.70800018310547 L -22.527999877929688 21.71701431274414 L -22.581192016601562 21.740985870361328 L -22.958324432373047 21.910320281982422 L -23.978445053100586 22.33577537536621 L -24.14349365234375 22.40460968017578 L -24.463191986083984 22.527999877929688 L -24.530683517456055 22.554048538208008 L -24.576000213623047 22.570587158203125 L -24.78974723815918 22.64859962463379 L -25.352575302124023 22.845117568969727 L -25.437973022460938 22.874935150146484 L -25.67931365966797 22.95920181274414 L -27.03602409362793 23.36174201965332 L -27.291290283203125 23.436716079711914 L -27.35380744934082 23.454296112060547 L -28.672000885009766 23.785036087036133 L -28.903076171875 23.843015670776367 L -28.97599983215332 23.860000610351562 L -30.036849975585938 24.080732345581055 L -30.145538330078125 24.101713180541992 L -31.214000701904297 24.29199981689453 L -32.2862663269043 24.45279312133789 L -32.395973205566406 24.467750549316406 L -32.768001556396484 24.513431549072266 L -33.27754592895508 24.576000213623047 L -33.472999572753906 24.600000381469727 L -33.563541412353516 24.6092529296875 L -34.608001708984375 24.708637237548828 L -36.1788330078125 24.803421020507812 L -36.2873649597168 24.809785842895508 L -36.53300094604492 24.817468643188477 L -36.54175567626953 24.81772804260254 L -36.86399841308594 24.825761795043945 L -38 24.854076385498047 L -38 24.861000061035156 L -38 24.863353729248047 L -38 28.672000885009766 L -38 32.768001556396484 L -38 44 L -42 44 L -42 32.768001556396484 L -42 28.672000885009766 L -42 24.678659439086914 L -42 24.67799949645996 L -42.018157958984375 24.676366806030273 L -42.0375862121582 24.674522399902344 L -42.06557083129883 24.67144203186035 L -42.93272399902344 24.576000213623047 L -43.007999420166016 24.56771469116211 L -43.65407180786133 24.496604919433594 L -43.76373291015625 24.48174476623535 L -44.83599853515625 24.31999969482422 L -44.89044189453125 24.31009292602539 L -45.055999755859375 24.27727699279785 L -47.01689910888672 23.888607025146484 L -48.068233489990234 23.62601089477539 L -48.14914321899414 23.607702255249023 L -48.217628479003906 23.588695526123047 L -48.381919860839844 23.543102264404297 L -49.152000427246094 23.320463180541992 L -49.22734069824219 23.298681259155273 L -49.27012252807617 23.286312103271484 L -50.14857482910156 22.997827529907227 L -50.29750061035156 22.947240829467773 L -50.349998474121094 22.93000030517578 L -51.407291412353516 22.53388786315918 L -51.415000915527344 22.5310001373291 L -51.42202377319336 22.527999877929688 L -51.465702056884766 22.509340286254883 L -51.92726516723633 22.31536102294922 L -52.4619255065918 22.086952209472656 L -52.98173904418945 21.830373764038086 L -53.24800109863281 21.69690704345703 L -53.424705505371094 21.60833168029785 L -53.4739990234375 21.583999633789062 L -53.47930908203125 21.580961227416992 L -54.45399856567383 21.023000717163086 L -55.26417541503906 20.479999542236328 L -55.29600143432617 20.45867156982422 L -55.39099884033203 20.395000457763672 L -56.28200149536133 19.70400047302246 L -57.125 18.95400047302246 L -57.34400177001953 18.73140525817871 L -57.91699981689453 18.14900016784668 L -58.654998779296875 17.292999267578125 L -59.340999603271484 16.392000198364258 L -59.34645080566406 16.384000778198242 L -59.391998291015625 16.31717300415039 L -59.97665786743164 15.459373474121094 L -59.98099899291992 15.45300006866455 L -60.009944915771484 15.405941009521484 L -60.19216537475586 15.113450050354004 L -60.579105377197266 14.48435115814209 L -60.66202163696289 14.336000442504883 L -60.939422607421875 13.839670181274414 L -61.09286117553711 13.571112632751465 L -61.1324577331543 13.500046730041504 L -61.13825225830078 13.489591598510742 L -61.168251037597656 13.430254936218262 L -61.439998626708984 12.89277172088623 L -61.553653717041016 12.667975425720215 L -61.628517150878906 12.519909858703613 L -61.74008560180664 12.288000106811523 L -61.7421875 12.2836332321167 L -61.78014373779297 12.199102401733398 L -62.501182556152344 10.593364715576172 L -62.5621452331543 10.447847366333008 L -62.58399963378906 10.397000312805176 L -62.59700393676758 10.364645957946777 L -62.605567932128906 10.34333324432373 L -63.005252838134766 9.336999893188477 L -63.0240364074707 9.28493881225586 L -63.40716552734375 8.19527816772461 L -63.40831756591797 8.192000389099121 L -63.7442741394043 7.2364983558654785 L -63.770809173583984 7.156406879425049 L -63.78556442260742 7.110123634338379 L -64.0860366821289 6.144000053405762 L -64.10160827636719 6.093932151794434 L -64.39643096923828 5.077570915222168 L -64.41643524169922 5.00861930847168 L -64.41996002197266 4.996007919311523 L -64.42231750488281 4.9870524406433105 L -64.64515686035156 4.0960001945495605 L -64.74862670898438 3.6822407245635986 L -64.96002960205078 2.836906671524048 L -64.97892761230469 2.7559010982513428 L -65.12645721435547 2.0480000972747803 L -65.42229461669922 0.6284912824630737 L -65.43900299072266 0.546999990940094 L -65.53067779541016 4.440892164675075e-17 L -65.53600311279297 -0.03175835311412807 L -65.8091049194336 -1.661281704902649 L -65.8189697265625 -1.7167423963546753 L -65.82209777832031 -1.7359470129013062 L -65.82830810546875 -1.7741037607192993 L -65.84940338134766 -1.930755615234375 L -66.01173400878906 -3.0886294841766357 L -66.13774871826172 -4.0960001945495605 L -66.16266632080078 -4.295141696929932 L -66.16468048095703 -4.311246871948242 L -66.17143249511719 -4.3729681968688965 L -66.4122543334961 -6.510928630828857 L -66.42831420898438 -6.65355920791626 L -66.44380187988281 -6.795176982879639 L -66.59882354736328 -8.192000389099121 L -66.63179016113281 -8.489022254943848 L -66.63314056396484 -8.501191139221191 L -69.06339263916016 -11.251689910888672 L -69.63200378417969 -11.89522647857666 L -69.97904205322266 -12.288000106811523 L -70.05747985839844 -12.376775741577148 L -70.1114501953125 -12.438026428222656 L -70.1925277709961 -12.527198791503906 L -70.2300033569336 -12.572144508361816 L -70.2128677368164 -13.054632186889648 L -70.21212005615234 -13.074440002441406 L -70.21037292480469 -13.120451927185059 L -70.15091705322266 -14.388886451721191 L -70.1489486694336 -14.423097610473633 L -70.0571060180664 -16.384000778198242 L -70.0566635131836 -16.39349365234375 L -70.04296112060547 -16.684284210205078 L -70.01934051513672 -17.190383911132812 L -69.96295928955078 -18.398391723632812 L -69.86641693115234 -20.40748405456543 L -69.86280822753906 -20.41213035583496 L -69.85740661621094 -20.416404724121094 L -69.77555084228516 -20.43848991394043 L -69.63200378417969 -20.477428436279297 L -69.62252044677734 -20.479999542236328 L -67.23153686523438 -21.12859535217285 L -67.11256408691406 -21.16086769104004 L -66.92508697509766 -21.208009719848633 L -66.90357208251953 -21.21331214904785 L -65.53600311279297 -21.550289154052734 L -64.41300964355469 -21.82699966430664 L -64.39651489257812 -21.830490112304688 L -63.08962631225586 -22.107065200805664 L -63.01900100708008 -22.121999740600586 L -62.911861419677734 -22.143596649169922 L -62.73228073120117 -22.179590225219727 L -61.620235443115234 -22.396440505981445 L -61.439998626708984 -22.4276065826416 L -60.73249435424805 -22.549945831298828 L -59.39693832397461 -22.7808895111084 L -59.035587310791016 -22.84241485595703 L -58.887794494628906 -22.867733001708984 L -58.85009765625 -22.873998641967773 L -58.81999969482422 -22.878999710083008 L -58.7421875 -22.891460418701172 L -57.34400177001953 -23.096250534057617 L -54.896018981933594 -23.45479965209961 L -54.80863952636719 -23.467113494873047 L -54.650997161865234 -23.487897872924805 L -53.24800109863281 -23.66884994506836 L -52.37961959838867 -23.78084945678711 L -52.213035583496094 -23.802335739135742 L -49.96803283691406 -24.053050994873047 L -49.765811920166016 -24.075876235961914 L -49.152000427246094 -24.138750076293945 L -47.57370376586914 -24.3004150390625 L -47.40756607055664 -24.31580924987793 L -46.4695930480957 -24.387914657592773 L -45.055999755859375 -24.496482849121094 L -44.02068328857422 -24.576000213623047 L -43 -24.65439224243164 L -43 -24.655536651611328 L -43 -24.661334991455078 L -43 -28.672000885009766 L -43 -32.768001556396484 L -43 -43 L -39 -43 L -39 -32.768001556396484 L -39 -28.672000885009766 L -39 -24.8691349029541 L -39 -24.866416931152344 L -39 -24.858224868774414 L -39 -24.826400756835938 L -37.4763069152832 -24.85908317565918 L -37.36261749267578 -24.86153793334961 L -37.36170196533203 -24.861539840698242 L -37.302730560302734 -24.86166000366211 L -37.164127349853516 -24.861270904541016 L -36.86399841308594 -24.8599853515625 L -34.99001693725586 -24.851959228515625 L -33.905460357666016 -24.8175048828125 L -33.849998474121094 -24.81599998474121 L -33.83442306518555 -24.815248489379883 L -32.768001556396484 -24.76382064819336 L -31.67977523803711 -24.711341857910156 L -31.568830490112305 -24.70639419555664 L -31.547977447509766 -24.704986572265625 L -30.49311065673828 -24.63373565673828 L -29.7789363861084 -24.576000213623047 L -29.419279098510742 -24.546924591064453 L -28.672000885009766 -24.473730087280273 L -27.81041717529297 -24.389341354370117 L -27.62049674987793 -24.374011993408203 L -27.618244171142578 -24.373830795288086 L -27.558414459228516 -24.367036819458008 L -27.393138885498047 -24.348468780517578 L -27.235107421875 -24.33071517944336 L -25.43359375 -24.11227798461914 L -25.22225570678711 -24.081466674804688 L -24.576000213623047 -23.982112884521484 L -22.616849899291992 -23.680919647216797 L -22.558435440063477 -23.671939849853516 L -22.367210388183594 -23.638256072998047 L -22.100027084350586 -23.591196060180664 L -22.046756744384766 -23.580991744995117 L -20.64251708984375 -23.312028884887695 L -20.479999542236328 -23.278316497802734 L -20.23404884338379 -23.227294921875 L -20.222171783447266 -23.22483253479004 L -20.136018753051758 -23.204532623291016 L -17.902999877929688 -22.68600082397461 L -17.451902389526367 -22.5688419342041 L -16.617000579833984 -22.34810447692871 L -16.384000778198242 -22.281604766845703 L -15.709383964538574 -22.08906364440918 L -15.218999862670898 -21.94739532470703 L -15.14867877960205 -21.9260196685791 L -14.980317115783691 -21.874149322509766 L -12.375428199768066 -21.071027755737305 L -12.288000106811523 -21.0440731048584 L -10.458449363708496 -20.479999542236328 L -10.417000770568848 -20.467220306396484 L -10.398916244506836 -20.461366653442383 L -10.30325698852539 -20.43040657043457 L -10.257185935974121 -20.415647506713867 L -10.173190116882324 -20.388553619384766 L -8.59210205078125 -19.87657356262207 L -8.192000389099121 -19.74701499938965 L -6.6985931396484375 -19.263427734375 L -6.669651985168457 -19.254056930541992 L -6.663354873657227 -19.25371742248535 L -4.6822710037231445 -19.279735565185547 L -4.398794174194336 -19.284137725830078 L -4.0960001945495605 -19.289310455322266 L -3.391226291656494 -19.30135154724121 L -2.351853609085083 -19.319108963012695 L -1.2513096332550049 -19.331727981567383 L -0.5338128805160522 -19.334115982055664 L -0.004000000189989805 -19.335878372192383 L 0 -19.335847854614258 L 1.544914960861206 -19.32436752319336 L 1.849411129951477 -19.32210350036621 L 2.2701478004455566 -19.31752586364746 L 2.3804595470428467 -19.316486358642578 L 3.1584863662719727 -19.306529998779297 L 4.0960001945495605 -19.290143966674805 L 5.201596736907959 -19.270822525024414 L 5.574005603790283 -19.26108169555664 L 5.610553741455078 -19.2601261138916 L 5.6611833572387695 -19.260028839111328 L 5.810959815979004 -19.25821876525879 L 6.6281938552856445 -19.24834442138672 L 6.6326446533203125 -19.248291015625 L 6.640223026275635 -19.247756958007812 L 7.177836894989014 -19.422513961791992 L 7.828566074371338 -19.63404083251953 L 8.192000389099121 -19.750816345214844 L 9.447442054748535 -20.154205322265625 L 10.47576904296875 -20.479999542236328 L 12.288000106811523 -21.05415153503418 L 12.996283531188965 -21.278549194335938 L 13.260988235473633 -21.36241340637207 L 13.69445514678955 -21.49358367919922 L 13.902215003967285 -21.555356979370117 L 15.2223482131958 -21.955196380615234 L 15.460082054138184 -22.021785736083984 L 15.613424301147461 -22.064159393310547 L 16.128684997558594 -22.206546783447266 L 16.384000778198242 -22.276844024658203 L 17.35531234741211 -22.544281005859375 L 17.50324058532715 -22.585010528564453 L 18.11830711364746 -22.73455238342285 L 19.037673950195312 -22.96381950378418 L 19.09600067138672 -22.97800064086914 L 19.151655197143555 -22.990285873413086 L 19.243310928344727 -23.00954246520996 L 20.314777374267578 -23.2460880279541 L 20.479999542236328 -23.277734756469727 L 20.930871963500977 -23.364093780517578 L 22.413766860961914 -23.648122787475586 L 22.486949920654297 -23.661252975463867 L 22.78435707092285 -23.70928382873535 L 24.576000213623047 -23.993345260620117 L 24.74447250366211 -24.020055770874023 L 25.847068786621094 -24.17245864868164 L 25.8740234375 -24.175968170166016 L 25.88783073425293 -24.177574157714844 L 26.034883499145508 -24.19450569152832 L 28.062517166137695 -24.41812515258789 L 28.33807945251465 -24.448514938354492 L 28.672000885009766 -24.48068618774414 L 28.694520950317383 -24.48285675048828 L 28.84568977355957 -24.497421264648438 L 29.739700317382812 -24.576000213623047 L 29.865339279174805 -24.58704376220703 L 30.458406448364258 -24.6319580078125 L 31.099140167236328 -24.675273895263672 L 31.52414321899414 -24.70400619506836 L 31.644094467163086 -24.71022605895996 L 32.672855377197266 -24.762592315673828 L 32.768001556396484 -24.766511917114258 L 33.428802490234375 -24.793731689453125 L 34.42587661743164 -24.834802627563477 L 34.824546813964844 -24.843366622924805 L 35.0117301940918 -24.847389221191406 L 35.09953689575195 -24.848012924194336 L 35.106407165527344 -24.848031997680664 L 35.640289306640625 -24.8486270904541 L 36.86399841308594 -24.856517791748047 L 37 -24.85739517211914 L 37 -25.222000122070312 L 37 -28.672000885009766 L 37 -32.768001556396484 L 37 -43 L 41 -43 L 41 -32.768001556396484 L 41 -28.672000885009766 L 41 -24.77117347717285 L 41 -24.762495040893555 L 42.311519622802734 -24.703392028808594 L 42.42563247680664 -24.697494506835938 L 44.23087692260742 -24.576000213623047 L 45.055999755859375 -24.52046775817871 L 45.12580871582031 -24.515769958496094 L 45.38573455810547 -24.49639129638672 L 48.35542297363281 -24.221210479736328 L 48.71323776245117 -24.185123443603516 L 49.152000427246094 -24.13644027709961 L 52.083221435546875 -23.811208724975586 L 52.137939453125 -23.805391311645508 L 52.19900131225586 -23.79800033569336 L 52.419921875 -23.768667221069336 L 53.24800109863281 -23.66356658935547 L 53.275169372558594 -23.660118103027344 L 54.83371353149414 -23.462305068969727 L 55.6879997253418 -23.33474349975586 L 57.34400177001953 -23.08747100830078 L 59.35480499267578 -22.78721809387207 L 59.37681579589844 -22.783931732177734 L 59.51100158691406 -22.76300048828125 L 59.61598587036133 -22.746721267700195 L 60.24938201904297 -22.636018753051758 L 60.91634750366211 -22.519142150878906 L 61.439998626708984 -22.427377700805664 L 61.612754821777344 -22.397104263305664 L 62.522315979003906 -22.219865798950195 L 63.012001037597656 -22.121999740600586 L 64.3344955444336 -21.837520599365234 L 64.4687728881836 -21.80721664428711 L 65.53600311279297 -21.554595947265625 L 65.77510070800781 -21.49799919128418 L 65.86382293701172 -21.475223541259766 L 68.52593994140625 -20.780675888061523 L 68.63516235351562 -20.750988006591797 L 69.61749267578125 -20.479999542236328 L 69.63200378417969 -20.475997924804688 L 69.8491439819336 -20.416095733642578 L 69.85614776611328 -20.40709686279297 L 69.90023040771484 -19.55413818359375 L 69.9778060913086 -17.956701278686523 L 70.05203247070312 -16.384000778198242 L 70.06739807128906 -16.058368682861328 L 70.10275268554688 -15.2512788772583 L 70.11295318603516 -15.032145500183105 L 70.21671295166016 -12.688484191894531 L 70.21949005126953 -12.636624336242676 L 70.22225952148438 -12.57036018371582 L 70.22195434570312 -12.570018768310547 L 70.220458984375 -12.568317413330078 L 70.22027587890625 -12.568105697631836 L 70.13565063476562 -12.472451210021973 L 69.97217559814453 -12.288000106811523 L 69.63200378417969 -11.904176712036133 L 68.11013793945312 -10.187029838562012 L 67.517333984375 -9.518157958984375 L 67.4301528930664 -9.419379234313965 L 66.8895263671875 -8.804192543029785 L 66.774658203125 -8.673486709594727 L 66.69547271728516 -8.583381652832031 L 66.67807006835938 -8.562606811523438 L 66.63340759277344 -8.498716354370117 L 66.6175765991211 -8.450736045837402 L 66.58822631835938 -8.192000389099121 L 66.52526092529297 -7.63701057434082 L 66.43833923339844 -6.767745494842529 L 66.4232406616211 -6.632900714874268 L 66.2986068725586 -5.540943622589111 L 66.29605865478516 -5.518614292144775 L 66.28023529052734 -5.396213531494141 L 66.13352966308594 -4.240150451660156 L 66.115234375 -4.0960001945495605 L 65.8226318359375 -1.7902967929840088 L 65.71156311035156 -1.0862826108932495 L 65.64640808105469 -0.6732773780822754 L 65.63400268554688 -0.5950000286102295 L 65.6187515258789 -0.512343168258667 L 65.53600311279297 -0.07087579369544979 L 65.52271270751953 4.440892164675075e-17 L 65.21533966064453 1.6398038864135742 L 65.12300109863281 2.0480000972747803 L 64.85569763183594 3.2296526432037354 L 64.83200073242188 3.3380000591278076 L 64.824951171875 3.3655846118927 L 64.63827514648438 4.0960001945495605 L 64.57858276367188 4.329560279846191 L 64.40799713134766 4.997000217437744 L 64.1082992553711 6.040724754333496 L 64.0774154663086 6.144000053405762 L 64.0765380859375 6.14693546295166 L 63.41337585449219 8.192000389099121 L 63.4067268371582 8.212501525878906 L 63.33847427368164 8.406291007995605 L 63.32270812988281 8.447686195373535 L 62.787445068359375 9.853078842163086 L 62.63359451293945 10.257028579711914 L 62.59739685058594 10.345521926879883 L 62.56602478027344 10.42244815826416 L 62.56339645385742 10.428638458251953 L 62.35989761352539 10.90828800201416 L 61.881568908691406 11.973517417907715 L 61.73333740234375 12.288000106811523 L 61.644187927246094 12.477131843566895 L 61.439998626708984 12.880300521850586 L 61.14240646362305 13.467896461486816 L 61.122222900390625 13.506007194519043 L 60.657493591308594 14.336000442504883 L 60.59096145629883 14.454825401306152 L 60.57405471801758 14.485013961791992 L 60.49534225463867 14.613447189331055 L 60.28164291381836 14.957722663879395 L 59.97641372680664 15.453975677490234 L 59.649166107177734 15.93486499786377 L 59.391998291015625 16.30733871459961 L 59.36503219604492 16.346397399902344 L 59.33944320678711 16.384000778198242 L 59.33399963378906 16.392000198364258 L 59.32921600341797 16.398271560668945 L 58.64699935913086 17.292999267578125 L 57.90999984741211 18.14900016784668 L 57.34400177001953 18.72429084777832 L 57.23863220214844 18.831388473510742 L 57.11800003051758 18.95400047302246 L 56.315940856933594 19.66757583618164 L 56.27545928955078 19.704261779785156 L 55.44195556640625 20.349946975708008 L 55.382999420166016 20.395000457763672 L 55.29600143432617 20.453310012817383 L 55.25617599487305 20.479999542236328 L 54.44599914550781 21.023000717163086 L 53.46699905395508 21.583999633789062 L 53.24800109863281 21.692096710205078 L 52.45199966430664 22.084999084472656 L 51.41502380371094 22.527999877929688 L 51.40800094604492 22.5310001373291 L 50.34199905395508 22.93000030517578 L 50.13588333129883 22.999217987060547 L 49.26295852661133 23.286149978637695 L 49.152000427246094 23.318572998046875 L 48.21113204956055 23.593502044677734 L 48.17097473144531 23.60496711730957 L 48.162010192871094 23.607206344604492 L 47.58914566040039 23.745702743530273 L 46.00310134887695 24.104393005371094 L 45.92180252075195 24.120954513549805 L 45.404048919677734 24.21845245361328 L 45.055999755859375 24.276384353637695 L 44.253292083740234 24.409988403320312 L 43.67451095581055 24.493303298950195 L 43.59189987182617 24.50157928466797 L 43.007999420166016 24.56298828125 L 42.884281158447266 24.576000213623047 L 42 24.66900062561035 L 42 24.850000381469727 L 42 32.768001556396484 L 42 44 L 38 44 L 38 32.768001556396484 L 38 28.672000885009766 L 38 24.854000091552734 L 36.87699890136719 24.834999084472656 L 36.86399841308594 24.834320068359375 L 36.7321891784668 24.82743263244629 L 34.599998474121094 24.70850944519043 L 33.53718566894531 24.607378005981445 L 33.410072326660156 24.593250274658203 L 33.2835578918457 24.576000213623047 L 32.768001556396484 24.505706787109375 L 31.260780334472656 24.300207138061523 L 31.15151023864746 24.28228759765625 L 29.031896591186523 23.873138427734375 L 29.022197723388672 23.871267318725586 L 28.967885971069336 23.86034393310547 L 28.87692642211914 23.838869094848633 L 28.672000885009766 23.786314010620117 L 26.85068130493164 23.319225311279297 L 26.734580993652344 23.28584098815918 L 26.689071655273438 23.272306442260742 L 26.67699432373047 23.268712997436523 L 24.680238723754883 22.61236000061035 L 24.597312927246094 22.58420181274414 L 24.576000213623047 22.575822830200195 L 23.72100067138672 22.239641189575195 L 23.53964614868164 22.167495727539062 L 22.750112533569336 21.822418212890625 L 22.49772834777832 21.711029052734375 L 22.25140953063965 21.588233947753906 L 21.534292221069336 21.226573944091797 L 21.485000610351562 21.20199966430664 L 21.480512619018555 21.199451446533203 L 20.500999450683594 20.64299964904785 L 20.479999542236328 20.62933921813965 L 20.25041389465332 20.479999542236328 L 19.554000854492188 20.027000427246094 L 18.649999618530273 19.347999572753906 L 17.788000106811523 18.61400032043457 L 17.59501838684082 18.43199920654297 L 16.968700408935547 17.841320037841797 L 16.962032318115234 17.834976196289062 L 16.953325271606445 17.825939178466797 L 16.384000778198242 17.223493576049805 L 16.18154525756836 17.009260177612305 L 15.8146333694458 16.59187126159668 L 15.640593528747559 16.384000778198242 L 15.066411972045898 15.69820499420166 L 14.995558738708496 15.610831260681152 L 14.811283111572266 15.383588790893555 L 14.719239234924316 15.268669128417969 L 14.71708869934082 15.265983581542969 L 14.709953308105469 15.256361961364746 L 14.685901641845703 15.22252368927002 L 14.684613227844238 15.22074031829834 L 14.045431137084961 14.336000442504883 L 13.38322639465332 13.419392585754395 L 12.648087501525879 12.288000106811523 L 12.303021430969238 11.756937980651855 L 12.288000106811523 11.733530044555664 L 12.1992826461792 11.59528636932373 L 12.147422790527344 11.506048202514648 L 12.147075653076172 11.506144523620605 L 12.074155807495117 11.380622863769531 L 11.934918403625488 11.152688026428223 L 11.19483757019043 9.898380279541016 L 11.018360137939453 9.58722972869873 L 10.877074241638184 9.321930885314941 L 10.405003547668457 8.467586517333984 L 10.258502006530762 8.192000389099121 L 10.086644172668457 7.868715763092041 L 10.00229549407959 7.710045337677002 L 9.871833801269531 7.458067417144775 L 9.81615924835205 7.350536346435547 L 9.507043838500977 6.733240604400635 L 9.39538860321045 6.509251117706299 L 9.371840476989746 6.462012767791748 L 9.358682632446289 6.43152379989624 L 9.332538604736328 6.376163482666016 L 9.222140312194824 6.144000053405762 L 8.394604682922363 4.403729438781738 L 8.358614921569824 4.320775985717773 L 8.31505012512207 4.221569061279297 L 8.259908676147461 4.0960001945495605 L 8.192000389099121 3.941357135772705 L 7.712033271789551 2.8483707904815674 L 7.5617756843566895 2.484116554260254 L 7.3087639808654785 1.870766520500183 L 7.0992350578308105 1.3628275394439697 L 7.085567474365234 1.3293232917785645 L 7.072662830352783 1.2976895570755005 L 7.054203510284424 1.2465883493423462 L 6.586274147033691 0.012234114110469863 L 6.581646919250488 4.440892164675075e-17 L 6.269371032714844 -0.8256053328514099 L 6.15867280960083 -1.160528302192688 L 5.849053859710693 -2.022620677947998 L 5.532305717468262 -2.9321234226226807 L 5.519498348236084 -2.9688971042633057 L 5.293437480926514 -3.618002414703369 L 5.28777551651001 -3.634261131286621 L 5.239417552947998 -3.79017972946167 L 5.143467426300049 -4.0960001945495605 L 5.017867088317871 -4.496322154998779 L 5.007262706756592 -4.53012228012085 L 4.963944911956787 -4.6921000480651855 L 4.920549392700195 -4.889148235321045 L 4.750335216522217 -5.576222896575928 L 4.719187259674072 -5.796590805053711 L 4.664684295654297 -6.144000053405762 L 4.659989833831787 -6.173921585083008 L 4.614794731140137 -6.461999893188477 L 4.611384391784668 -6.5202202796936035 L 4.607476234436035 -6.586934566497803 L 4.60042667388916 -6.70728063583374 L 4.581193923950195 -7.179259300231934 L 4.573432445526123 -7.369729518890381 L 4.596048831939697 -8.00080680847168 L 4.595333099365234 -8.179340362548828 L 4.595282554626465 -8.192000389099121 L 4.595110893249512 -8.234710693359375 L 4.6013875007629395 -8.459091186523438 L 4.671362400054932 -9.215999603271484 L 4.709513187408447 -9.628669738769531 L 4.711870193481445 -9.652114868164062 L 4.712343692779541 -9.686850547790527 L 4.753262042999268 -10.109949111938477 L 4.756307601928711 -10.16137409210205 L 4.755566596984863 -10.179566383361816 L 4.755320072174072 -10.185611724853516 L 4.746291160583496 -10.196446418762207 L 4.745595932006836 -10.197711944580078 L 4.729438781738281 -10.201295852661133 L 4.554948806762695 -10.239999771118164 L 4.0960001945495605 -10.341801643371582 L 2.430361270904541 -10.711265563964844 L 2.353736400604248 -10.729596138000488 L 2.2890000343322754 -10.743000030517578 L 1.1790000200271606 -10.897000312805176 L 0 -10.965766906738281 L -0.004000000189989805 -10.965999603271484 L -0.875703752040863 -10.915156364440918 L -1.187000036239624 -10.897000312805176 L -2.2960000038146973 -10.743000030517578 L -2.3427677154541016 -10.733820915222168 L -3.611982583999634 -10.472176551818848 L -3.6845719814300537 -10.454842567443848 L -4.0960001945495605 -10.356012344360352 L -4.578953266143799 -10.239999771118164 L -4.606342315673828 -10.233421325683594 L -4.754000186920166 -10.197951316833496 L -4.754464149475098 -10.195525169372559 L -4.755531311035156 -10.193099975585938 L -4.758655071258545 -10.189351081848145 L -4.760583400726318 -10.187037467956543 L -4.7624688148498535 -10.184775352478027 L -4.759255409240723 -10.14699649810791 L -4.75621223449707 -10.11121654510498 L -4.747919082641602 -10.01370620727539 L -4.7469658851623535 -9.985227584838867 L -4.746062278747559 -9.95822525024414 L -4.741792678833008 -9.830645561218262 L -4.704880714416504 -9.507683753967285 L -4.689953804016113 -9.377082824707031 L -4.684796333312988 -9.331954956054688 L -4.681676387786865 -9.304658889770508 L -4.679882526397705 -9.269588470458984 L -4.675660133361816 -9.215999603271484 L -4.644765853881836 -8.823882102966309 L -4.600802898406982 -8.265891075134277 L -4.600103378295898 -8.243011474609375 L -4.599827766418457 -8.233983039855957 L -4.6000237464904785 -8.201774597167969 L -4.5998053550720215 -8.192000389099121 L -4.598623752593994 -8.139131546020508 L -4.582981109619141 -7.439046859741211 L -4.581432342529297 -7.369729518890381 L -4.58991003036499 -7.228708267211914 L -4.595006942749023 -7.1439313888549805 L -4.60553503036499 -6.885568141937256 L -4.6227946281433105 -6.461999893188477 L -4.635650634765625 -6.379463195800781 L -4.672325134277344 -6.144000053405762 L -4.726436614990234 -5.796590805053711 L -4.757558345794678 -5.576222896575928 L -4.766914367675781 -5.536711692810059 L -4.830080032348633 -5.269959449768066 L -4.9211201667785645 -4.885493755340576 L -4.963394641876221 -4.715627193450928 L -4.969274520874023 -4.691999912261963 M 48.34273910522461 21.455524444580078 L 48.637359619140625 21.376989364624023 L 48.688480377197266 21.363361358642578 L 48.71933364868164 21.35513687133789 L 48.903255462646484 21.29161262512207 L 49.152000427246094 21.208515167236328 L 49.154056549072266 21.207828521728516 L 49.295772552490234 21.160486221313477 L 49.53776931762695 21.07964324951172 L 49.56681823730469 21.06993865966797 L 49.67291259765625 21.034496307373047 L 50.06157684326172 20.881776809692383 L 50.34721755981445 20.77314567565918 L 50.61217498779297 20.675537109375 L 50.79713439941406 20.58656120300293 L 50.79717254638672 20.586544036865234 L 51.02861404418945 20.479999542236328 L 51.20000076293945 20.40110206604004 L 51.51858901977539 20.254438400268555 L 51.7674446105957 20.119783401489258 L 51.91593551635742 20.0394344329834 L 51.978546142578125 20.005558013916016 L 52.21461486816406 19.87782096862793 L 52.39331817626953 19.77815818786621 L 52.88019561767578 19.462541580200195 L 52.890419006347656 19.45599937438965 L 53.13252258300781 19.301040649414062 L 53.22932815551758 19.23908042907715 L 53.24800109863281 19.22550392150879 L 53.4556884765625 19.07447052001953 L 53.68996047973633 18.899280548095703 L 54.02903747558594 18.645719528198242 L 54.27520751953125 18.43199920654297 L 54.56929016113281 18.17668342590332 L 54.75785446166992 18.00951385498047 L 54.77732849121094 17.99224853515625 L 55.06986618041992 17.698877334594727 L 55.29600143432617 17.473743438720703 L 55.36203384399414 17.408000946044922 L 55.48225402832031 17.288312911987305 L 55.50418472290039 17.2626953125 L 55.90214157104492 16.79789924621582 L 56.08559799194336 16.58513832092285 L 56.13080978393555 16.532703399658203 L 56.242496490478516 16.384000778198242 L 56.58609390258789 15.92652702331543 L 56.70604705810547 15.7686767578125 L 56.731380462646484 15.735339164733887 L 56.75059509277344 15.707778930664062 L 57.28993606567383 14.901668548583984 L 57.316043853759766 14.858055114746094 L 57.34400177001953 14.811352729797363 L 57.6285514831543 14.336000442504883 L 57.78868103027344 14.06849479675293 L 57.79579544067383 14.056638717651367 L 57.80600357055664 14.03963565826416 L 57.823734283447266 14.006429672241211 L 57.85213088989258 13.948932647705078 L 58.72087478637695 12.288000106811523 L 58.737762451171875 12.255711555480957 L 58.81161117553711 12.103074073791504 L 59.15603256225586 11.338521003723145 L 59.314796447753906 10.954598426818848 L 59.391998291015625 10.767910957336426 L 59.4763298034668 10.563983917236328 L 59.50330352783203 10.496903419494629 L 59.539588928222656 10.40666389465332 L 59.60137939453125 10.239999771118164 L 59.611576080322266 10.212494850158691 L 59.820098876953125 9.664758682250977 L 59.84323501586914 9.603989601135254 L 59.896820068359375 9.46323299407959 L 60.01944351196289 9.102272033691406 L 60.22697067260742 8.511378288269043 L 60.33043670654297 8.192000389099121 L 60.34473419189453 8.14786434173584 L 60.79378128051758 6.676393508911133 L 60.82122802734375 6.587193012237549 L 60.82182312011719 6.585261821746826 L 60.83485794067383 6.535946369171143 L 60.92097473144531 6.203118801116943 L 60.93687057495117 6.144000053405762 L 61.23671340942383 5.028880596160889 L 61.38984680175781 4.39594841003418 L 61.39825439453125 4.358545303344727 L 61.39911651611328 4.354708194732666 L 61.42483139038086 4.240307807922363 L 61.439998626708984 4.172821998596191 L 61.45726776123047 4.0960001945495605 L 61.54536819458008 3.70404052734375 L 61.88192367553711 2.0480000972747803 L 61.890907287597656 2.003807306289673 L 61.955623626708984 1.6356966495513916 L 61.99077606201172 1.4259357452392578 L 62.228763580322266 0.024711664766073272 L 62.232234954833984 4.440892164675075e-17 L 62.362247467041016 -0.9257103800773621 L 62.44160461425781 -1.5615503787994385 L 62.492679595947266 -2.0480000972747803 L 62.550315856933594 -2.596937894821167 L 62.57612609863281 -2.8427658081054688 L 62.649505615234375 -4.057078838348389 L 62.65281677246094 -4.0960001945495605 L 62.66168975830078 -4.200317859649658 L 62.68574142456055 -4.482983589172363 L 62.685791015625 -4.483561992645264 L 62.69059753417969 -4.689969539642334 L 62.70832443237305 -5.44565486907959 L 62.72314453125 -5.841445446014404 L 62.72205352783203 -6.144000053405762 L 62.71908950805664 -6.965291500091553 L 62.719058990478516 -7.0447916984558105 L 62.719058990478516 -7.046664237976074 L 62.71900177001953 -7.201552867889404 L 62.714839935302734 -8.192000389099121 L 62.7137451171875 -8.452832221984863 L 62.70737838745117 -8.65392017364502 L 62.69501876831055 -9.044151306152344 L 62.668678283691406 -9.826555252075195 L 62.66731643676758 -9.867039680480957 L 62.66710662841797 -9.873275756835938 L 62.66551971435547 -9.893211364746094 L 62.65205383300781 -10.062466621398926 L 62.638187408447266 -10.239999771118164 L 62.56241226196289 -11.210245132446289 L 62.55974578857422 -11.244416236877441 L 62.47776794433594 -11.755006790161133 L 62.39495086669922 -12.288000106811523 L 62.39126205444336 -12.311738967895508 L 62.36631774902344 -12.472280502319336 L 62.0966796875 -13.312000274658203 L 62.07785415649414 -13.370633125305176 L 62.052066802978516 -13.452638626098633 L 62.05076599121094 -13.456780433654785 L 62.04972457885742 -13.460090637207031 L 62.013450622558594 -13.531999588012695 L 61.65431594848633 -14.255999565124512 L 61.59614562988281 -14.336000442504883 L 61.477272033691406 -14.499479293823242 L 61.439998626708984 -14.551178932189941 L 61.2613410949707 -14.798994064331055 L 61.198280334472656 -14.886466026306152 L 61.188350677490234 -14.900242805480957 L 61.08523178100586 -15.00942325592041 L 60.892059326171875 -15.21395492553711 L 60.755496978759766 -15.359999656677246 L 60.68232727050781 -15.438248634338379 L 60.61292266845703 -15.501556396484375 L 60.41600036621094 -15.681175231933594 L 60.40998840332031 -15.686659812927246 L 60.377803802490234 -15.71601390838623 L 60.21820068359375 -15.867345809936523 L 60.16504669189453 -15.917421340942383 L 59.779579162597656 -16.22725486755371 L 59.697471618652344 -16.293251037597656 L 59.62957763671875 -16.341999053955078 L 59.57008361816406 -16.384000778198242 L 59.391998291015625 -16.509719848632812 L 59.2352180480957 -16.620399475097656 L 59.08031463623047 -16.728158950805664 L 58.94136428833008 -16.81261444091797 L 58.862754821777344 -16.860395431518555 L 58.50662612915039 -17.060096740722656 L 58.05146408081055 -17.325090408325195 L 57.91154861450195 -17.40654754638672 L 57.34400177001953 -17.683799743652344 L 57.284950256347656 -17.712644577026367 L 57.27804183959961 -17.716054916381836 L 57.27747344970703 -17.716297149658203 L 57.266448974609375 -17.72099494934082 L 57.26715850830078 -17.7208251953125 L 57.03355407714844 -17.826297760009766 L 56.67559814453125 -17.9879150390625 L 56.673912048339844 -17.988677978515625 L 56.596458435058594 -18.02364730834961 L 55.52517318725586 -18.43199920654297 L 55.29600143432617 -18.51935577392578 L 55.27672576904297 -18.526702880859375 L 55.16348648071289 -18.570308685302734 L 55.00934600830078 -18.62753677368164 L 55.006229400634766 -18.619901657104492 L 53.97660446166992 -18.944900512695312 L 53.336639404296875 -19.156082153320312 L 53.24800109863281 -19.183664321899414 L 53.16217803955078 -19.210369110107422 L 53.01620101928711 -19.25583267211914 L 53.016014099121094 -19.25585174560547 L 52.961509704589844 -19.261676788330078 L 52.189205169677734 -19.4730281829834 L 51.20000076293945 -19.70688819885254 L 51.01962661743164 -19.749530792236328 L 50.934288024902344 -19.768665313720703 L 50.45299530029297 -19.874086380004883 L 50.10310363769531 -19.941068649291992 L 49.30290222167969 -20.094257354736328 L 49.170265197753906 -20.118703842163086 L 49.152000427246094 -20.122072219848633 L 48.28104782104492 -20.282604217529297 L 48.240509033203125 -20.290075302124023 L 47.44240188598633 -20.40999984741211 L 47.2432975769043 -20.44269371032715 L 47.18760299682617 -20.449844360351562 L 47.16570281982422 -20.45227813720703 L 47.14775848388672 -20.454273223876953 L 47.07602310180664 -20.462247848510742 L 46.93733215332031 -20.479999542236328 L 45.323673248291016 -20.68655014038086 L 45.274776458740234 -20.692596435546875 L 45.24546432495117 -20.696592330932617 L 45.242000579833984 -20.697065353393555 L 45.055999755859375 -20.71538543701172 L 44.168827056884766 -20.802762985229492 L 43.59143829345703 -20.85794448852539 L 43.04737854003906 -20.911640167236328 L 43.007999420166016 -20.914146423339844 L 41.78419876098633 -20.992046356201172 L 41.54399871826172 -21.00480079650879 L 41.120697021484375 -21.02577781677246 L 40.959999084472656 -21.033740997314453 L 39.973445892333984 -21.082626342773438 L 39.80073547363281 -21.091184616088867 L 39.41331100463867 -21.096254348754883 L 38.9119987487793 -21.107038497924805 L 38.65372848510742 -21.112592697143555 L 38.61503601074219 -21.113426208496094 L 38.19510269165039 -21.125274658203125 L 38.10475158691406 -21.124401092529297 L 37.777793884277344 -21.12124252319336 L 36.86399841308594 -21.117307662963867 L 35.23142623901367 -21.11027717590332 L 35.17800521850586 -21.110240936279297 L 35.1531982421875 -21.10964012145996 L 35.10590744018555 -21.10836410522461 L 34.816001892089844 -21.100826263427734 L 34.27857971191406 -21.08685302734375 L 34.23984146118164 -21.085845947265625 L 34.12525939941406 -21.082866668701172 L 34.0637321472168 -21.079313278198242 L 33.14958953857422 -21.04541015625 L 32.768001556396484 -21.028303146362305 L 32.5222053527832 -21.017282485961914 L 31.932729721069336 -20.989906311035156 L 31.1341495513916 -20.938505172729492 L 30.719999313354492 -20.90970802307129 L 30.412311553955078 -20.88831329345703 L 30.307870864868164 -20.881052017211914 L 30.095123291015625 -20.86259651184082 L 29.455245971679688 -20.800357818603516 L 28.9979190826416 -20.758329391479492 L 28.832874298095703 -20.740005493164062 L 28.685659408569336 -20.723663330078125 L 28.672000885009766 -20.72214698791504 L 28.503141403198242 -20.703399658203125 L 28.00615882873535 -20.65789031982422 L 27.805999755859375 -20.635705947875977 L 27.585338592529297 -20.607135772705078 L 26.686063766479492 -20.479999542236328 L 26.615402221679688 -20.47001075744629 L 26.433320999145508 -20.445226669311523 L 26.25006866455078 -20.418359756469727 L 25.38545799255371 -20.291606903076172 L 25.064437866210938 -20.235443115234375 L 25.030696868896484 -20.22953987121582 L 24.576000213623047 -20.14999008178711 L 24.234771728515625 -20.09029197692871 L 23.870332717895508 -20.026533126831055 L 23.594928741455078 -19.974761962890625 L 22.527999877929688 -19.782119750976562 L 22.152999877929688 -19.71441078186035 L 21.972835540771484 -19.67913818359375 L 20.676822662353516 -19.397537231445312 L 20.479999542236328 -19.346559524536133 L 19.26165008544922 -19.0310001373291 L 19.246000289916992 -19.027076721191406 L 19.242919921875 -19.02614974975586 L 19.236618041992188 -19.024250030517578 L 19.217409133911133 -19.018465042114258 L 18.43199920654297 -18.7889347076416 L 17.72468376159668 -18.58222770690918 L 17.6049747467041 -18.547243118286133 L 17.36334228515625 -18.47662925720215 L 17.22555160522461 -18.43199920654297 L 16.6299991607666 -18.239105224609375 L 16.629579544067383 -18.238950729370117 L 16.384000778198242 -18.1484432220459 L 15.524218559265137 -17.831579208374023 L 15.513598442077637 -17.827659606933594 L 15.511988639831543 -17.82706642150879 L 15.500972747802734 -17.822322845458984 L 14.504167556762695 -17.394329071044922 L 14.488086700439453 -17.386219024658203 L 14.41700553894043 -17.350370407104492 L 14.336000442504883 -17.30951499938965 L 14.12049674987793 -17.200828552246094 L 13.582751274108887 -16.92932891845703 L 13.475475311279297 -16.86579704284668 L 12.799698829650879 -16.46558380126953 L 12.721818923950195 -16.419633865356445 L 12.719766616821289 -16.418245315551758 L 12.706984519958496 -16.40960121154785 L 12.669133186340332 -16.384000778198242 L 12.64692497253418 -16.368980407714844 L 12.288000106811523 -16.12687110900879 L 11.894335746765137 -15.861329078674316 L 11.799819946289062 -15.787419319152832 L 11.575580596923828 -15.612068176269531 L 11.251708030700684 -15.371028900146484 L 11.237860679626465 -15.359999656677246 L 11.123411178588867 -15.268848419189453 L 10.869267463684082 -15.029200553894043 L 10.446135520935059 -14.643349647521973 L 10.370831489562988 -14.55919361114502 L 10.312531471252441 -14.49404239654541 L 10.239999771118164 -14.412986755371094 L 10.171110153198242 -14.336000442504883 L 10.115696907043457 -14.27407455444336 L 9.87891960144043 -14.011913299560547 L 9.870116233825684 -13.99963092803955 L 9.838476181030273 -13.955487251281738 L 9.755332946777344 -13.839489936828613 L 9.444561004638672 -13.392035484313965 L 9.40454387664795 -13.312000274658203 L 9.21723747253418 -12.937387466430664 L 9.131503105163574 -12.757912635803223 L 9.11258602142334 -12.701074600219727 L 9.04842472076416 -12.508296966552734 L 9.04037094116211 -12.484100341796875 L 8.974227905273438 -12.288000106811523 L 8.963505744934082 -12.256211280822754 L 8.962937355041504 -12.254525184631348 L 8.916631698608398 -12.117240905761719 L 8.911272048950195 -12.101349830627441 L 8.829593658447266 -11.691786766052246 L 8.770087242126465 -11.40091323852539 L 8.759805679321289 -11.307903289794922 L 8.758437156677246 -11.295524597167969 L 8.754952430725098 -11.263999938964844 L 8.721049308776855 -10.957298278808594 L 8.685521125793457 -10.6414794921875 L 8.684755325317383 -10.628965377807617 L 8.678956985473633 -10.534113883972168 L 8.657063484191895 -10.239999771118164 L 8.639991760253906 -10.010653495788574 L 8.633973121643066 -9.865972518920898 L 8.62602710723877 -9.256551742553711 L 8.620294570922852 -9.099159240722656 L 8.622777938842773 -9.00731086730957 L 8.62389087677002 -8.966145515441895 L 8.642213821411133 -8.192000389099121 L 8.649974822998047 -7.864106178283691 L 8.659650802612305 -7.746485233306885 L 8.70952033996582 -7.168000221252441 L 8.724891662597656 -6.989694595336914 L 8.739659309387207 -6.762876510620117 L 8.755768775939941 -6.594437122344971 L 8.76200008392334 -6.529288291931152 L 8.764856338500977 -6.510959148406982 L 8.822035789489746 -6.144000053405762 L 8.891672134399414 -5.697096824645996 L 8.975077629089355 -5.19735860824585 L 9.178041458129883 -4.136890888214111 L 9.186609268188477 -4.0960001945495605 L 9.21175479888916 -3.9759907722473145 L 9.308283805847168 -3.5804033279418945 L 9.446077346801758 -3.0076258182525635 L 9.524128913879395 -2.6682329177856445 L 9.631255149841309 -2.202416181564331 L 9.671957015991211 -2.0480000972747803 L 9.738200187683105 -1.7966903448104858 L 9.782963752746582 -1.6260273456573486 L 9.847548484802246 -1.3797993659973145 L 9.887670516967773 -1.2268322706222534 L 10.049403190612793 -0.6604773998260498 L 10.239999771118164 -0.014250878244638398 L 10.244203567504883 4.440892164675075e-17 L 10.287013053894043 0.14514838159084326 L 10.449798583984375 0.7100167274475098 L 10.528724670410156 0.9364442825317383 L 10.902341842651367 2.0480000972747803 L 11.01919174194336 2.395639657974243 L 11.033073425292969 2.438455104827881 L 11.09296703338623 2.6231846809387207 L 11.220026969909668 2.95094895362854 L 11.231424331665039 2.98034930229187 L 11.447029113769531 3.569378614425659 L 11.584861755371094 3.925698757171631 L 11.652365684509277 4.0960001945495605 L 12.047138214111328 5.091951847076416 L 12.129660606384277 5.286163806915283 L 12.288000106811523 5.65880823135376 L 12.494161605834961 6.144000053405762 L 12.537071228027344 6.244985580444336 L 12.649066925048828 6.500185489654541 L 12.860909461975098 6.992029666900635 L 12.907397270202637 7.099963188171387 L 12.925390243530273 7.141737937927246 L 13.000683784484863 7.294280529022217 L 13.255903244018555 7.825906276702881 L 13.429315567016602 8.192000389099121 L 13.435670852661133 8.205415725708008 L 13.720303535461426 8.767189979553223 L 13.98304557800293 9.294425964355469 L 14.045565605163574 9.411349296569824 L 14.336000442504883 9.95450496673584 L 14.391800880432129 10.05886173248291 L 14.490479469299316 10.239999771118164 L 14.84165096282959 10.884621620178223 L 15.017436981201172 11.176471710205078 L 15.128178596496582 11.360330581665039 L 15.147649765014648 11.392658233642578 L 15.326294898986816 11.689254760742188 L 15.520169258117676 12.017932891845703 L 15.6603422164917 12.254786491394043 L 15.682151794433594 12.288000106811523 L 15.704248428344727 12.321649551391602 L 16.350852966308594 13.30635929107666 L 16.384000778198242 13.352095603942871 L 16.450403213500977 13.443718910217285 L 16.992910385131836 14.18164348602295 L 17.010425567626953 14.20467758178711 L 17.1028995513916 14.326276779174805 L 17.110515594482422 14.336000442504883 L 17.491296768188477 14.822152137756348 L 17.551837921142578 14.907546043395996 L 17.556602478027344 14.914266586303711 L 17.662965774536133 15.045218467712402 L 17.765697479248047 15.167756080627441 L 18.056777954101562 15.477983474731445 L 18.22951316833496 15.673125267028809 L 18.300556182861328 15.75338363647461 L 18.332670211791992 15.789664268493652 L 18.43199920654297 15.889415740966797 L 18.62645721435547 16.084699630737305 L 18.920867919921875 16.384000778198242 L 18.958450317382812 16.42220687866211 L 19.035402297973633 16.500438690185547 L 19.571340560913086 16.97882652282715 L 19.692928314208984 17.089250564575195 L 19.77879524230957 17.167232513427734 L 20.241426467895508 17.52332878112793 L 20.27793312072754 17.55202293395996 L 20.479999542236328 17.710845947265625 L 20.568086624145508 17.780080795288086 L 20.988082885742188 18.06812286376953 L 21.389589309692383 18.34670639038086 L 21.426233291625977 18.368616104125977 L 21.532245635986328 18.43199920654297 L 21.642301559448242 18.497802734375 L 21.93848419189453 18.67675018310547 L 21.939393997192383 18.67730140686035 L 22.241130828857422 18.859603881835938 L 22.245271682739258 18.862106323242188 L 22.527999877929688 19.010475158691406 L 22.797021865844727 19.15165138244629 L 23.132892608642578 19.328105926513672 L 23.407148361206055 19.448410034179688 L 23.418071746826172 19.453201293945312 L 24.27739906311035 19.830148696899414 L 24.576000213623047 19.964468002319336 L 24.971487045288086 20.142370223999023 L 24.974123001098633 20.136877059936523 L 25.238466262817383 20.235937118530273 L 25.89045524597168 20.479999542236328 L 25.916841506958008 20.489877700805664 L 26.4753475189209 20.67550277709961 L 26.624000549316406 20.72334861755371 L 27.273067474365234 20.932254791259766 L 27.626066207885742 21.048648834228516 L 27.66998291015625 21.063127517700195 L 27.83244514465332 21.110958099365234 L 28.233829498291016 21.213394165039062 L 28.672000885009766 21.332170486450195 L 28.75352668762207 21.35426902770996 L 28.797344207763672 21.366147994995117 L 28.806915283203125 21.3687744140625 L 28.8079776763916 21.36906623840332 L 28.829431533813477 21.374048233032227 L 30.719999313354492 21.81698226928711 L 30.7701358795166 21.82872772216797 L 31.173324584960938 21.901443481445312 L 31.769248962402344 22.008920669555664 L 32.00349426269531 22.051166534423828 L 32.753631591796875 22.191957473754883 L 32.768001556396484 22.193817138671875 L 33.062564849853516 22.23193359375 L 33.75299835205078 22.330764770507812 L 33.83079147338867 22.33940887451172 L 34.27199935913086 22.388431549072266 L 34.79176330566406 22.446182250976562 L 34.816001892089844 22.44841194152832 L 35.28801727294922 22.491836547851562 L 35.585567474365234 22.52448272705078 L 35.633548736572266 22.527999877929688 L 36.11101531982422 22.563007354736328 L 36.76374435424805 22.618000030517578 L 36.86399841308594 22.621984481811523 L 37.351375579833984 22.641355514526367 L 37.83482360839844 22.658390045166016 L 38.18987274169922 22.670900344848633 L 38.60926055908203 22.68984031677246 L 38.778629302978516 22.692142486572266 L 38.79640579223633 22.692272186279297 L 38.9119987487793 22.69310760498047 L 38.94823455810547 22.693368911743164 L 39.06158447265625 22.687036514282227 L 39.64542770385742 22.68587875366211 L 39.787437438964844 22.685596466064453 L 40.654212951660156 22.65597152709961 L 40.72600555419922 22.653013229370117 L 40.764060974121094 22.651443481445312 L 40.93233871459961 22.64451026916504 L 40.959999084472656 22.642866134643555 L 42.18103790283203 22.57029914855957 L 42.21100616455078 22.567386627197266 L 42.616180419921875 22.527999877929688 L 43.007999420166016 22.489912033081055 L 43.42744445800781 22.449138641357422 L 43.80781555175781 22.41214370727539 L 43.97572326660156 22.389841079711914 L 44.303749084472656 22.335838317871094 L 44.38778305053711 22.322002410888672 L 45.055999755859375 22.204307556152344 L 45.62576675415039 22.103952407836914 L 45.726314544677734 22.086315155029297 L 46.2049674987793 22.002357482910156 L 46.77949523925781 21.88091278076172 L 46.92045593261719 21.842554092407227 L 47.104000091552734 21.79261016845703 L 47.38341522216797 21.716575622558594 L 48.34273910522461 21.455524444580078 z" fill="none" stroke="rgb(0,0,255)" stroke-width="0.01mm" />
</svg>